<svg xmlns="http://www.w3.org/2000/svg" width="109" height="76" viewBox="0 0 109 76">
    <path fill="#42969B" fill-rule="evenodd" d="M26.633 75.2c-8.666 0-15.166-2.8-19.5-8.4C2.8 61.2.633 54.067.633 45.4c0-9.867 2.734-18.733 8.2-26.6 5.467-7.867 13.334-13.867 23.6-18l19.4 12.4c-7.333 3.067-13.366 6.3-18.1 9.7-4.733 3.4-8.166 7.5-10.3 12.3l1 .8c1.734-1.867 3.867-2.8 6.4-2.8 5.467 0 10.234 1.7 14.3 5.1 4.067 3.4 6.1 8.3 6.1 14.7 0 7.467-2.166 13.033-6.5 16.7-4.333 3.667-10.366 5.5-18.1 5.5zm56.6 0c-8.666 0-15.166-2.8-19.5-8.4-4.333-5.6-6.5-12.733-6.5-21.4 0-9.867 2.734-18.733 8.2-26.6 5.467-7.867 13.334-13.867 23.6-18l19.4 12.4c-7.333 3.067-13.366 6.3-18.1 9.7-4.733 3.4-8.166 7.5-10.3 12.3l1 .8c1.734-1.867 3.867-2.8 6.4-2.8 5.467 0 10.234 1.7 14.3 5.1 4.067 3.4 6.1 8.3 6.1 14.7 0 7.467-2.166 13.033-6.5 16.7-4.333 3.667-10.366 5.5-18.1 5.5z" opacity=".2"/>
</svg>
