<svg xmlns="http://www.w3.org/2000/svg" width="135" height="25" viewBox="0 0 135 25">
    <g fill="none" fill-rule="nonzero">
        <path fill="#fff" d="M22.5 7c-2.083 0-3.84.728-5.308 2.202C15.725 10.676 15 12.46 15 14.535c0 2.093.725 3.858 2.192 5.332 1.25 1.256 2.735 1.984 4.438 2.166v1.784a1.178 1.178 0 1 0 2.355 0v-1.874c1.45-.273 2.718-.965 3.823-2.075C29.275 18.394 30 16.61 30 14.535s-.725-3.859-2.192-5.333C26.341 7.746 24.565 7 22.5 7zm3.786 11.357c-1.05 1.055-2.318 1.583-3.786 1.583-1.485 0-2.754-.528-3.804-1.583-1.051-1.056-1.576-2.33-1.576-3.822 0-1.493.525-2.767 1.576-3.822 1.05-1.056 2.319-1.584 3.804-1.584 1.486 0 2.754.528 3.786 1.584 1.051 1.055 1.577 2.33 1.577 3.822s-.526 2.766-1.577 3.822zM12.5 2c-.405 0-.77.142-1.054.446A1.427 1.427 0 0 0 11 3.5c0 .405.142.77.446 1.054.304.304.649.446 1.054.446s.77-.142 1.054-.446C13.858 4.25 14 3.905 14 3.5s-.142-.77-.446-1.054C13.25 2.162 12.906 2 12.5 2zM7.858 19.807c-2.245 0-3.386-1.096-3.386-3.307V8.807h2.264c.305 0 .57-.111.8-.315.228-.223.323-.483.323-.78 0-.298-.115-.558-.324-.781a1.09 1.09 0 0 0-.799-.316H4.491V1.096c0-.297-.115-.557-.324-.78A1.09 1.09 0 0 0 3.368 0c-.305 0-.571.111-.8.316a1.038 1.038 0 0 0-.323.78v5.5H1.123c-.305 0-.571.112-.8.316a1.038 1.038 0 0 0-.323.78c0 .298.114.558.324.781.228.223.494.316.799.316h1.122V16.5c0 3.66 1.884 5.5 5.632 5.5.305 0 .571-.112.8-.316.228-.223.323-.483.323-.78 0-.298-.114-.558-.324-.78a1.181 1.181 0 0 0-.818-.317zM12 7a.995.995 0 0 0-.712.308 1.06 1.06 0 0 0-.288.76v12.864c0 .29.102.543.288.76.204.217.44.308.712.308a.995.995 0 0 0 .712-.308 1.06 1.06 0 0 0 .288-.76V8.068c0-.29-.102-.543-.288-.76A.995.995 0 0 0 12 7z"/>
        <path fill="#fff" d="M22.796 11c-.666 0-1.203.537-1.203 1.204v1.389h-1.39c-.666 0-1.203.537-1.203 1.203 0 .667.537 1.204 1.204 1.204h2.592c.667 0 1.204-.537 1.204-1.204v-2.592c0-.667-.537-1.204-1.204-1.204zM44.908 7c-.292 0-.546.108-.765.308a1.02 1.02 0 0 0-.31.76v6.966c0 1.339-.473 2.46-1.42 3.401-.946.941-2.093 1.412-3.422 1.412-1.347 0-2.476-.47-3.423-1.412-.946-.94-1.42-2.08-1.42-3.401V8.068c0-.29-.109-.543-.309-.76A1.033 1.033 0 0 0 33.074 7c-.291 0-.546.108-.764.308a1.02 1.02 0 0 0-.31.76v6.966c0 1.918.692 3.564 2.057 4.921C35.423 21.312 37.08 22 39.01 22c1.893 0 3.496-.652 4.843-1.936v.868c0 .29.109.543.309.76.219.217.473.308.765.308.291 0 .546-.109.765-.308.218-.217.309-.47.309-.76V8.068c0-.29-.11-.543-.31-.76-.236-.2-.49-.308-.782-.308z"/>
        <path fill="#fff" d="M98.796 13h-2.592c-.667 0-1.204.537-1.204 1.204v2.592c0 .667.537 1.204 1.204 1.204.666 0 1.203-.537 1.203-1.204v-1.389h1.39c.666 0 1.203-.537 1.203-1.203 0-.667-.537-1.204-1.204-1.204zM117.891 7c-.291 0-.545.108-.764.308a1.02 1.02 0 0 0-.309.76v6.966c0 1.339-.473 2.46-1.418 3.401-.945.941-2.09 1.412-3.418 1.412-1.345 0-2.473-.47-3.418-1.412-.946-.94-1.418-2.08-1.418-3.401V8.068c0-.29-.11-.543-.31-.76a1.03 1.03 0 0 0-.763-.308c-.291 0-.546.108-.764.308a1.02 1.02 0 0 0-.309.76v6.966c0 1.918.69 3.564 2.055 4.921C108.418 21.312 110.073 22 112 22c1.891 0 3.49-.652 4.854-1.936v.868c0 .29.11.543.31.76.218.217.472.308.763.308.291 0 .546-.109.764-.308.218-.217.309-.47.309-.76V8.068c0-.29-.109-.543-.31-.76-.253-.2-.508-.308-.799-.308z"/>
        <path fill="#fff" d="M54.49 7c-2.08 0-3.835.724-5.3 2.19-1.466 1.465-2.19 3.238-2.19 5.319 0 2.08.724 3.836 2.19 5.302C50.654 21.276 52.427 22 54.49 22c1.883 0 3.511-.597 4.886-1.81.2-.217.308-.47.308-.76 0-.29-.109-.542-.308-.76a1.023 1.023 0 0 0-.76-.307c-.253 0-.47.072-.67.235-.958.85-2.116 1.266-3.455 1.266-1.484 0-2.75-.524-3.8-1.574-.778-.778-1.284-1.7-1.465-2.714h11.706c.29 0 .543-.108.76-.308.218-.217.308-.47.308-.76 0-2.062-.724-3.835-2.19-5.301C58.328 7.742 56.573 7 54.49 7zm-5.265 6.423c.2-1.031.688-1.936 1.466-2.714 1.05-1.05 2.316-1.574 3.8-1.574s2.75.525 3.781 1.574c.778.778 1.285 1.701 1.466 2.714H49.225z"/>
        <path fill="#fff" d="M95.5 7c-2.065 0-3.84.729-5.308 2.204C88.725 10.68 88 12.465 88 14.542c0 2.095.725 3.863 2.192 5.338 1.232 1.24 2.681 1.95 4.33 2.15v1.786c0 .656.525 1.184 1.177 1.184s1.178-.529 1.178-1.184v-1.84c1.485-.255 2.808-.966 3.931-2.095 1.467-1.458 2.192-3.243 2.192-5.32 0-2.077-.725-3.862-2.192-5.338S97.565 7 95.5 7zm3.786 11.368c-1.05 1.057-2.318 1.585-3.804 1.585-1.485 0-2.754-.528-3.786-1.585-1.05-1.057-1.576-2.332-1.576-3.826 0-1.494.525-2.769 1.576-3.825 1.05-1.057 2.319-1.586 3.786-1.586 1.486 0 2.754.529 3.804 1.586 1.051 1.056 1.577 2.331 1.577 3.825 0 1.494-.526 2.77-1.577 3.826zM132.793 9.192C131.327 7.725 129.553 7 127.49 7c-2.08 0-3.836.725-5.302 2.192C120.724 10.659 120 12.435 120 14.5c0 2.083.724 3.84 2.19 5.308 1.465 1.467 3.238 2.192 5.3 2.192 1.883 0 3.511-.598 4.886-1.812a1.1 1.1 0 0 0 .308-.76 1.1 1.1 0 0 0-.308-.762 1.022 1.022 0 0 0-.76-.307c-.253 0-.47.072-.67.235-.958.851-2.116 1.268-3.455 1.268-1.484 0-2.75-.526-3.782-1.576-.778-.78-1.284-1.703-1.465-2.717h11.688c.29 0 .543-.11.76-.309.218-.217.308-.47.308-.76-.018-2.084-.742-3.859-2.207-5.308zm-10.567 4.221c.199-1.033.687-1.938 1.466-2.717 1.049-1.051 2.316-1.577 3.781-1.577 1.484 0 2.75.526 3.8 1.577.778.779 1.284 1.702 1.465 2.717h-10.512zM79.5 7c-2.083 0-3.84.725-5.308 2.192C72.725 10.659 72 12.434 72 14.5c0 2.083.725 3.84 2.192 5.308C75.659 21.275 77.435 22 79.5 22s3.859-.743 5.362-2.246v1.177c0 .29.109.544.308.761.218.217.471.308.761.308a1.1 1.1 0 0 0 .761-.308c.218-.217.308-.471.308-.761v-6.413c0-2.065-.725-3.84-2.192-5.308C83.341 7.743 81.583 7 79.5 7zm3.804 11.304c-1.05 1.05-2.318 1.576-3.804 1.576-1.485 0-2.753-.525-3.804-1.576-1.05-1.05-1.576-2.318-1.576-3.804 0-1.486.525-2.754 1.576-3.804 1.05-1.051 2.319-1.576 3.804-1.576 1.486 0 2.754.525 3.804 1.576 1.051 1.05 1.577 2.318 1.577 3.804 0 1.486-.544 2.753-1.577 3.804zM70.877 19.807c-2.245 0-3.386-1.096-3.386-3.307V8.807h2.264c.304 0 .57-.111.8-.315.227-.223.323-.483.323-.78 0-.298-.114-.558-.324-.781a1.09 1.09 0 0 0-.8-.316h-2.263V1.096c0-.297-.114-.557-.324-.78A1.09 1.09 0 0 0 66.368 0c-.305 0-.57.111-.8.316a1.038 1.038 0 0 0-.323.78v5.5h-1.122c-.305 0-.57.112-.8.316a1.038 1.038 0 0 0-.323.78c0 .298.114.558.324.781.228.223.494.316.799.316h1.122V16.5c0 3.66 1.884 5.5 5.632 5.5.305 0 .571-.112.8-.316.228-.223.323-.483.323-.78 0-.298-.114-.558-.324-.78a1.17 1.17 0 0 0-.799-.317z"/>
    </g>
</svg>
