<svg xmlns="http://www.w3.org/2000/svg" width="875" height="336" viewBox="0 0 875 336">
    <path fill="#F4F3F8" fill-rule="evenodd" d="M.102 208.305c0-44.442 18.75-93.934 39.095-117.041 20.58-23.374 50.313-34.329 79.596-38.309 29.282-3.98 58.939-1.8 88.417-3.148 40.368-1.845 80.482-10.36 118.598-25.175 32.177-12.507 65.26-29.786 98.84-23.171 25.484 5.02 47.213 23.262 71.938 31.737 61.277 21.004 124.85-20.63 188.825-25.92 38.895-3.22 78.637 7.596 111.738 30.407 48.76 33.602 76.984 98.013 76.984 159.159 0 49.039-31.962 104.97-63.64 122.506-31.676 17.536-80.268 10.451-115.664 12.083-83.292 3.843-172.993 8.44-255.92-1.007-57.616-6.562-111.16 1.573-169.069.193-60.1-1.434-81.819 1.629-156.23.814C39.196 330.62.101 252.746.101 208.305z"/>
</svg>
