<svg xmlns="http://www.w3.org/2000/svg" width="60" height="54" viewBox="0 0 60 54">
    <g fill="none" fill-rule="evenodd">
        <path fill="#135959" d="M43.294 43.706l-3.247 6.227a4.886 4.886 0 0 1-6.028 2.325l-7.076-2.615-8.952 3.251c-3.15 1.144-6.666-.498-7.81-3.648L.408 22.33c-1.143-3.15.499-6.664 3.65-7.81L38.166 2.137c3.152-1.143 6.666.5 7.808 3.65l9.774 26.913c1.144 3.15-.497 6.665-3.648 7.81l-8.805 3.197z"/>
        <path fill="#42969B" d="M46.492 42.544l-3.248 6.228a4.885 4.885 0 0 1-6.028 2.325l-7.077-2.615-8.95 3.25c-3.151 1.144-6.666-.497-7.81-3.648L3.606 21.171c-1.144-3.151.497-6.666 3.65-7.81L41.362.975c3.152-1.144 6.665.498 7.809 3.649l9.773 26.912c1.144 3.152-.498 6.666-3.649 7.81l-8.804 3.197z"/>
        <path fill="#C5CE50" d="M31.363 34.782c.006.024.007.04.006.029l-.006-.03zm-.018-.077s.002 0 0 0h.002v.001h-.002zm8.755-19.61c-2.2-.79-2.385-.8-2.447-.647-.078.295-.078.568-.127.809-.055.276.264.662.213.933-.046.241-.29.43-.363.723-.058.231-.237.448-.328.738-.073.23-.022.529-.123.808-.116.324-.61.462-.712.706-.135.323-.237.598-.355.832-.154.301-.322.54-.468.789-.144.246-.198.526-.352.823-.12.232-.236.494-.375.811-.105.24.085.628-.038.94-.162.414-.173.807-.28 1.11-.116.21-.582.288-.715.545-.107.202-.305.393-.43.656-.098.207.034.543-.083.806-.132.302-.198.588-.316.817-.153.3-.633.382-.768.593-.173.27-.335.491-.501.707-.165.219-.022.6-.21.857-.145.203-.438.357-.61.637-.137.208-.456.34-.615.613-.089.15-.157.297-.22.438a.395.395 0 0 1-.129-.041c-.189-.115-.207-.514-.428-.65-.174-.107-.276-.378-.506-.52-.17-.116-.36-.248-.578-.4-.208-.128-.523-.026-.686-.132-.211-.135-.54-.01-.7-.114l-.556-.348c-.23-.204-.354-.61-.47-.682-.224-.14-.47-.181-.639-.301-.223-.156-.246-.546-.402-.678-.2-.17-.578.015-.74-.14-.162-.155-.268-.399-.468-.568-.157-.134-.15-.565-.372-.721-.167-.118-.377-.217-.601-.356l-.54-.324c-.206-.116-.361-.256-.53-.335-.213-.103-.544.037-.725-.037-.202-.08-.509.024-.714-.06-.177-.074-.123-.527-.334-.633-.093-.085-.196-.007-1.484 1.944-1.288 1.952-1.351 2.12-1.245 2.192.218.103.44.137.622.206.21.08.612-.173.818-.096.184.067.265.312.484.412.17.078.292.269.502.384.166.09.424.076.622.2.228.14.202.617.373.739.224.159.42.282.578.419.203.173.353.356.518.516.164.162.38.24.582.413.16.137.35.27.575.428.173.124.541-.025.769.118.304.187.628.227.854.35.148.125.11.574.298.714.15.113.266.315.464.449.156.104.467-.006.665.117.232.142.464.208.636.329.227.157.22.616.383.75.206.17.373.33.54.488.17.155.512.021.72.192.16.134.264.414.49.572.173.12.268.425.499.566.259.162.53.231.743.34l.027.011.013.007.004.002.002.002v-.001l.271-.464.006.006a2.255 2.255 0 0 0 1.369.502c.31 0 .644-.047 1.048-.258.808-.416 1.081-1.28 1.115-1.477.035-.142.042-.295.048-.445.122-.111.247-.227.356-.383.175-.265.37-.573.583-.928.183-.314.06-.75.2-.99.18-.32.593-.445.725-.69.173-.313.077-.7.215-.962.139-.265.565-.383.718-.702.122-.246.418-.446.57-.78.117-.253.285-.52.428-.845.136-.302.023-.672.13-.906.135-.307-.01-.68.095-.91.125-.3.23-.557.334-.805.202-.35.616-.642.681-.81.13-.325.155-.643.263-.893.142-.328.55-.496.67-.735.155-.307-.077-.704.069-.96.144-.255.384-.472.537-.78.121-.24.57-.39.705-.718.102-.248.178-.54.294-.863l.268-.772c.094-.293.219-.533.281-.765.078-.295-.109-.64-.057-.887.057-.272-.09-.6-.03-.875.053-.242.533-.35.616-.646.076-.142-.018-.236-2.219-1.025z"/>
    </g>
</svg>
