<svg xmlns="http://www.w3.org/2000/svg" xmlns:xlink="http://www.w3.org/1999/xlink" width="24" height="24" viewBox="0 0 24 24">
    <defs>
        <path id="a" d="M9 7a6 6 0 0 1 6-6h3a1 1 0 0 1 1 1v4a1 1 0 0 1-1 1h-3v2h3a1 1 0 0 1 .97 1.243l-1 4A1 1 0 0 1 17 15h-2v7a1 1 0 0 1-1 1h-4a1 1 0 0 1-1-1v-7H7a1 1 0 0 1-1-1v-4a1 1 0 0 1 1-1h2V7zm8-4h-2a4 4 0 0 0-4 4v3a1 1 0 0 1-1 1H8v2h2a1 1 0 0 1 1 1v7h2v-7a1 1 0 0 1 1-1h2.22l.5-2H14a1 1 0 0 1-1-1V7a2 2 0 0 1 2-2h2V3z"/>
    </defs>
    <g fill="none" fill-rule="evenodd">
        <mask id="b" fill="#42969B">
            <use xlink:href="#a"/>
        </mask>
        <use fill="#42969B" fill-rule="nonzero" xlink:href="#a"/>
        <g fill="#42969B" mask="url(#b)">
            <path d="M0 0h24v24H0z"/>
        </g>
    </g>
</svg>
