<svg xmlns="http://www.w3.org/2000/svg" xmlns:xlink="http://www.w3.org/1999/xlink" width="24" height="24" viewBox="0 0 24 24">
    <defs>
        <path id="a" d="M7 1h10a6 6 0 0 1 6 6v10a6 6 0 0 1-6 6H7a6 6 0 0 1-6-6V7a6 6 0 0 1 6-6zm0 2a4 4 0 0 0-4 4v10a4 4 0 0 0 4 4h10a4 4 0 0 0 4-4V7a4 4 0 0 0-4-4H7zm9.99 8.223a5 5 0 1 1-9.893 1.467 5 5 0 0 1 9.892-1.467zm-1.98.294a3 3 0 1 0-5.934.88 3 3 0 0 0 5.935-.88z"/>
    </defs>
    <g fill="none" fill-rule="evenodd">
        <mask id="b" fill="#42969B">
            <use xlink:href="#a"/>
        </mask>
        <use fill="#42969B" fill-rule="nonzero" xlink:href="#a"/>
        <g fill="#42969B" mask="url(#b)">
            <path d="M0 0h24v24H0z"/>
        </g>
    </g>
</svg>
