<svg xmlns="http://www.w3.org/2000/svg" xmlns:xlink="http://www.w3.org/1999/xlink" width="134" height="52" viewBox="0 0 134 52">
    <defs>
        <path id="a" d="M.003.478h133.763v52.52H.003z"/>
    </defs>
    <g fill="none" fill-rule="evenodd" opacity=".8">
        <path fill="#E9E7F2" d="M8.57 49c-3.425-4.808-6.585-10.347-5.262-16.4.637-2.919 2.545-5.476 5.284-6.656 4.176-1.796 7.372.478 10.299 2.642l22.046 16.303a96.503 96.503 0 0 1-2.12-19.747c-.03-7.817 1.292-16.548 9.764-20.003 3.981-1.621 8.436-1.427 12.473.047 8.8 3.219 14.294 10.903 19.488 18.311l11.943 17.03c-1.354-4.358 2.999-8.82 7.53-9.278 4.531-.457 8.852 1.83 12.733 4.214 5.177 3.18 12.307 5.046 17.577 8.19 1.333.794.528 2.859-.997 2.566-7.695-1.484-16.801-.02-24.316.111-32.48.576-64.957 1.15-97.432 1.724"/>
        <g>
            <mask id="b" fill="#fff">
                <use xlink:href="#a"/>
            </mask>
            <path fill="#E9E7F2" d="M103.655 28.086c-.607-.087-1.135.056-1.596.04-.583-.046-1.091-.133-1.6-.122-.516.046-.987.227-1.644.357-.511.072-1.033.268-1.666.45-.461.177-1.048.226-1.614.522-.588.268-.864.895-1.262 1.15-.495.377-1.28.233-1.631.611-.464.45-.394 1.286-.694 1.692-.123.18-.145.177-.247.247-.094.063-.158.096-.17.167-.032.087-.117.13-.256.132-.027.085-.093.057-.107.152-.023.072.138 1.113.134 1.272.006.182-.005.103.026.212-.237-.207-.31-.187-.41-.338-.083-.125-.145-.629-.22-.74-.412-.214-.233-.835-.264-.883-.05-.073-.398.143-.474.025l-.6-.961c-.225-.334-.685-.501-.953-.896-.209-.305.135-1.061-.144-1.466-.215-.312-.616-.544-.89-.941-.276-.396-.452-.79-.649-1.11-.262-.421-.963-.434-1.135-.767-.22-.426-.161-.961-.33-1.336-.169-.376-.04-.961-.257-1.387-.172-.336-.438-.657-.7-1.077-.198-.32-.398-.696-.673-1.093-.273-.395-.765-.566-.987-.876-.293-.403-.577-.71-.806-1.01-.292-.385-.571-.686-.825-1.008-.252-.322-.226-.855-.523-1.239-.232-.3-.834-.385-1.145-.785-.235-.31-.317-.79-.621-1.19-.298-.401-.564-.751-.796-1.065-.321-.402-.926-.472-1.175-.762-.321-.374-.166-1.063-.465-1.372-.297-.31-1-.251-1.344-.607-.274-.279-.248-.906-.61-1.29-.27-.291-.474-.732-.837-1.105-.36-.37-.677-.7-.985-.972-.4-.357-.7-.693-1.023-.945-.406-.324-.952-.35-1.296-.615-.349-.265-.827-.366-1.243-.664-.322-.239-.584-.653-1.044-.943-.353-.22-.955-.123-1.408-.381-.446-.26-.512-1.088-.87-1.311-.472-.282-.95-.361-1.298-.582-.445-.286-.768-.673-1.166-.896-.402-.226-.867-.251-1.362-.479-.391-.181-.876-.23-1.413-.407-.414-.128-.875-.294-1.42-.407-.54-.123-1.077.146-1.495.088-.551-.056-1.022-.105-1.445-.1-.54-.008-1-.14-1.452-.099-.342-.012-.743-.521-1.2-.497-.372.008-.754.281-1.183.331-.574.066-.995.583-1.422.671-.557.108-1.137-.203-1.57-.086-.55.169-.91.608-1.35.787-.448.157-.976.125-1.49.368-.395.196-.925.242-1.434.579-.395.25-.632.827-1.1 1.164-.456.352-1.15.306-1.52.6-.463.413-.6 1.015-.93 1.326-.424.394-1.02.53-1.363.91-.349.38-.27 1.051-.594 1.521-.269.371-.305.932-.57 1.447-.21.386-.861.626-1.074 1.163a10.273 10.273 0 0 0-.502 1.432c-.152.553-.443.977-.499 1.405-.076.546-.003 1.043-.033 1.505-.007.459.025.923-.007 1.45-.03.413.189.903.135 1.433-.047.403-.325.824-.38 1.339-.062.517-.218.955-.266 1.354-.072.524.35.993.28 1.376-.095.491-.688.904-.786 1.33-.103.425.272.855.188 1.35-.058.385-.161.817-.19 1.328-.017.389-.595.84-.582 1.345.017.505.659.918.68 1.306.033.51-.333.962-.298 1.347.045.491-.17.926-.12 1.343.048.42.81.78.865 1.267.043.382.088.809.14 1.315.045.386-.656.9-.6 1.4.028.25.223.463.417.663.18.08.353.067.364.127.018.118-.127.169-.114.233.025.088.1.2.127.297-.091.187.104.459.132.579-.183.12-.117.24-.03.398.234.415.428.8.403.82-.063.012-.49-.694-.497-.626-.017.059.01.244-.073.239-.077-.01-.398-.746-.453-.762-.046-.018-.062.244-.175.16-.106-.079-.197-.192-.273-.25-.106-.081-.161-.235-.229-.286-.09-.076-.304.297-.731-.03-.318-.242-.364-.867-.74-1.152-.293-.224-.718-.347-1.109-.644-.302-.226-.576-.562-.96-.85-.386-.288-.858-.354-1.157-.578-.401-.288-.739-.526-1.04-.742-.375-.286-.532-.755-.849-1-.32-.246-.883-.155-1.258-.441-.294-.226-.58-.537-.972-.834-.3-.226-.766-.301-1.149-.589-.388-.287-.52-.817-.81-1.06-.377-.315-.748-.509-1.015-.77-.343-.334-.588-.679-.865-.981-.279-.302-.34-.897-.682-1.23-.265-.261-.845-.173-1.224-.489-.293-.245-.714-.397-1.132-.7-.421-.301-.6-.874-.972-1.109-.484-.308-1.113-.21-1.514-.411-.506-.264-.996-.421-1.477-.598-.477-.182-.931-.508-1.564-.659-.486-.114-.982-.693-1.724-.757-.577-.04-1.186.665-1.835.727-.657.079-1.29-.07-1.788.086-.653.183-1.306.011-1.791.233-.6.298-.948.83-1.389 1.148-.454.32-.639.973-1.084 1.386-.344.328-1.027.414-1.453.93-.32.394-.295 1.108-.616 1.62-.328.509-.957.784-1.17 1.237-.264.587-.527 1.071-.665 1.54-.17.587-.38 1.111-.44 1.598-.061.5-.2.983-.221 1.575-.03.463.237.99.255 1.583-.01.46.22.955.27 1.524.029.576.285 1.032.325 1.469.073.565-.011 1.074.041 1.509.106.538.353.953.445 1.403.098.442-.263 1.078-.09 1.597.126.409.516.76.736 1.264.159.392.038.983.288 1.46.215.43.579.706.77 1.03.24.41.3.85.511 1.155.266.39.602.64.838.93.26.329.572.578.843.899.236.285.771.374 1.05.725.107.21-.153.51 2.28-1.245 2.428-1.759 2.226-1.709 2.106-1.896-.26-.318.015-.943-.199-1.181-.245-.278-.947-.218-1.184-.492-.215-.25-.014-.791-.24-1.106-.183-.25-.839-.258-1.044-.603-.161-.272.14-.841-.024-1.177-.202-.382-.9-.458-1.024-.783-.178-.415-.164-.828-.248-1.146-.12-.409-.148-.769-.206-1.117-.06-.346-.274-.632-.343-1.035-.03-.32.343-.753.288-1.137-.01-.293-.219-.607-.231-.986-.033-.378.246-.715.25-.992-.024-.368-.217-.69-.213-.979-.022-.362-.094-.69-.087-1.008.007-.338.33-.523.391-.85.049-.245-.267-.687-.133-1.033.111-.248.058-.637.255-.946.192-.31.611-.383.783-.58.232-.268.613-.287.8-.442.249-.185.331-.52.575-.65.247-.13.677.115.94.024.2-.075.374-.403.665-.48a5.2 5.2 0 0 1 .725-.173c.255-.017.497-.481.744-.475.326.008.47.641.686.66.283.022.651-.22.95-.156.294.053.576.185.937.328.277.106.774-.035 1.158.191.294.172.248.93.61 1.184.364.278.688.523.976.741.393.291.79.453 1.09.67.381.278 1.042.054 1.369.288.325.236.344.891.726 1.169.299.219.87.14 1.264.43.302.228.673.43 1.06.72.383.287.369 1.023.654 1.266.38.318 1.022.14 1.287.407.336.339.28 1.098.55 1.409.272.31.571.58.909.92.264.268.675.409 1.048.728.29.243.854.181 1.241.469.384.289.781.456 1.097.66.414.266.642.658.976.827.427.217.931.209 1.314.368.094.04.185.085.275.135l.341.212c.283.184.576.378.893.564.504.294 1.06.521 1.66.926.459.312.968.668 1.547 1.102.558.415 1.277 1.743 1.82 2.186.677.554 1.09-.146 1.664.374.734.667.957-.863 1.639-.215.7.664.02-.696.796 0 .212-.078.847.458.809.215-.11-.683.905.99.7 0-.204-1.01.356.447.184-.29-.231-.98-.043-1.425-.271-2.247-.288-1.024-.358-1.73-.613-2.573-.265-.858-.83-1.803-1.038-2.61-.172-.66-.5-1.378-.636-2.14-.05-.295.055-.603.168-.977.13-.227.26-.463.234-.696-.058-.468-.274-.862-.299-1.229-.031-.484.095-.902.093-1.266a26.7 26.7 0 0 1 .031-1.257c.022-.394.211-.802.225-1.263.01-.363-.389-.746-.397-1.23-.004-.366-.268-.768-.288-1.24-.012-.472.131-.887.127-1.256-.003-.482.288-.89.293-1.25.014-.457-.191-.842-.175-1.228.016-.39.14-.763.163-1.212.012-.352.088-.737.123-1.194.024-.35-.283-.771-.23-1.218.05-.446.599-.774.639-1.106.042-.436-.536-.917-.517-1.262.03-.438.678-.67.675-1.035.02-.355-.412-.84-.362-1.277.037-.343.424-.597.533-1.017.074-.325-.168-.816 0-1.218.156-.404.46-.66.623-.941.205-.377.421-.663.628-.901.25-.311.428-.607.689-.826.26-.227.884-.114 1.175-.333.223-.172-.035-.926.28-1.2.258-.181.707-.161 1.006-.401.314-.23.755-.17 1.009-.32.326-.208.63-.364.914-.464.37-.119.722-.112 1.039-.156.31-.066.607-.157.974-.222.285-.038.522-.442.92-.498.302-.048.7.35 1.068.307.344-.042.633-.557.936-.59.388-.035.722-.24 1.012-.27.285.04.53.77.847.835.256.046.529.192.851.252.255.06.54.128.856.205.376.074.785-.148 1.09-.075.395.111.638.473.928.567.366.105.78.019 1.109.126.325.112.767-.03 1.146.153.296.137.383.774.757.963.283.159.627.286.99.494.367.196.633.474.916.637.366.22.943.03 1.223.219.358.23.75.314 1.058.512.307.205.657.361 1.012.616.285.191.554.476.901.77.269.23.17.905.475 1.225.31.32 1.005.18 1.242.449.31.35.392.812.615 1.08.285.342.386.77.615 1.072.231.303.81.31 1.078.683.21.29.367.674.652 1.055.216.291.508.581.79.95.287.37.049 1.072.278 1.351.304.371.845.469 1.09.745.31.349.408.763.685 1.053.276.29.958.289 1.268.646.242.277.063.92.358 1.308.226.3.474.639.748 1.038.277.396.465.778.682 1.087.28.404 1.001.404 1.219.705.274.388.457.752.693 1.08.235.326.562.59.836.977l.762 1.03c.216.309.231.817.505 1.214.277.396.218.956.415 1.28.257.42.508.755.675 1.093.212.428.672.598.833.979.081.19.087.433.1.68.008.123.016.251.038.371.01.063.022.123.04.18.038.087.095.193.15.289.37.63 1.177.866 1.637 1.583.36.557.684 1.407 1.194 2.142.499.717.895 1.6 1.309 2.147.527.704.968 1.46 1.365 1.919.512.594.88.432 1.244.781.186.181.372.388.562.607.098.11.193.222.293.337.011-.23-.025-.315-.063-.396.058-.187.234-.128.314-.202.233-.03.432.169.584.324.158.17.335.43.529.755v-.755c.216.354-.007-1.303.21-.952.871 1.45-.162.066.605 1.168-.048-.218.821.648.782.464-.662-3.117.566-.707 0-3.382a379.1 379.1 0 0 1-.412-1.932c-.046-.203-.042-.223-.046-.273l-.044-.453c-.036-.392-.069-.775-.102-1.146-.04-.472-.094-.958-.153-1.435-.007-.1-.048-.279-.025-.314l.186-.355c.159-.303.323-.618.52-.823.28-.117.285-.504.616-.649.24-.135.764.083 1.035-.078.226-.085.235-.648.551-.78.305-.168.76.254.96.143.275-.105.476-.396.692-.474.25-.134.566-.133.857-.249.296-.092.61-.474 1-.511.307-.048.609.298 1.002.32.307.04.644.088 1.035.2.39.09.724.241 1.025.346.39.159.907-.196 1.208-.031.38.195.658.485.966.68.313.21.557.536.923.777.288.185.565.483.955.72.3.186.768.152 1.165.39.396.234.802.345 1.11.539.422.26.472 1.137.82 1.354.45.258.959.235 1.336.45.38.202.92.076 1.365.302.346.172.684.484 1.15.699.35.159.62.654 1.075.848.226.097.478.1.718.095.41-.084.223.244.3.226.12-.018.294-.056.464-.067.148-.021 1.028-.292 1.326-.236.244.049-.64.368-.505.399.108.026 1.04-.045 1.287.032.182.077.99.114 1.134.197.202.11-1.316.168-1.323.2-.155.168-.164.205-.192.24-.034.027.482.126.48.235-.01.05 1.777.574 1.69.76-.09.16-.585.134-.754.128-.235-.01-.74-.195-.95-.248-.296-.081-1.826-.664-2.001-.728-.304-.069-.787-.288-.835-.307-.078-.017.316.291.277.317-.018.034.145.284.108.354-.123-.022-.4-.297-.47-.314-.05-.011-.05.297-.194.303-.433.016-.893.134-1.258.154-.493.027-.93-.225-1.298-.2-.475.029-.891-.189-1.292-.165-.4.025-.77.526-1.238.56-.37.022-.806-.447-1.295-.416-.37.026-.747.6-1.217.632-.474.03-.921-.532-1.284-.501-.476.039-.874.223-1.23.263-.453.055-.848-.067-1.231-.012-.38.054-.765.071-1.214.12-.36.033-.767.68-1.252.701-.376.019-.794-.03-1.273-.022-.478.011-.904-.34-1.276-.34-.49-.002-.896.351-1.265.343-.472-.013-.878-.412-1.279-.431l-1.273-.064c-.368-.01-.777.114-1.266.113-.374 0-.797-.318-1.277-.31-.48.007-.89.466-1.262.487-.491.03-.91-.382-1.28-.338-.47.056-.866.222-1.264.289-.4.066-.799.088-1.267.145-.37.043-.774.562-1.262.589-.373.022-.799-.403-1.278-.395-.478.01-.89.473-1.265.481-.489.011-.906-.197-1.271-.184-.472.013-.875-.075-1.273-.061-.398.015-.803-.138-1.273-.126-.37.011-.772.65-1.26.663-.374.008-.795-.145-1.275-.134-.48.008-.904-.484-1.28-.501-.49-.022-.894.413-1.266.363-.47-.062-.87-.014-1.272-.094-.401-.08-.813-.834-1.283-.895-.372-.05-.784.035-1.276.012-.371-.014-.788.148-1.267.157-.478.007-.898-.058-1.273-.026-.489.044-.89.578-1.259.649-.467.09-.873-.152-1.271-.046-.4.109-.798.251-1.265.343-.37.071-.781.035-1.273.08-.372.032-.792-.123-1.271-.115-.481.007-.893.198-1.27.175-.488-.03-.899.17-1.27.104-.476-.086-.875-.109-1.276-.217-.402-.106-.803-.144-1.276-.23-.369-.068-.793-.784-1.28-.814-.378-.022-.789.388-1.268.396-.48.007-.901-.033-1.273-.001-.489.042-.906-.194-1.276-.124-.467.085-.855.727-1.255.83-.4.102-.805-.176-1.274-.087-.368.067-.768.613-1.258.654-.374.03-.792-.004-1.271.005-.48.005-.904-.261-1.277-.27-.493-.008-.902.031-1.271 0-.473-.032-.88-.373-1.28-.42-.401-.044-.798.165-1.269.13-.37-.025-.79-.474-1.278-.482-.375-.006-.784.66-1.262.668-.478.01-.902-.168-1.276-.163-.49.004-.902-.055-1.273-.056-.47-.003-.877-.438-1.28-.445-.399-.006-.791.428-1.263.425-.369-.001-.782-.08-1.274-.076l-1.27.041c-.48.01-.891.344-1.266.37-.489.034-.91-.469-1.28-.411-.47.07-.863.373-1.261.457-.4.082-.804-.02-1.273.049-.367.054-.78.07-1.27.103-.371.025-.794-.07-1.273-.061-.478.008-.896.136-1.269.13a27.475 27.475 0 0 1-1.274-.044c-.471-.028-.874-.157-1.277-.194-.4-.039-.79.551-1.262.525-.37-.023-.784-.156-1.276-.16-.374-.006-.79.186-1.27.195-.475.01-.909-.705-1.28-.713-.493-.01-.9.312-1.27.283-.468-.04-.872-.314-1.274-.364-.4-.05-.792.307-1.264.268-.37-.03-.779.083-1.268.072-.374-.01-.8-.502-1.28-.493-.542.01-1.013.348-1.43.383-.595.052-1.07.121-1.435.201-.234-.1-.31-.506-.248 3 .058 3.367.127 3.03.351 2.898.368.03.846.267 1.444.278.418.007.891-.297 1.434-.307.478-.007.891-.188 1.265-.197.487-.008.91.597 1.28.589.47-.011.86-.557 1.259-.568.4-.007.799.172 1.268.165.37-.01.786.286 1.275.276.373-.007.783-.358 1.263-.368.476-.009.9.286 1.275.282.49-.006.901.051 1.27.053.469.002.871.055 1.27.062.4.007.8.081 1.272.084.366.001.773-.388 1.262-.392l1.267-.067c.48-.007.904.347 1.279.317.487-.038.895-.275 1.264-.34.469-.077.867-.161 1.266-.256.397-.093.79-.565 1.258-.643.368-.064.778-.14 1.267-.178.374-.03.802.49 1.279.48.478-.007.895-.274 1.266-.254.493.022.9-.328 1.267-.27.472.069.876.362 1.281.454.4.089.803.34 1.276.414.37.057.782.082 1.273.109.373.017.787-.22 1.267-.226.475-.009.906.586 1.28.572.49-.006.83-.173 1.198-.179.468-.022.933-.375 1.332-.396.4-.028.806.38 1.279.357.365-.017.767-.554 1.26-.569.37-.011.802.61 1.281.601.477-.008.89-.383 1.265-.392.486-.015.898-.182 1.266-.2.468-.019.865-.189 1.267-.206.398-.022.799.067 1.27.05.367-.018.778-.216 1.267-.23.375-.01.8.526 1.279.52.48-.01.898.015 1.271-.008.488-.03.897-.283 1.266-.326.469-.056.87-.1 1.268-.167.4-.062.793-.406 1.263-.463.366-.044.782.174 1.271.147.375-.022.795.02 1.272.012.48-.012.902.103 1.273.097.491-.007.9-.188 1.27-.19.47-.005.873.235 1.275.233.398-.002.788-.548 1.26-.552.369-.003.78-.088 1.27-.095.373-.005.793.056 1.272.048.478-.01.905.433 1.277.428.49-.009.905.169 1.273.166.473-.004.864-.4 1.265-.4.402-.002.796-.256 1.266-.26.37-.003.782.082 1.274.075.372-.004.796.313 1.276.304.478-.008.9.252 1.274.267.49.017.905.092 1.274.134.473.056.865-.237 1.267-.169.403.071.802.057 1.272.114.372.044.785.249 1.276.265.373.013.786-.351 1.264-.36.478-.008.907.395 1.277.384.492-.015.908.187 1.276.166.47-.025.86-.643 1.259-.67.398-.029.799.012 1.27-.013.37-.02.784.114 1.273.097.373-.01.796.32 1.277.311.476-.008.888-.454 1.263-.468.486-.017.91.382 1.278.36.47-.026.857-.793 1.257-.822l1.27-.071 1.267-.04c.376-.013.8.244 1.277.234.48-.009.9.083 1.273.07.489-.014.898-.13 1.267-.15.49-.028.903-.095 1.316-.124.412-.032.824.05 1.307.014.38-.026.784-.291 1.279-.325.381-.025.823.268 1.304.236.482-.03.92.25 1.294.238.487-.012.856-.732 1.224-.718.469.02.908.68 1.308.714.398.036.797.156 1.261.177.364.014.739-.445 1.217-.449.363-.014.77-.03 1.238-.051.847-.034 1.692.18 2.432.175.967-.015 1.416-.57 2.025-.606.865.012 1.666.099 2.358.087.529.038 2.08.78 2.995.885.365.04.497-.092.602-.235.055-.07.104-.142.186-.192.151-.1.187-.121.24-.134.552-.127 1.768.155 2.213.024.437-.166.942-.176 1.196-.324a1.79 1.79 0 0 0 .198-.142c.14-.186.192-.257.27-.315.076-.056.04-.17.004-.265-.053-.083-.09-.16-.012-.196.153-.07.873.165 1.017-.065.12-.191-.308-.804-.093-1.32.203-.531.587-1.004.583-1.405-.022-.55.026-.716-.029-.924a5.599 5.599 0 0 0-.247-.73c-.042-.12-.12-.242-.2-.369-.096-.134-.224-.282-.312-.434-.076-.12-.153-.25-.238-.387-.14-.152-.29-.317-.455-.491-.132-.138-.381-.274-.723-.419-.37-.146-.752-.295-.999-.468-.54-.378-.351-.795-.906-1.07-.732-.374-1.575-.654-2.228-.905-.835-.327-1.763-.512-2.497-.738-.746-.232-1.622-.346-2.407-.594-.625-.2-1.372-.33-2.114-.606-.273-.103-.627-.203-.901-.281a3.428 3.428 0 0 1-.635-.194c-.436-.186-.616-.783-.936-.951-.417-.224-.905-.092-1.2-.3-.374-.268-.39-1.085-.675-1.336-.282-.257-.57-.48-.905-.754-.257-.226-.496-.475-.877-.743-.322-.229-1.02.095-1.458-.16-.427-.26-.55-.96-.903-1.157-.471-.253-.984-.24-1.352-.414-.46-.229-.811-.541-1.219-.722-.424-.17-1.037.13-1.537-.052-.382-.15-.763-.484-1.298-.67-.417-.122-.74-.748-1.314-.886-.558-.155-1.1-.123-1.546-.211z" mask="url(#b)"/>
        </g>
    </g>
</svg>
