<svg xmlns="http://www.w3.org/2000/svg" xmlns:xlink="http://www.w3.org/1999/xlink" width="30" height="42" viewBox="0 0 30 42">
    <defs>
        <path id="a" d="M0 .04h12.908V9H0z"/>
        <path id="c" d="M.125.235H23.87v8.52H.125z"/>
        <path id="e" d="M.408.087h11.089v8.728H.408z"/>
    </defs>
    <g fill="none" fill-rule="evenodd">
        <g transform="translate(0 33)">
            <mask id="b" fill="#fff">
                <use xlink:href="#a"/>
            </mask>
            <path fill="#595478" d="M7.477 4.415c-.017-.01-.042-.01-.056-.02-.019-.013-.05-.003-.065-.012-.018-.01-.024-.03-.04-.039-.015-.008-.044-.003-.062-.014l-.05-.027c-.014-.009-.02-.031-.036-.043-.019-.011-.062.012-.077.003-.02-.01.01-.072-.007-.079-.021-.007-.084.04-.103.035-.018-.005-.018-.032-.04-.039-.016-.006-.013-.039-.032-.049-.015-.008-.023-.027-.04-.038-.018-.013-.075.026-.089.017-.018-.012-.025-.033-.038-.042-.016-.012-.036-.017-.05-.027-.015-.01-.036-.013-.052-.026-.013-.009-.01-.04-.028-.053-.013-.01-.047 0-.064-.012-.017-.011.006-.068-.008-.077-.018-.013-.064.015-.078.005l-.042-.036c-.015-.01-.051.006-.068-.007-.014-.009.027-.085.008-.097-.013-.01-.044-.002-.061-.014-.018-.011-.027-.03-.04-.04-.016-.015-.075.028-.085.014-.012-.018 0-.06-.009-.077-.008-.017.011-.068-.001-.085-.01-.014-.028-.02-.044-.036-.012-.01-.024-.026-.041-.037-.018-.012-.058.006-.072-.002-.019-.011-.039-.016-.053-.024a1.713 1.713 0 0 1-.054-.022c-.017-.008-.006-.05-.025-.059-.014-.008-.064.023-.083.011-.014-.007-.012-.038-.03-.05l-.046-.033c-.02-.01-.066.018-.081.01-.019-.01.01-.072-.007-.08-.017-.007-.076.037-.095.027-.014-.007.004-.059-.015-.07-.014-.009-.016-.036-.034-.047l-.046-.033a3.507 3.507 0 0 1-.046-.032c-.019-.01-.06.011-.075.003-.017-.008-.046 0-.065-.01-.014-.008-.015-.036-.034-.046-.015-.01-.064.022-.081.01-.017-.011.018-.085.006-.095-.017-.015-.042-.013-.052-.025-.014-.016-.012-.047-.022-.062-.01-.016-.039-.01-.052-.026-.01-.012-.035-.012-.051-.026-.013-.01-.026-.023-.043-.034-.019-.012-.06.01-.074.002-.019-.01-.036-.018-.052-.024-.02-.007-.026-.028-.044-.033-.01-.009.016-.064.002-.074-.01-.008-.041.007-.055-.002-.018-.011-.066.02-.081.01-.018-.01 0-.063-.013-.072-.018-.01-.057.01-.071 0-.016-.01-.01-.045-.028-.056-.014-.009-.018-.034-.036-.045-.014-.01-.059.018-.077.007-.018-.012.001-.066-.013-.075-.018-.012-.057.009-.07-.001-.018-.012-.001-.061-.015-.072-.014-.01-.061.02-.078.008-.013-.01-.049.005-.066-.007-.014-.009.004-.062-.013-.073-.02-.012-.038-.018-.054-.024-.02-.009-.027-.03-.045-.034-.023-.005-.053.005-.075.004-.02-.002-.046.001-.069-.004-.017-.004-.053.013-.074.004-.015-.007-.013-.04-.03-.05-.02-.012-.026-.034-.038-.045-.015-.015-.065.018-.075.003-.01-.019.017-.082.009-.1-.008-.02-.051.006-.063-.012-.01-.015-.017-.035-.032-.05-.013-.01.015-.077-.003-.088-.018-.011-.08.039-.095.03-.019-.01-.006-.057-.021-.065-.02-.009-.017-.041-.033-.05-.016-.007-.087.054-.105.044l-.05-.027c-.014-.009.025-.09.007-.101-.018-.011-.084.044-.099.035-.019-.01-.023-.035-.037-.042-.02-.011-.039-.015-.055-.023s-.02-.032-.038-.043c-.014-.007-.042-.002-.06-.013-.015-.009-.022-.029-.041-.04-.018-.011-.024-.034-.04-.04-.02-.01-.067.021-.083.016-.021-.007-.014-.045-.033-.05-.02-.003-.045 0-.066-.006-.017-.005-.003-.053-.024-.062-.015-.007-.047.003-.065-.007l-.046-.034c-.018-.01-.027-.029-.041-.038-.018-.011-.064.02-.08.01-.014-.01.006-.064-.012-.075-.014-.01-.04-.004-.06-.015-.014-.01-.022-.029-.04-.04-.018-.012-.051 0-.065-.008l-.05-.027c-.018-.012-.013-.048-.027-.057-.015-.01-.06.02-.078.008-.013-.008-.023-.026-.042-.037-.014-.01-.046.002-.064-.01-.019-.01-.01-.053-.022-.064C2.008 1 1.988.998 1.976.984 1.963.969 1.958.947 1.948.93c-.01-.017.006-.068-.007-.085-.011-.013-.057.017-.073.004C1.854.838 1.829.84 1.81.83 1.793.819 1.803.774 1.789.766c-.02-.01-.065.02-.08.013-.02-.01-.04-.013-.056-.019C1.635.753 1.63.73 1.61.72c-.014-.008.003-.063-.016-.073-.014-.008-.081.05-.1.04-.018-.011-.014-.047-.03-.054-.02-.011-.005-.06-.02-.068-.02-.009-.056.01-.072.003-.017-.007-.061.022-.08.014C1.276.574 1.29.525 1.271.514c-.015-.008-.064.027-.083.016-.017-.01-.003-.062-.017-.07-.02-.01-.03-.027-.045-.034-.02-.01-.03-.025-.046-.033L1.03.366C1.016.358.977.38.958.369.943.36.913.372.894.36.876.351.848.356.835.346.818.332.817.303.805.29.793.276.767.279.756.265.744.25.766.19.751.175.74.163.707.176.69.163.675.153.686.108.668.097.652.087.625.097.61.09.594.081.593.055.578.05.558.044.535.05.518.046.5.041.479.045.46.04.444.036.402.066.384.059.377.05.401.012.19.303c-.21.291-.194.274-.186.28.018.006-.009.071.007.074C.03.661.086.61.104.613.122.616.103.67.121.675.136.68.188.635.206.643.22.65.195.711.21.72.229.732.287.683.3.693c.016.014.02.04.031.051.014.016.024.033.035.048.01.015.036.01.05.025C.43.83.413.883.43.897c.013.01.038.007.056.018.018.01.012.05.027.057.02.01.052-.002.068.003.02.007.046.002.065.007.018.004.014.039.034.046.016.005.065-.03.085-.02.015.008.047-.004.065.007.018.01.013.048.027.057.018.012.016.045.03.056.015.012.046.001.059.012.013.012-.003.063.014.076.012.01.045-.004.063.008l.05.027c.018.011.067-.023.082-.015.02.009-.007.075.01.08.021.006.06-.018.08-.014.02.003.036.012.056.018.018.004.06-.023.08-.013.016.007-.015.078.003.09l.047.03c.02.011.042.01.057.019.019.01.075-.037.09-.028.017.008-.005.067.013.076.014.009.06-.02.077-.01.015.009.035.013.054.024.017.01-.01.078.003.09.016.013.07-.028.08-.014.012.018-.019.088-.01.106.008.017.021.03.034.047.01.015.034.012.051.025.012.011.056-.016.074-.005.019.011.042.01.058.017.021.008.023.034.042.037.024.003.062-.017.084-.017.022-.001.037.01.06.012.02.002.047-.003.067.006a.333.333 0 0 1 .052.024c.017.012-.013.081 0 .093.015.015.02.037.03.052.01.02.03.024.037.043.007.02.04.006.051.026.009.016-.01.069.006.084.012.012.032.016.05.026.018.012.067-.02.083-.014.02.008.016.044.034.047.024.003.034.018.057.018.022 0 .068-.03.09-.027.019.003.053-.01.073-.002.016.007-.015.076.004.087.018.012.047.004.06.014.017.013.02.037.032.049l.039.042c.01.015.01.044.025.06.011.01.055-.016.072-.003.014.01.048-.005.066.007.019.01.023.035.036.044.019.012.012.05.025.06.017.011.047.001.062.011.013.011.02.03.037.043.012.01.03.023.043.036.015.009.055-.014.073-.002.018.011-.005.071.01.078.02.009.083-.041.1-.037.023.005-.008.071.014.073.02.003.075-.04.098-.034.017.004.013.04.033.048.016.007.064-.024.082-.013.018.012.023.034.036.044.017.013.03.027.041.038.015.015.03.025.042.038.012.014-.018.08-.004.094.013.011.08-.045.098-.033.013.01.007.048.025.06.017.01.014.045.027.055.016.014.035.019.046.032.014.015.016.041.026.056.01.016.025.025.04.04.01.013.05-.009.067.005.013.01-.006.063.012.074.017.011.07-.026.084-.019.02.009.05 0 .065.005.01.01-.03.085-.018.098.01.01.015.029.03.04.01.009.021.02.036.03.018.011.058-.01.071 0 .02.01.015.046.029.054.019.01.052-.005.069.003.016.007.053-.01.071 0 .015.007-.01.068.008.079.014.008.035.012.052.024.018.011.03.026.044.034.02.01.07-.025.087-.018.02.008.046.003.064.01.018.004.04.004.061.013l.05.027c.014.008-.014.07.004.083.017.011.077-.033.09-.023.018.012.014.046.026.057.016.013.016.041.03.053.012.012.06-.019.075-.005.013.01.018.032.036.045.013.01.032.015.05.026.017.012-.013.078.002.086.02.01.064-.016.08-.01.021.007.024.032.043.036.019.004.077-.038.098-.031.016.005-.008.063.012.073l.049.029c.017.011.027.027.041.037.018.011.08-.033.093-.025.018.012.028.026.043.036.015.009.039.008.057.019l.049.027c.014.01.007.045.025.058.017.011.005.055.016.067.016.015.033.024.041.037.012.018.049.003.057.02.008.018-.012.069 0 .087.009.015.066-.025.081-.01.013.011.01.042.028.053.017.012.019.04.035.045.02.01.03.026.049.03.023.003.068-.023.09-.023.023 0 .041.008.064.01.019.004.026.023.047.033.016.006.044.001.061.013s-.001.063.01.074c.015.016.03.026.038.042.01.02.04.013.046.033.005.02.038.009.047.029.009.017-.013.069.002.085.011.012.061-.018.078-.006.017.012-.009.072.007.077.02.01.052.001.07.005.022.004.036.015.058.017.022 0 .065-.022.088-.017.018.003.01.04.03.05.016.007.03.017.049.029.017.012.03.025.042.036.016.014.071-.022.082-.01.014.017.017.04.027.054.011.015.01.042.024.058.01.013.015.035.031.048.013.011.048-.002.066.011.017.011.041.011.054.022.018.011-.025.089-.012.099.016.012.051-.002.065.01.013.01.056-.012.072.001.013.01.018.033.035.045.013.01.002.05.019.063.017.012.063-.013.078-.005.02.01.005.054.022.06.022.006.045.006.065.01.02.004.081-.04.103-.035.018.005-.018.074.002.084.015.007.066-.023.083-.012.017.012.055-.003.067.009.017.013-.019.081-.008.093.014.015.024.031.034.045l.038.042c.01.013.035.012.051.026.013.01.067-.023.085-.011.016.012.023.032.036.043.016.014.02.036.03.048.014.017-.013.074-.004.09.01.015.032.016.045.033.01.012.008.041.024.056.015.01.028.021.045.034.019.013.06-.004.078.005.024.011.06 0 .079.004.013.012.007.049.026.066.015.01.056-.005.076.009.017.013.04.015.052.024.018.013.011.047.024.057.017.011.012.044.026.053.014.01.067-.022.083-.01.012.01-.013.065.005.078.013.01.072-.03.089-.017.017.012-.015.075-.001.084.018.01.045.008.061.015.02.01.022.032.04.04l.052.023c.015.008.081-.039.1-.027.014.008.025.024.041.036.017.012.004.056.016.065.017.013.06-.007.072.004.014.014-.004.06.008.074l.038.04c.011.01.036.01.053.025.012.01 0 .05.018.062.017.012.069-.016.082-.009.02.011 0 .06.017.065.02.008.047.004.066.01.019.005.034.014.055.022.016.006.072-.029.091-.017.015.007-.006.057.011.07.017.012.069-.018.082-.008.018.012.015.042.028.051.018.012.024.031.039.041.014.01.015.035.032.046.014.01.08-.036.097-.023.014.009.016.034.032.046.017.013-.009.068.003.08.015.015.064-.012.072.003.012.019.029.026.036.043.007.018-.041.096-.03.115.008.015.03.018.044.034.011.01.039.009.056.02.016.013.026.031.04.038.02.01.078-.025.096-.022.024.006.017.039.04.04.022.002.047.001.07.005.018.004.03.018.05.028.014.008.016.034.033.046.017.013.046.008.057.02.014.016.044.01.052.026.008.021.02.034.024.054.005.021.015.036.024.057.007.015-.038.09-.024.107.01.012.059-.012.075 0 .017.013.028.029.042.035.02.011.015.043.033.047.023.006.09-.04.112-.038.021.003.012.038.035.044.018.004.077-.032.097-.022.015.008.026.022.042.035.018.013.01.048.02.06.016.014.033.022.044.035.012.016-.003.058.007.073.01.015.04.008.053.024.01.013-.013.064.002.078.013.012.082-.035.098-.023.017.014.016.04.029.05.016.014.026.031.038.041.015.014-.008.063.005.075.013.012.063-.015.078-.002.012.011.02.03.036.043l.046.032c.016.013.058-.005.073.003.02.011-.01.066.007.072.023.008.061-.008.081-.004.02.004.026.024.046.032.018.005.032.016.051.027.016.008.02.028.037.042.017.012.042.013.054.024l.038.04c.014.016.015.039.025.053.011.016.074-.025.087-.01.01.013.013.036.028.05.013.012.043.007.06.02.015.013-.03.087-.02.098.016.014.057-.002.066.012.013.017.003.051.012.068.01.015.052-.005.065.012.01.013.033.015.048.03.011.01-.016.066 0 .079.018.014.063-.002.08.007.024.013.045.02.064.024 0 .015-.033.052.263-.252.286-.29.254-.264.236-.259-.01-.013-.006-.047-.024-.065-.014-.013-.056 0-.074-.015-.017-.013-.046-.009-.06-.019-.016-.013.021-.077.008-.087-.016-.013-.076.023-.09.013-.014-.011-.012-.038-.028-.05-.013-.01-.002-.048-.02-.06-.012-.01-.056.007-.072-.006-.017-.013-.006-.05-.019-.06-.016-.014-.026-.03-.038-.041-.015-.014-.024-.03-.037-.042-.012-.012-.02-.03-.035-.043-.012-.011-.059.011-.075-.003l-.048-.03c-.017-.014 0-.056-.016-.064-.02-.01-.053-.002-.07-.007a.372.372 0 0 0-.065-.013c-.02-.004-.074.026-.096.02a.272.272 0 0 1-.057-.02c-.015-.009.014-.066-.003-.079-.017-.013-.053-.001-.064-.013-.014-.016-.058.003-.065-.013-.01-.02.001-.056-.004-.075-.007-.02 0-.053-.01-.072a.199.199 0 0 0-.033-.046c-.01-.012-.044-.004-.061-.016-.017-.013.019-.077.005-.086a3.532 3.532 0 0 0-.044-.035c-.018-.011-.074.022-.09.013-.015-.009.005-.056-.012-.067-.014-.01-.073.026-.09.014-.013-.01.024-.076.007-.09-.017-.012-.062.01-.075 0-.017-.013-.046-.01-.06-.019-.017-.011-.045-.008-.06-.017-.016-.01-.021-.028-.04-.04-.012-.009-.043-.003-.06-.016-.014-.01.016-.069 0-.08-.018-.014-.03-.028-.044-.036-.02-.012-.054 0-.07-.007l-.057-.02c-.019-.007-.06.012-.081.004-.016-.006-.012-.037-.031-.048-.014-.009-.026-.024-.042-.036-.017-.014-.022-.035-.035-.044-.017-.015-.046-.01-.059-.02-.016-.013-.01-.045-.024-.056-.014-.012-.072.026-.088.013-.013-.01-.033-.014-.05-.027-.014-.01-.024-.027-.04-.04-.017-.013.005-.064-.008-.073-.018-.013-.017-.04-.03-.05-.017-.012-.063.01-.076 0-.014-.011-.048 0-.065-.012-.013-.01-.02-.03-.037-.042-.013-.01-.002-.05-.018-.063-.017-.012-.01-.047-.022-.059-.015-.014-.024-.033-.033-.047-.011-.018-.049-.003-.057-.02s-.022-.027-.034-.045c-.009-.014-.006-.044-.022-.06-.011-.011-.055.01-.072-.002-.017-.014.001-.06-.013-.07-.017-.011-.015-.042-.03-.05-.017-.011-.081.033-.097.024-.016-.008-.027-.023-.044-.033-.015-.01-.018-.033-.037-.044-.013-.01 0-.051-.018-.063-.017-.013-.068.015-.082.006-.018-.012 0-.058-.014-.067-.018-.01-.094.047-.11.04-.017-.011-.031-.02-.05-.03l-.047-.031c-.014-.009-.007-.044-.025-.056-.017-.013-.024-.032-.038-.041-.017-.013-.041-.014-.055-.021a.999.999 0 0 0-.053-.026c-.016-.008-.022-.028-.04-.038-.014-.01-.048.001-.066-.01-.014-.01-.003-.05-.02-.062-.017-.012-.008-.05-.02-.06-.016-.016-.086.036-.097.022-.012-.016.029-.089.02-.104-.01-.016-.013-.04-.026-.055-.01-.013-.06.016-.076.002l-.046-.034c-.016-.011-.011-.045-.026-.052-.019-.012-.077.028-.093.022-.02-.009-.032-.022-.05-.027-.01-.01.027-.073.015-.083-.01-.009-.073.039-.086.03-.017-.013-.002-.058-.015-.068-.018-.012-.019-.038-.033-.048-.016-.011-.036-.016-.051-.025-.014-.01-.054.007-.07-.004-.014-.01.013-.068-.005-.08-.014-.01-.084.042-.102.03-.017-.012-.004-.054-.018-.063-.017-.014-.022-.035-.035-.045l-.044-.035c-.013-.011-.033-.016-.05-.028l-.045-.034c-.013-.01-.054.01-.071-.003-.017-.012.007-.068-.01-.075-.02-.01-.04-.013-.058-.016-.023-.006-.052 0-.073-.002-.022-.002-.054.008-.077.003-.017-.005-.046 0-.066-.01-.016-.007-.042-.005-.059-.017-.017-.012.004-.065-.008-.077-.014-.015-.056.005-.064-.01-.011-.019.031-.095.024-.114-.007-.019-.017-.034-.028-.053-.008-.016-.016-.035-.03-.05-.012-.012-.078.036-.095.024-.018-.013.01-.073-.004-.082-.018-.012-.054.001-.068-.007-.018-.01-.022-.033-.038-.042-.016-.008-.072.03-.091.02-.014-.008-.015-.035-.033-.047-.014-.01.008-.064-.009-.076" mask="url(#b)"/>
        </g>
        <g transform="translate(6 26)">
            <mask id="d" fill="#fff">
                <use xlink:href="#c"/>
            </mask>
            <path fill="#595478" d="M11.56 1.492c.01-.037.004-.07.012-.098.011-.034-.004-.07.006-.096.013-.031.039-.053.051-.076.012-.025.008-.057.026-.083.014-.02.028-.044.05-.068.018-.017.05-.027.074-.041.021-.018.015-.067.039-.079.028-.02.085.028.105.018.022-.017.024-.09.053-.104.027-.016.064.001.098-.008.028-.01.064.018.101.015.03-.005.063.01.101.013.037 0 .083-.05.117-.046.043.004.073.03.104.037.04.008.075.018.108.028a.97.97 0 0 1 .106.037c.03.012.043.056.08.076.029.013.071.015.106.037.036.023.013.09.035.107.031.023.088.017.11.038.028.026.036.056.055.08.02.021.066.038.087.07.017.028-.057.093-.04.127.014.025.046.05.061.085.014.035.01.071.017.1.006.038.084.06.084.091 0 .04-.045.078-.051.11-.007.034-.066.068-.072.105-.006.03-.004.063-.008.102-.004.03-.015.063-.019.101-.005.038.028.078.024.11l-.012.106-.018.109c-.008.034-.062.055-.073.094-.008.03.031.08.017.122-.013.03-.056.055-.073.093l-.053.1c-.021.039.005.092-.012.122-.021.039-.106.038-.123.07-.016.033.03.098.007.136-.016.032-.086.035-.116.07-.023.027-.067.045-.096.079l-.077.09a1.239 1.239 0 0 1-.078.089c-.03.031-.027.082-.053.11-.026.028-.036.069-.068.102-.025.025-.071.037-.104.07-.025.025-.023.085-.06.113-.04.029-.13-.006-.16.014-.04.026-.062.062-.094.08-.039.024-.09.023-.13.036-.037.015-.058.05-.102.07-.034.014-.061.045-.104.068l-.112.058c-.042.02-.058.072-.09.089-.043.022-.077.042-.111.06-.04.025-.085.029-.117.051-.027.013-.088-.029-.124-.017-.03.01-.048.047-.084.06-.045.017-.063.079-.1.093-.047.018-.108-.017-.142-.003-.046.014-.073.059-.113.07-.04.012-.091-.006-.137.007-.038.01-.084.005-.132.018-.037.011-.065.065-.115.074-.05.01-.107-.033-.145-.026-.05.01-.082.055-.121.06-.049.01-.1-.029-.14-.023-.042.003-.074.058-.124.062-.038.004-.076.04-.128.046-.04.004-.09-.042-.14-.035-.048.007-.093.013-.131.02-.052.006-.096-.006-.135.003-.048.012-.089.037-.131.05-.042.012-.083.03-.133.04-.04.007-.083.038-.135.041-.04.002-.086-.026-.137-.026-.051 0-.096-.016-.135-.019-.052-.003-.1.047-.139.036-.05-.013-.087-.082-.128-.097-.042-.015-.088.027-.137.014-.038-.01-.08-.026-.132-.034-.038-.008-.072-.083-.121-.09-.05-.007-.106.06-.145.054-.05-.006-.086-.056-.123-.06-.05-.004-.085-.038-.126-.046-.04-.007-.102.068-.152.059l-.132-.025c-.039-.008-.055-.1-.104-.11-.048-.014-.115.05-.152.04-.05-.015-.085-.043-.122-.053l-.13-.027c-.042-.01-.075-.039-.122-.056-.037-.012-.085-.01-.135-.027-.037-.012-.073-.04-.12-.056-.048-.017-.084-.046-.12-.059-.049-.018-.113.011-.15 0-.05-.014-.072-.063-.114-.073-.042-.01-.088-.013-.138-.028-.039-.01-.054-.07-.1-.09-.038-.016-.09-.012-.137-.035l-.118-.062c-.047-.023-.08-.048-.115-.068-.043-.024-.108-.002-.145-.022-.037-.021-.042-.088-.085-.111-.035-.02-.083-.025-.128-.05-.036-.018-.065-.052-.108-.077-.043-.026-.098-.026-.132-.047L4.56 3.71c-.042-.025-.057-.074-.09-.098-.036-.023-.102-.008-.144-.036-.031-.021-.062-.052-.105-.08-.033-.022-.087-.026-.13-.054-.04-.029-.048-.086-.079-.11-.04-.032-.08-.051-.108-.078-.035-.034-.058-.07-.086-.1-.029-.031-.025-.095-.059-.13-.026-.028-.096-.017-.134-.05-.03-.025-.076-.04-.115-.07-.04-.031-.043-.089-.075-.112-.04-.032-.11-.023-.14-.046l-.113-.074c-.035-.024-.054-.064-.093-.093-.032-.022-.023-.09-.063-.123-.03-.024-.126.007-.165-.026-.038-.032-.047-.083-.077-.108-.04-.032-.035-.093-.064-.118-.04-.032-.097-.035-.13-.061-.034-.026-.103-.02-.14-.052-.03-.024-.025-.087-.063-.12-.03-.026-.106-.018-.143-.052-.037-.035-.028-.1-.057-.125L2.094 1.7a7.638 7.638 0 0 0-.191-.185c-.03-.025-.092-.03-.13-.065-.028-.026-.08-.04-.116-.075-.036-.034-.083-.053-.108-.081-.035-.037-.046-.084-.07-.114-.03-.038-.073-.057-.098-.09-.024-.035-.002-.104-.033-.143-.023-.03-.077-.041-.111-.08C1.21.84 1.216.78 1.18.745c-.032-.032-.077-.046-.104-.07-.033-.031-.042-.073-.07-.096C.971.55.93.534.9.512.87.49.826.463.795.443.765.421.7.423.665.393.651.376.683.34.388.569.092.798.118.79.133.807.17.837.138.908.167.93.202.955.29.935.323.958c.03.022.01.085.046.114.028.023.109.008.142.038.027.024 0 .095.032.126.036.035.126.021.152.05.035.038.05.082.073.112l.078.11c.024.034.068.052.1.092.024.03.01.097.045.135.027.029.07.05.108.085.037.035.04.09.07.117.039.035.092.049.123.073.04.032.086.05.12.076.035.026.042.076.083.107.031.025.107.018.147.053.03.026.084.039.122.073.038.036.043.089.073.116.039.036.049.086.077.113.035.036.088.047.118.079.03.03.022.094.058.13.028.027.084.036.125.071l.106.088c.04.034.116.026.148.05.042.033.022.113.058.134.044.029.109.027.148.05l.117.076c.035.023.104.018.146.05.033.024.014.107.056.14l.11.085c.043.032.088.05.12.074.042.031.125.006.162.03.037.025.03.097.073.126.034.023.104.013.148.044l.12.075c.043.03.035.11.068.135.043.032.123.009.153.036.038.035.025.12.057.152.03.033.066.06.107.093.032.027.08.038.126.07.035.023.104.01.15.038.046.027.093.042.132.06.051.023.08.063.122.076.052.017.113.009.159.02.047.012.085.034.138.05.04.014.093.018.144.039l.133.058c.048.023.052.108.089.13.048.027.082.062.117.085.045.03.09.042.126.072.037.03.093.021.138.052.035.024.054.09.105.117.038.019.088.028.14.048.053.019.122-.013.164-.001.054.015.087.061.13.07.055.01.097.031.148.033.05.003.113-.03.17-.024.043.006.1-.007.155.005.043.01.066.092.121.108.055.012.11.002.153.012.055.014.098.042.14.055l.144.045c.044.017.086.05.14.061.044.01.102-.027.158-.016.044.007.098-.015.154-.008.057.008.103.033.147.04.057.005.102.043.146.047.056.005.106-.016.153-.01.047.005.094.02.15.025.044.004.093.014.15.013.046.001.097-.037.154-.037.057 0 .106.062.15.06.06-.003.108-.076.15-.081.056-.01.106.056.154.045.047-.012.09-.078.145-.088.043-.008.094.02.152.012.044-.004.087-.057.142-.065.056-.008.107.002.151-.002l.15-.01.15-.01c.048-.003.11.056.166.048.044-.005.072-.095.129-.104.043-.007.101.015.156.004.056-.01.113.006.156-.005.057-.014.103-.031.147-.04.055-.01.108-.002.157-.01.049-.007.095-.019.15-.031.044-.011.075-.064.13-.081.043-.014.112.017.166-.003.051-.02.07-.088.11-.105.052-.021.083-.063.117-.085.037-.013.116.043.162.025.037-.014.082-.021.128-.041l.121-.052c.052-.024.072-.085.11-.107.05-.03.112-.03.149-.053.047-.03.069-.079.108-.105.04-.026.058-.077.1-.113.034-.026.116-.006.163-.041l.115-.097c.045-.034.092-.057.123-.088.042-.041.033-.113.061-.144.037-.04.056-.084.085-.12.03-.034.054-.073.088-.113.03-.03.057-.068.093-.11.026-.033.115-.03.151-.073.035-.042.004-.118.03-.15.04-.04.094-.062.116-.097.032-.043.077-.07.105-.106.027-.037.002-.1.032-.143.023-.034.064-.066.093-.113l.06-.13c.022-.049.117-.066.132-.106.018-.054-.012-.111-.002-.152.012-.052.047-.089.054-.134.005-.046-.054-.104-.046-.155.004-.04.08-.074.09-.128l.02-.143.022-.143c.001-.057-.074-.106-.074-.146-.003-.053.004-.098 0-.143-.006-.045-.025-.089-.034-.142l-.033-.14c-.012-.042.012-.097-.007-.15-.02-.053.01-.115-.007-.158-.024-.055-.042-.093-.063-.144-.024-.054-.077-.08-.1-.128-.023-.047-.005-.124-.044-.176-.031-.04-.12-.045-.167-.089-.037-.033-.058-.092-.113-.13-.055-.036-.087-.088-.135-.11-.063-.03-.107-.068-.159-.082-.066-.018-.138-.002-.194-.008-.057-.007-.108-.024-.173-.03-.052-.004-.1-.033-.17-.04-.05-.003-.109.002-.175-.001-.065-.004-.12-.062-.175-.062l-.187-.002c-.071-.002-.125.028-.188.032-.063 0-.112.04-.181.057-.056.01-.143-.014-.215.022-.057.024-.08.1-.135.144-.06.041-.154.04-.193.081-.049.056-.068.115-.092.16-.032.058-.064.103-.08.154-.016.05.004.114-.011.17-.01.043-.068.078-.082.135l-.038.145-.038.143c-.012.054.047.107.039.146l-.043.135c-.01.043-.038.086-.045.136-.003.04-.018.083-.02.134 0 .04.034.084.035.135.001.05.018.094.019.133 0 .052-.094.1-.089.14.005.05.045.09.049.132.003.043.056.08.06.13.005.039-.007.084 0 .136.003.04-.027.089-.018.139.012.05.072.085.083.123.016.05-.023.102-.008.14a.97.97 0 0 0 .063.124c.023.039.111.062.134.107.018.035-.048.097-.028.145.014.038.085.064.101.112.015.048.068.078.082.115.02.047-.043.112-.03.15a8.8 8.8 0 0 0 .036.13l.041.13c.015.037.051.07.074.118.017.036.097.051.121.096.024.045.033.09.05.126.023.046.03.092.048.127.022.045-.016.11.002.15.017.04.051.072.074.117.017.036.018.086.045.132.02.036.049.072.08.114.035.047.101.07.132.104.043.048.1.073.132.1.025.037.023.097.065.144.028.036.095.054.134.099.035.04.075.067.101.098.035.04.038.093.065.123.035.039.043.087.074.118.03.032.109.027.146.063.028.029.012.1.05.138.031.028.114.02.154.054.04.035.02.113.053.14.042.034.092.052.125.077.043.031.064.073.102.099.036.026.072.054.117.082.035.024.128-.003.172.029l.108.09c.043.032.05.092.083.118.043.034.112.027.144.052.042.032.048.094.083.122l.113.088c.033.024.08.04.127.07.036.023.053.078.1.106.048.027.123.008.16.028.05.026.061.09.1.108.05.023.1.03.146.045l.138.053c.04.015.115-.014.166.009.04.017.055.082.104.107.048.026.122-.005.16.012.052.022.083.063.122.08.05.02.087.048.13.065.043.018.076.053.127.072.04.015.117-.036.17-.017.04.015.077.048.13.066.05.019.072.089.11.105.052.023.116-.006.155.011.05.023.095.032.135.055.04.022.052.12.102.143.039.019.088.024.141.044.041.016.095.009.15.023.054.014.098.034.141.042.057.01.122-.037.165-.034.056.003.093.045.142.043.049-.003.098-.008.154-.007.044.001.09.015.146.022.043.006.085.034.14.045.054.012.107-.001.149.008.055.014.107 0 .147.014.052.019.097.03.14.05.044.02.089.031.141.05.041.015.075.102.132.113.043.008.1-.032.154-.026.055.006.104.017.148.02.057 0 .102.036.146.03.055-.004.11-.074.157-.082.047-.007.09.029.146.024.043-.005.096-.063.152-.063.045.003.091.005.146.01.056 0 .102.034.146.037.056.003.104.001.146.007.055.006.1.048.146.056.047.006.093-.018.148-.014.043.004.09.056.148.058.043.001.091-.076.147-.076.054 0 .104.022.147.019l.148.003c.054 0 .104.048.15.048.047 0 .09-.052.144-.053.043 0 .092.006.149.002l.146-.013c.055-.004.1-.045.143-.051.056-.007.11.048.152.039.053-.013.096-.052.14-.066.044-.013.092-.005.145-.019.041-.01.09-.015.144-.024.043-.007.093 0 .147-.007.055-.008.1-.028.143-.033l.146-.013c.054-.004.103.005.15.004.046 0 .08-.074.132-.08.043-.003.092.005.149-.003.042-.006.084-.035.138-.044.054-.01.12.063.163.058.056-.008.094-.053.136-.057.055-.005.107.017.154.015.047-.003.082-.052.136-.057.042-.005.086-.025.14-.034.043-.009.105.037.16.024.06-.014.102-.063.148-.077.065-.02.116-.038.154-.056.03.005.052.049-.07-.34-.118-.373-.114-.334-.133-.314-.042.004-.1-.01-.165.001-.044.009-.085.054-.144.066-.05.013-.089.042-.13.051-.051.012-.114-.048-.153-.04-.05.01-.078.08-.12.088-.043.009-.09-.003-.141.007-.04.008-.092-.017-.144-.007-.04.007-.077.053-.128.062-.052.01-.105-.017-.145-.01l-.138.014c-.05.008-.095.008-.139.012l-.14.007c-.039.005-.076.054-.129.062-.04.006-.086.014-.136.024-.052.008-.104-.03-.145-.023-.051.01-.093.04-.132.052l-.135.041c-.042.015-.079.073-.13.086-.039.01-.083.02-.137.029-.04.005-.093-.052-.145-.048-.052.004-.096.037-.137.038-.054 0-.096.043-.137.037-.053-.007-.099-.04-.144-.049-.044-.01-.09-.038-.14-.044a1.432 1.432 0 0 0-.14-.01c-.04 0-.086.025-.138.026-.053 0-.1-.068-.14-.068h-.137c-.051.003-.095.062-.139.063-.044 0-.086-.048-.137-.048-.04 0-.087.06-.14.059-.042 0-.083-.074-.135-.076-.052-.002-.1.04-.14.036-.053-.003-.099.013-.14.01-.05-.002-.096.014-.139.012-.044 0-.086-.015-.137-.018-.04 0-.088.016-.14.01-.04-.004-.078-.071-.13-.077a7.625 7.625 0 0 1-.135-.017c-.054-.004-.102.02-.144.02l-.138-.006c-.044 0-.094.032-.146.03-.04-.003-.08-.035-.133-.04-.04-.005-.084-.017-.135-.028-.05-.01-.092-.033-.131-.041-.052-.01-.1 0-.14-.008-.05-.011-.085-.047-.127-.056-.042-.009-.102.04-.151.027l-.136-.026a37.81 37.81 0 0 0-.131-.04c-.05-.015-.078-.073-.115-.085-.05-.016-.085-.049-.122-.06-.048-.016-.105.015-.147 0-.04-.012-.093.002-.141-.013-.038-.012-.076-.035-.125-.054-.037-.014-.064-.064-.112-.081s-.076-.06-.113-.077c-.047-.02-.084-.044-.118-.062-.042-.025-.096-.012-.13-.036-.035-.025-.073-.04-.115-.067-.033-.02-.06-.059-.105-.081-.034-.018-.096.003-.14-.02-.046-.022-.058-.083-.094-.1-.045-.022-.07-.062-.104-.078-.044-.02-.122.022-.16.005-.04-.016-.073-.04-.116-.064-.033-.018-.06-.053-.104-.078-.034-.019-.047-.073-.09-.097-.042-.025-.111-.006-.146-.024-.043-.026-.046-.089-.08-.108-.04-.025-.133.022-.17.001l-.113-.069c-.033-.02-.068-.044-.11-.072-.031-.022-.043-.072-.082-.102-.04-.03-.064-.064-.096-.087-.04-.03-.083-.046-.114-.068-.04-.027-.076-.049-.108-.074-.033-.025-.054-.06-.09-.09-.03-.024-.084-.032-.122-.065-.029-.024-.031-.078-.068-.11-.037-.03-.035-.087-.06-.113-.033-.036-.13-.012-.152-.041-.029-.038.01-.118-.012-.15-.022-.033-.036-.071-.063-.108-.02-.03-.091-.028-.121-.067l-.081-.094c-.032-.035-.032-.083-.057-.11-.034-.033-.119-.026-.143-.054-.032-.033-.052-.067-.08-.094-.016-.025.03-.09.01-.119-.018-.024-.106-.012-.128-.04-.027-.038-.012-.093-.03-.124-.026-.04-.028-.083-.048-.113l-.073-.099c-.021-.032-.078-.047-.104-.086-.02-.03.022-.092 0-.133-.016-.031-.117-.03-.14-.071-.02-.041 0-.094-.016-.125-.021-.042-.026-.082-.042-.113l-.044-.112-.052-.108a18.664 18.664 0 0 1-.047-.11c-.013-.033-.071-.057-.083-.1-.015-.043.035-.097.021-.13-.017-.042-.04-.077-.059-.107-.022-.04-.057-.07-.08-.103-.025-.034-.057-.065-.077-.106-.015-.033-.045-.067-.06-.112-.01-.033-.038-.069-.047-.113-.01-.045.038-.092.038-.128-.002-.046-.05-.079-.045-.114.004-.046.092-.092.1-.13.009-.038.011-.075.017-.118l.016-.118c.003-.033-.082-.068-.083-.113-.001-.044.07-.084.068-.117-.001-.045-.036-.083-.039-.117-.001-.042.018-.077.018-.112s-.066-.074-.063-.116c.002-.031.031-.064.037-.104.005-.032.073-.056.083-.091" mask="url(#d)"/>
        </g>
        <path fill="#595478" d="M19.72 12.01c.014.018.038.027.05.041.016.02.049.021.06.037.015.019.017.043.03.058.01.017.037.022.05.042l.038.053c.01.015.008.041.02.062.012.02.061.017.073.033.016.02-.037.071-.025.086.013.019.087.006.1.022.016.017.004.045.02.065.01.016-.007.047.005.069.01.017.009.04.017.063.006.023.072.023.078.043.007.025 0 .05.006.069l.024.063c.005.02.02.038.026.062.006.018-.018.047-.014.072.003.02.032.037.037.062.003.025-.051.058-.048.076.004.026.055.04.058.06.003.024.003.045.004.066 0 .022.035.04.035.066 0 .02-.082.047-.08.073 0 .02.025.04.026.066.002.025-.007.047-.008.067 0 .025.064.047.058.067-.009.026-.051.046-.062.067-.01.02-.063.039-.072.063-.006.018-.003.04-.007.065a2.374 2.374 0 0 0-.012.064c-.003.024.029.05.026.07-.003.025.001.048 0 .067l.001.067c-.001.022-.043.035-.044.06 0 .019.046.05.04.076-.005.02-.035.035-.042.06l-.018.063c-.006.026.036.06.034.08-.005.025-.073.026-.076.047-.005.02.053.062.046.087-.005.019-.062.022-.07.046-.006.02-.034.032-.042.055l-.024.063c-.007.025-.019.043-.027.06-.009.023.018.058.011.08-.008.019.004.048-.005.071-.008.019-.037.028-.047.052-.008.018.028.063.017.087-.013.022-.095 0-.107.016-.015.02-.014.046-.028.06-.018.018-.052.021-.068.035-.017.014-.01.042-.029.06-.013.013-.013.04-.031.057-.014.014-.03.029-.044.048-.015.018.005.061-.006.078-.013.02-.026.038-.034.056-.011.022-.035.03-.043.05-.01.011-.068-.018-.081-.005-.011.011-.002.043-.015.056-.017.017.005.07-.008.084-.017.019-.07-.005-.082.009-.017.017-.005.06-.02.075-.015.014-.052.002-.07.017-.015.012-.043.01-.062.026-.014.012-.002.062-.02.077-.02.017-.069-.015-.083-.003-.018.016-.013.059-.03.068-.021.01-.066-.02-.083-.011-.017.008-.008.062-.028.074-.016.009-.018.047-.039.06-.016.01-.06-.027-.08-.013-.022.009-.038.023-.053.032-.02.014-.045.01-.059.022-.018.018-.026.048-.04.066-.015.019-.028.041-.047.059-.014.015-.022.055-.046.064-.017.008-.047-.013-.07-.007-.024.008-.05 0-.068.002-.025.003-.03.063-.051.061-.026-.002-.061-.063-.084-.068-.021-.007-.032.039-.058.034-.02-.005-.042-.014-.067-.014-.02 0-.05-.067-.073-.063-.023.003-.034.082-.052.085-.024.006-.05-.037-.068-.037-.023.003-.044-.025-.064-.023-.02.003-.035.092-.06.095l-.064.005c-.02.002-.04-.088-.063-.086-.023-.002-.048.078-.067.077-.025-.002-.045-.022-.064-.022l-.066.003c-.02 0-.038-.02-.062-.02-.02 0-.042.017-.068.011-.019-.004-.038-.02-.062-.026-.024-.005-.042-.025-.061-.027-.025-.002-.057.044-.077.045-.025 0-.037-.04-.059-.036-.022 0-.045.009-.07.007-.02-.002-.028-.054-.053-.06-.019-.004-.048.015-.072.007a1.97 1.97 0 0 0-.062-.024c-.025-.007-.041-.024-.058-.034-.022-.01-.06.029-.08.02-.02-.01-.017-.07-.04-.08-.017-.009-.044 0-.067-.01-.018-.008-.033-.028-.056-.039-.022-.011-.054.002-.071-.008-.023-.01-.043-.021-.06-.03-.022-.013-.024-.052-.042-.063-.018-.01-.06.02-.083.008-.017-.01-.032-.028-.052-.044-.016-.012-.049-.002-.07-.017-.02-.016-.016-.062-.03-.076-.02-.017-.042-.023-.055-.039-.016-.02-.024-.045-.036-.064-.012-.02.005-.076-.008-.097-.01-.017-.057.007-.075-.012-.013-.013-.04-.016-.059-.032-.018-.017-.006-.064-.02-.076-.02-.015-.07.008-.084-.006-.018-.017-.038-.026-.055-.04-.015-.012-.017-.04-.035-.057-.015-.013.012-.067-.006-.085-.014-.012-.091.028-.108.01-.018-.018-.005-.058-.018-.072-.016-.02.01-.069-.003-.082-.016-.018-.056-.013-.07-.028-.015-.015-.066-.003-.083-.021-.012-.016.012-.06 0-.081-.01-.016-.067-.005-.08-.027-.013-.022.02-.068.01-.084-.014-.021-.017-.044-.028-.06-.014-.02-.018-.041-.03-.058-.013-.016-.017-.036-.029-.057-.008-.017-.051-.02-.062-.043-.009-.017-.04-.027-.05-.05-.01-.022-.035-.035-.042-.054-.008-.024.005-.053.005-.073-.002-.026-.023-.04-.022-.062 0-.022.054-.06.053-.085-.001-.02-.035-.03-.04-.055-.004-.019.033-.05.025-.073-.006-.02-.027-.033-.032-.05-.005-.02.013-.044.008-.06-.007-.019-.027-.034-.035-.05-.009-.018-.026-.034-.035-.052-.007-.017-.056-.03-.063-.051 0-.012.046-.02-.307.016-.354.038-.33.041-.329.057.009.027-.056.06-.047.082.011.025.087.038.098.061.01.022-.042.056-.032.083.007.022.074.032.081.059.006.02-.056.06-.048.088.01.03.085.04.09.063.007.03-.005.063-.002.088l.003.087c0 .028.025.047.029.08.001.024-.039.07-.027.1.008.024.033.044.046.074.013.03-.009.07.003.093.015.029.05.043.063.064.017.027.042.044.06.064.018.02.004.058.023.083.016.02.076.015.094.042.014.02.05.03.065.056.017.026.002.069.015.09.014.03.008.066.02.087.017.026.053.032.066.055.013.022-.012.075.005.102.014.02.052.024.07.05l.054.065c.022.023.08.006.098.023.023.02-.01.089.01.104.025.018.072.008.095.022.022.014.04.032.065.05.019.014.07-.002.094.017.02.014-.011.089.012.109l.06.056c.025.02.053.028.07.042.025.02.085-.018.106-.004.02.014.005.078.03.095.02.013.069-.01.094.006.02.011.045.027.07.04.024.017.007.093.025.11.024.02.08-.02.097-.003.021.021.005.1.023.122.017.022.038.04.06.061.018.018.05.017.076.036.02.014.064-.014.09 0 .03.012.058.012.082.02.03.008.046.038.07.04.033.004.07-.02.098-.022.028 0 .05.01.08.013.024.003.055-.005.085 0 .024.004.05.01.078.019.028.009.03.09.053.1.028.013.049.037.07.052.025.02.052.02.073.041.022.02.054-.005.082.012.02.013.036.073.067.083.024.01.052.007.083.014.032.006.067-.042.09-.04.032.003.055.039.08.033.031-.007.057.003.084-.007.028-.008.058-.057.089-.063.024-.006.052-.032.082-.033.024-.002.048.075.079.078.031 0 .058-.024.082-.023.032.001.059.019.083.022l.084.013c.026.005.054.029.086.033.025.004.048-.044.079-.049.024-.002.048-.037.079-.041.03-.006.06.008.084.005.032-.005.065.026.09.023.031-.004.052-.033.078-.037.025-.005.054 0 .084-.008l.083-.018c.024-.007.04-.054.069-.063.03-.01.077.043.1.033.031-.012.03-.094.05-.11.024-.02.075.035.096.016.021-.019.019-.09.043-.11.02-.015.058.003.085-.014.021-.012.022-.07.05-.083.026-.015.057-.015.078-.027l.074-.035.075-.036c.024-.009.085.037.114.023.023-.01-.003-.094.022-.114.02-.013.062-.003.086-.023.024-.02.064-.013.084-.027.027-.019.045-.04.066-.052.028-.016.062-.017.087-.03.023-.013.04-.033.067-.051.02-.015.012-.062.035-.084.019-.016.077.001.099-.022.021-.022-.004-.082.01-.1.02-.025.02-.06.029-.081.016-.015.094.022.114.003.016-.015.04-.026.058-.047l.048-.055c.02-.026.005-.07.02-.091.02-.026.06-.03.072-.052.016-.028.004-.068.016-.091.012-.024-.004-.065.01-.092.012-.021.081-.011.097-.04.012-.021.02-.049.036-.076.015-.028.032-.05.042-.073.012-.03-.027-.081-.02-.104.01-.03.004-.061.011-.087.008-.025.007-.054.016-.082l.028-.077c.007-.023.078-.023.089-.053.01-.03-.044-.08-.035-.102.011-.029.048-.044.058-.066.013-.028.043-.045.055-.069.01-.024-.033-.065-.023-.093.008-.022.029-.044.038-.075l.015-.082c.007-.029.083-.04.088-.064.006-.032-.032-.067-.033-.092-.001-.031.021-.054.019-.08-.004-.028-.065-.064-.066-.094 0-.025.064-.042.066-.074l.01-.082c.003-.03.01-.058.012-.082.002-.032-.067-.064-.067-.087l.01-.08c0-.027-.012-.052-.012-.083 0-.023 0-.05-.003-.08-.002-.024.03-.052.029-.083-.002-.03.04-.06.04-.084.003-.032 0-.059.005-.084.006-.032-.03-.055-.02-.082.008-.026.054-.059.058-.091.003-.026-.064-.044-.066-.076-.001-.024.02-.056.015-.088-.005-.031.01-.063.002-.087-.009-.031-.005-.06-.02-.083-.018-.028-.07-.041-.09-.063-.018-.023-.03-.047-.048-.073-.013-.021-.01-.05-.023-.08-.01-.023-.036-.042-.045-.072-.009-.029.027-.072.02-.096-.007-.032-.019-.057-.02-.083-.003-.033-.034-.048-.032-.078.001-.03-.034-.043-.037-.076-.002-.026.038-.078.023-.108-.01-.024-.07-.023-.086-.05-.015-.028.023-.085.008-.106-.02-.026-.055-.038-.074-.055-.024-.022-.037-.046-.06-.062-.023-.017-.073-.013-.098-.032-.02-.015-.007-.059-.03-.081-.017-.017-.033-.04-.052-.063l-.048-.068c-.018-.026-.08-.006-.093-.026-.016-.027-.02-.056-.033-.08-.014-.023-.014-.058-.031-.084-.014-.02-.022-.05-.043-.073-.016-.019-.057-.015-.08-.037-.02-.021-.05-.028-.068-.045-.022-.021.015-.105-.003-.121-.022-.022-.062-.014-.08-.032-.02-.018-.066 0-.088-.02-.018-.016-.03-.044-.054-.064-.018-.015-.016-.065-.042-.082-.024-.018-.073.003-.093-.008-.027-.016-.024-.068-.047-.076-.028-.012-.057-.015-.083-.021-.026-.007-.084.039-.112.03-.023-.007-.006-.086-.034-.099-.022-.01-.071.024-.097.008-.026-.015-.066.004-.085-.008-.026-.016-.014-.097-.034-.11l-.064-.054c-.02-.017-.042-.03-.068-.046-.02-.013-.05-.01-.078-.025-.02-.01-.068.033-.095.02-.027-.011-.046-.033-.068-.043-.028-.012-.048-.035-.068-.048-.025-.015-.029-.083-.05-.099-.023-.014-.05-.013-.078-.028-.02-.011-.039-.043-.069-.054a9.681 9.681 0 0 0-.078-.025c-.033-.01-.072.018-.098.014-.038-.004-.074.019-.098.022-.025-.009-.047-.048-.082-.058-.026-.007-.062.021-.096.015-.03-.005-.058.002-.081-.002-.03-.005-.052-.041-.075-.045-.03-.005-.05-.037-.076-.041-.025-.004-.057.051-.087.048-.022-.002-.043-.064-.074-.067-.025-.002-.056.06-.086.059-.03-.004-.053-.075-.078-.074-.031.001-.058.019-.082.021-.03.004-.056-.014-.081-.01l-.082.011c-.024.004-.048.081-.079.084-.023.003-.05-.003-.08-.002-.03.002-.06-.04-.084-.039-.031.003-.054.047-.077.048-.03 0-.06-.045-.086-.045h-.083c-.024.001-.048.02-.08.025-.023.004-.056-.03-.088-.024-.03.006-.046.064-.07.07-.03.007-.067-.032-.09-.022-.027.013-.048.039-.07.052-.024.014-.049.022-.076.036-.023.01-.03.075-.059.09-.022.009-.063-.032-.092-.02-.03.01-.036.07-.058.078-.03.011-.064-.004-.085.007-.027.012-.055.012-.078.024-.023.011-.054.005-.082.018-.021.01-.014.088-.04.103-.021.012-.053.007-.08.023-.026.015-.078-.024-.1-.015-.031.013-.029.07-.053.076-.03.01-.049.028-.076.034-.026.005-.097-.056-.128-.045-.025.01-.042.032-.072.048-.022.011-.033.046-.058.066-.026.022-.053.033-.07.051-.024.026-.005.091-.018.113-.018.026-.058.023-.068.051-.01.028-.018.059-.033.088-.011.022-.034.039-.053.064-.014.02-.05.025-.069.05-.02.025-.02.06-.04.077-.022.022-.022.057-.044.07-.027.018-.047.036-.073.049-.025.013-.044.032-.07.052-.021.015-.107-.011-.13.015-.017.019.007.07-.01.096-.018.027-.034.049-.045.073-.012.03-.05.041-.056.067-.008.033.046.091.044.119-.003.028-.044.037-.048.07-.003.026.044.077.034.108-.007.023-.022.045-.034.073-.012.029-.054.041-.062.065-.012.029-.018.056-.03.077-.014.027-.061.039-.075.062-.014.024-.001.056-.014.084-.01.023-.068.035-.077.067-.008.025.06.07.054.1-.008.031-.035.054-.041.078-.008.028-.018.06-.023.082-.006.03-.062.049-.067.076-.006.027.04.06.035.091-.006.024-.017.05-.02.084l-.003.086c-.002.032.035.062.036.087 0 .032-.06.059-.052.085.008.032.044.058.053.085.01.026-.002.053.007.084l.015.084c.005.025-.003.054 0 .086.005.032.022.058.025.083l.005.086c.003.031-.006.061-.005.09.001.027.074.037.078.068.002.025-.008.057-.001.088.008.025.037.045.048.075.01.03-.06.086-.052.111.01.034.054.046.058.071.007.033-.01.07-.004.1.006.028.055.034.065.066.007.024.031.044.045.076.008.024-.025.078-.007.107.021.033.072.04.09.062a.475.475 0 0 0 .072.071c0 .021-.036.055.293-.198.315-.242.282-.22.264-.22-.006-.019.006-.054-.007-.08-.01-.016-.051-.016-.066-.038-.012-.02-.043-.025-.05-.043-.01-.022.045-.074.037-.09-.01-.018-.075-.007-.084-.025-.009-.018.002-.043-.007-.064-.006-.017.02-.05.012-.071-.006-.017-.05-.022-.059-.044-.008-.022.02-.051.014-.068-.005-.024-.003-.045-.006-.063l-.004-.061c-.004-.02.001-.04-.002-.062-.005-.017-.05-.029-.052-.053-.004-.018-.008-.04-.014-.062-.003-.023.037-.048.032-.066-.009-.022-.034-.04-.042-.058a.671.671 0 0 0-.029-.063c-.011-.02-.066-.04-.076-.064a.187.187 0 0 1-.017-.068c-.001-.02.062-.039.063-.063.002-.025-.028-.049-.023-.068.006-.025-.035-.052-.024-.07.014-.023.052-.04.066-.059.014-.019.047-.034.06-.056.01-.017.017-.037.025-.06.008-.018-.014-.045-.007-.068.005-.025.079-.028.082-.046l.016-.062c.003-.023-.046-.058-.042-.079.005-.02.058-.024.064-.046.004-.018-.047-.06-.04-.084.005-.02.083-.011.092-.032.01-.022-.022-.059-.014-.076.008-.023 0-.051.006-.069.009-.023-.001-.05.009-.069.008-.019.028-.031.038-.053.009-.017-.001-.047.01-.07.01-.017.074-.003.086-.023.014-.02.03-.036.038-.052.012-.022-.001-.056.006-.074l.022-.064c.006-.02-.01-.06 0-.083.009-.018.043-.018.057-.04.01-.015.028-.029.043-.048.015-.02.042-.024.055-.038.018-.017.018-.047.031-.06.018-.017.052-.01.066-.025.015-.014-.014-.076.006-.09.015-.013.026-.034.046-.05.014-.012.036-.02.055-.035.02-.016.066.012.083.002.021-.014.05-.008.067-.018.02-.013.011-.063.03-.074.017-.011.018-.049.04-.062.016-.01.04-.01.063-.023.018-.009.055.014.076.003.022-.013.055.005.073-.002.023-.01.047-.008.066-.011.025-.002.03-.042.052-.042s.04-.01.066-.012c.018-.003.047.013.071.008.019-.004.024-.05.048-.06.023-.007.058.032.075.025.023-.01.05.008.067.002.022-.007.022-.083.041-.09.02-.009.042-.009.064-.017.018-.006.042.003.067-.002.019-.004.048.032.072.027.022-.004.034-.06.053-.064.026-.005.054.038.072.033.023-.005.032-.097.053-.103l.066-.012.066-.01c.02-.004.045.028.07.026.024-.001.047.01.066.009.026-.002.047-.017.066-.018l.068-.011c.02-.002.042.011.067.01.02 0 .042-.029.068-.029.02 0 .04.037.065.04.026.003.045.041.063.045.026.005.056-.076.075-.069.024.008.035.091.055.101.02.01.038.031.06.04.019.009.048-.04.072-.034l.066.011c.024.005.04.04.058.042.024.003.059-.057.08-.056.024 0 .044.01.066.008.015.005.014.08.032.086.015.006.051-.061.07-.055.024.007.033.057.051.063.025.007.04.033.058.038l.065.014c.02.007.051-.02.075-.012.019.006.016.072.04.081.019.006.07-.063.093-.052.023.01.027.057.045.065.023.011.037.033.054.042.022.01.041.02.059.03.017.012.04.015.06.027l.059.032c.016.01.054-.015.076-.002.023.013.012.075.03.083.024.01.048.013.068.017.025.006.055-.001.078.002.023.004.055-.007.081 0 .02.005.05.001.073.014.019.009.046.009.067.025.022.015.007.073.02.088.019.02.061.001.072.02.013.024-.023.103-.014.126.008.023.02.042.032.065.01.017.018.04.033.06.013.016.08-.027.098-.01.018.019-.01.08.003.093.018.017.054.011.068.024.019.016.02.042.036.056.015.014.076-.014.093.004.014.014.012.044.028.063.013.015-.017.069-.002.088"/>
        <g transform="translate(7)">
            <mask id="f" fill="#fff">
                <use xlink:href="#e"/>
            </mask>
            <path fill="#595478" d="M6.243 3.813c-.015.012-.018.033-.029.042-.015.012-.01.042-.02.052-.014.012-.036.012-.047.023-.012.01-.01.036-.023.048l-.035.036c-.011.01-.035.007-.05.019-.015.011.003.055-.008.066-.013.014-.074-.03-.082-.017-.01.015.029.083.02.098-.007.015-.035.007-.045.022-.009.013-.042 0-.055.014-.01.01-.031.011-.046.023-.015.011.017.073.005.081-.016.012-.038.011-.049.02-.015.01-.023.026-.035.035-.013.01-.02.026-.035.036-.012.009-.045-.004-.06.007-.012.009-.007.04-.022.051-.015.011-.07-.026-.08-.017-.016.011.005.06-.007.068l-.044.025c-.013.01-.003.046-.017.056-.013.009-.084-.05-.1-.038-.012.01-.008.038-.023.05-.015.01-.035.013-.049.02-.017.009.018.074.002.078-.02.004-.062-.02-.08-.017-.02.002-.068-.03-.088-.026-.015.004-.026.018-.042.027-.014.007-.03.012-.046.023-.015.012-.003.05-.014.06-.015.012-.023.028-.033.038-.014.013-.022.028-.032.04-.012.01-.051-.012-.065 0-.01.01.013.063-.002.074-.01.01-.042 0-.057.01a.75.75 0 0 0-.041.03c-.015.011.006.061-.004.071-.013.013-.072-.031-.083-.02-.01.012.025.077.011.09-.01.01-.06-.023-.074-.011-.012.01-.04.002-.054.014l-.04.028c-.017.012-.03.02-.042.03-.014.012.001.053-.01.064-.01.012-.007.04-.02.052-.012.01-.04.002-.054.014-.012.01.011.061-.005.072-.015.012-.083-.044-.096-.037-.018.01-.02.032-.035.036-.02.006-.05-.006-.068-.003-.017.004-.016.029-.035.036-.015.005-.019.025-.036.034-.012.007-.028.014-.043.025-.015.011 0 .054-.01.064a.259.259 0 0 0-.035.035c-.011.015-.034.012-.042.026-.01.006-.062-.034-.075-.027-.01.007 0 .038-.012.046-.015.012.008.065-.004.073-.015.012-.064-.023-.076-.014-.015.012-.002.052-.014.06-.013.01-.047-.006-.062.005-.01.01-.036.004-.053.015-.01.009.008.056-.007.067-.016.011-.067-.023-.078-.015-.017.01-.003.051-.016.06-.016.009-.062-.022-.076-.014-.013.008.008.059-.007.068-.012.008-.005.044-.02.054-.012.009-.062-.026-.078-.014-.015.01-.024.026-.034.036-.013.014-.036.013-.042.027-.01.017-.006.046-.012.063-.006.018-.008.04-.017.058-.007.014.002.05-.012.064-.009.011-.042-.003-.057.009-.015.01-.039.008-.052.014-.019.009.005.062-.012.065-.02.003-.08-.043-.1-.043-.02 0-.003.046-.025.05-.016.001-.038 0-.057.009-.013.005-.075-.042-.09-.03-.015.01.023.081.011.09-.015.012-.06-.016-.07-.006-.013.012-.046-.002-.056.01-.012.01.035.092.021.103l-.038.032c-.012.01-.085-.054-.1-.043-.015.011.026.088.015.097-.015.011-.041.007-.052.016-.014.011-.022.027-.034.037-.012.01-.037.004-.05.017-.012.009-.012.033-.028.046-.01.009-.033.008-.048.019s-.04.008-.05.017c-.014.014.008.066 0 .078-.012.015-.05-.006-.058.01-.008.014-.01.036-.021.051-.009.013-.054-.017-.068-.003-.01.01-.007.041-.022.052l-.043.025c-.016.012-.036.012-.049.02-.015.01.007.062-.007.07-.013.009-.063-.028-.079-.017-.012.008-.013.032-.029.043-.01.009-.033.008-.048.019s-.01.043-.022.052l-.039.032c-.015.01-.05-.009-.064 0-.013.01.007.058-.008.068-.012.009-.032.01-.048.021-.012.01-.008.04-.023.05-.015.012-.057-.012-.07-.005-.017.008-.026.024-.04.028-.022.004-.044 0-.063.003-.019.001-.067-.032-.086-.028-.017.004.003.054-.015.062-.012.007-.016.03-.032.04-.015.011-.057-.015-.069-.006-.015.011.005.061-.006.071-.013.012-.021.029-.032.04s-.036.005-.05.017c-.01.01-.06-.026-.076-.014-.011.009.03.087.016.098-.015.011-.05-.005-.06.004-.017.012-.063-.02-.074-.01-.013.013-.003.05-.014.062-.011.011.008.06-.006.072-.01.01-.056-.021-.071-.01-.012.01.011.065-.005.075-.015.01-.063-.022-.075-.013-.015.012-.034.014-.045.023-.013.012-.033.015-.043.025a4.994 4.994 0 0 1-.041.03c-.01.01.001.05-.014.062-.012.009-.008.04-.024.05-.015.01-.017.035-.03.041-.017.01-.047-.002-.062.003-.019.006-.021.028-.039.031-.017.004-.071-.04-.09-.034-.015.005-.01.038-.027.047-.014.007-.056-.02-.071-.01-.014.01-.012.036-.022.045-.012.01-.04.001-.048.011-.011.013-.011.036-.02.048-.007.013-.01.033-.02.046-.007.012.012.059 0 .071-.009.002-.043-.034.193.262.237.296.224.274.232.27.011-.013.069.036.076.024.008-.014-.028-.082-.02-.096.007-.013.056.026.066.011.009-.01-.023-.072-.01-.083.01-.01.065.037.079.028.015-.011-.018-.08-.005-.086.018-.01.045-.002.06-.006.02-.006.038-.007.056-.01.018-.003.019-.026.039-.033.015-.003.064.032.082.023.014-.006.017-.028.033-.039.015-.01.053.01.064 0 .015-.012.01-.043.02-.055.013-.013.014-.037.024-.05.009-.014.042.002.054-.011.01-.011-.012-.066.002-.079.012-.009.008-.04.023-.05.016-.011.052.007.065 0 .016-.011.05.003.062-.003.017-.009.013-.039.028-.045.015-.007.062.026.08.017.012-.006.006-.039.023-.05l.04-.031c.015-.01-.008-.064.003-.075.015-.013.075.036.084.024.011-.016-.003-.058.005-.073.008-.016.02-.025.032-.04.009-.013-.008-.059.006-.072.011-.01.076.043.092.032l.042-.027c.015-.012.02-.031.031-.04.015-.012-.018-.077-.006-.087.012-.01.066.031.081.02.011-.01-.007-.058.008-.07.012-.008.021-.024.036-.035.015-.01.077.038.09.032.019-.009-.01-.07.006-.073.02-.004.085.05.104.048.02 0 .036-.006.056-.01.017-.004.02-.026.038-.034.013-.006-.005-.054.012-.065.015-.01.02-.03.03-.042.013-.014.04-.007.047-.022.008-.018-.004-.057.001-.076.004-.02.019-.028.027-.046.006-.016.007-.04.02-.054a.227.227 0 0 1 .037-.035c.016-.01.08.042.094.036.02-.008.043-.005.06-.006.023-.002.031-.017.053-.015.022.002.015-.032.037-.034.018-.002.068.033.086.025.015-.005.023-.02.038-.032.016-.011-.007-.065.003-.076.013-.014.048.003.055-.011.01-.019.027-.023.031-.041.006-.019-.015-.069-.007-.088.007-.014 0-.047.014-.061.01-.012.074.04.089.028.015-.011.014-.039.027-.046.017-.01.042-.004.057-.01l.051-.016c.017-.005.047.006.065 0 .015-.007-.003-.053.014-.062.013-.008.005-.042.021-.054.015-.01.04-.006.053-.014.016-.012.053.008.065 0 .016-.01.012-.04.026-.048.014-.007.035-.007.05-.018.013-.007.03-.012.046-.024.012-.008-.002-.05.013-.061.015-.011.072.03.081.019.014-.014-.024-.085-.017-.099.01-.017.071.032.078.015.007-.016-.025-.079-.015-.096.008-.013.042.003.056-.012.01-.01-.012-.062.003-.073.016-.011.04-.008.053-.016.016-.01.033-.015.047-.022.017-.007.03-.016.047-.021.016-.006.077.043.095.036.014-.007-.03-.085-.013-.094.012-.008.05.01.065-.001s.049.003.062-.004c.017-.01.027-.023.041-.029.02-.006.046.002.063-.002.018-.004.03-.014.05-.02.013-.006 0-.047.016-.057.014-.007.064.026.08.015.013-.011-.015-.068-.005-.078.014-.013.01-.042.017-.055.013-.004.082.056.098.049.012-.004.032-.003.046-.01.012-.008.025-.013.038-.023.016-.011.002-.052.013-.062.015-.011.05.005.06-.005.015-.013.006-.047.018-.058.01-.01 0-.049.013-.06.011-.011.068.031.083.02.011-.01.02-.026.034-.038.015-.011.033-.016.044-.026.015-.013-.012-.069-.003-.08.012-.014.012-.039.021-.052.01-.013.013-.033.025-.048l.037-.033c.011-.01.07.034.086.023.015-.012-.02-.077-.007-.086.016-.01.05.004.063-.004.016-.008.045 0 .06-.007.014-.007-.01-.058.007-.067.012-.007.037-.005.053-.016.012-.008.02-.023.036-.034.015-.012.078.036.088.026.014-.014-.004-.06.005-.072.01-.017.036-.01.044-.025.008-.016-.026-.078-.015-.094.008-.012.064.027.077.014l.039-.033c.015-.011.033-.016.045-.024.015-.013-.021-.079-.01-.089.015-.01.031-.015.044-.025.011-.01.014-.031.029-.043l.036-.034c.012-.01.048.007.063-.004.015-.012.059.013.072.007.018-.01.03-.02.046-.024.02-.004.01-.041.03-.042.019-.002.068.031.089.026.016-.003-.015-.064.003-.073.013-.006.045.004.06-.007s.042-.004.052-.016c.013-.015.031-.018.038-.033.008-.019-.012-.066-.009-.085.005-.02.014-.032.022-.052.006-.015.027-.015.04-.03.01-.012.01-.037.024-.049.015-.011.064.02.078.014.019-.008.031-.019.049-.02.023-.003.018-.031.04-.03.022.001.016-.03.038-.034.017-.001.069.033.087.025.015-.007-.009-.058.006-.07.015-.011.072.03.082.017.012-.014.008-.044.014-.058.009-.019.023-.028.027-.046.005-.019-.012-.063-.004-.081.006-.015.044.004.056-.011a.212.212 0 0 1 .038-.033c.015-.012.03-.019.044-.027.016-.01-.013-.067.001-.073.02-.007.044-.003.06-.008.017-.005.045.004.064-.003.014-.006.037-.004.055-.015.012-.007.003-.041.018-.053.015-.012.018-.033.03-.042.016-.011.09.048.102.04.016-.01.006-.045.02-.054.013-.008-.005-.052.01-.062.013-.009.037-.006.052-.018.012-.008.053.013.069.001.014-.01-.005-.057.005-.069.013-.014.057.012.065-.003.01-.016.013-.036.02-.052.006-.017-.031-.082-.022-.1.007-.012.073.037.086.023.01-.012-.015-.064 0-.076.015-.011.004-.048.017-.056.017-.01.083.04.097.034.017-.008.035-.012.052-.018l.048-.02c.013-.007.016-.029.033-.04.012-.007-.016-.064 0-.075.013-.012.035-.013.048-.02.017-.01.04-.009.054-.015.019-.007.075.033.093.028.016-.004.021-.023.04-.03.014-.005.044.005.062-.006l.04-.03c.016-.012.005-.053.015-.066.015-.018.008-.053.014-.068.014-.008.052.007.071-.005.014-.01.003-.05.02-.063.015-.012.02-.03.031-.04.015-.011.05.004.062-.005.014-.012.047.001.06-.008.012-.01-.016-.064-.001-.076.011-.009.065.028.08.016.011-.009-.022-.07-.007-.083.015-.011.077.033.088.023.013-.014.013-.038.022-.05.012-.014.036-.01.045-.025.009-.013.02-.024.032-.038.01-.012-.032-.082-.019-.095.011-.01.029-.015.044-.027.014-.012.057.011.07.003.015-.012-.001-.054.011-.062.017-.009.063.02.078.012a.883.883 0 0 0 .046-.024c.013-.007.016-.028.032-.039.012-.008.052.011.067 0 .015-.012-.01-.064 0-.075.013-.014.062.015.07.003.01-.017.008-.042.016-.057.007-.015.018-.026.03-.042.007-.013-.024-.07-.01-.085.01-.01.06.02.074.008.015-.012-.01-.065 0-.074.015-.012.046-.002.056-.012.015-.012.035-.014.046-.024.012-.01.038-.005.052-.017.01-.01-.03-.078-.015-.091.01-.01.037-.005.052-.017.015-.011.07.024.083.017.018-.01-.005-.059.01-.063.02-.005.03-.018.05-.02.019-.002.096.058.116.054.017-.004.023-.022.04-.031.013-.008.013-.032.028-.044.015-.012.033-.015.043-.027.011-.015-.02-.075-.015-.09.007-.019.041-.006.045-.025.003-.02.004-.042.011-.06.006-.017.022-.023.034-.038.01-.012.036-.007.05-.019.015-.012.012-.039.027-.046.018-.008.013-.036.031-.038.023-.003.038-.01.06-.01.021 0 .038-.006.06-.009.017-.002.092.055.11.046.015-.006-.008-.054.007-.066.015-.011.032-.018.041-.03.012-.015.046-.002.051-.017.008-.02-.034-.088-.03-.106.004-.019.04-.003.049-.022.005-.015-.028-.074-.016-.09.01-.011.025-.018.04-.03.014-.012.05.003.063-.005.017-.01.027-.024.041-.03.018-.007.06.015.076.01.017-.006.012-.035.03-.042.014-.006.066.025.082.014.013-.008-.031-.08-.016-.09.014-.013.042-.007.054-.015.015-.012.033-.017.045-.025.015-.01.066.02.08.01.013-.008-.012-.056.003-.068.012-.008.032-.011.047-.023.01-.01.024-.02.037-.033.015-.012 0-.052.01-.064.012-.014.068.022.075.008.009-.017-.004-.054.002-.071.005-.017.027-.016.036-.034.007-.014.018-.025.031-.04.01-.012.032-.012.046-.024.014-.012.016-.034.029-.042a.369.369 0 0 1 .044-.026c.017-.009.042-.006.057-.012.016-.006-.022-.07-.005-.078.014-.007.038-.005.054-.016.013-.008.01-.035.024-.048.014-.011.09.044.102.036.017-.01.002-.05.016-.056.018-.007.055.009.071.004.018-.006 0-.047.018-.054.014-.007.018-.026.034-.037.013-.008.07.027.083.015.017-.014.003-.056.012-.069a.152.152 0 0 0 .029-.052c.016.004.054.039-.251-.28-.292-.307-.265-.275-.261-.258-.015.006-.05-.004-.07.008-.014.01-.002.049-.019.063-.014.011-.011.037-.023.047-.014.012-.08-.033-.09-.024-.015.012.02.071.008.081-.012.011-.04.003-.054.015-.01.01-.05-.007-.064.005-.01.01.006.05-.009.063-.014.012-.052-.005-.064.003-.015.013-.033.017-.045.026-.015.01-.032.016-.045.023-.014.01-.032.012-.047.023-.012.008.008.053-.007.066L10.41.53c-.013.013-.058-.01-.067 0-.012.016-.005.047-.011.061a.42.42 0 0 0-.018.054c-.004.018.023.07.016.088-.007.015-.013.031-.025.046-.01.012-.068-.026-.082-.014-.015.012-.005.046-.018.053-.018.009 0 .051-.018.054-.021.005-.059-.013-.08-.012-.02 0-.054-.013-.076-.009a.21.21 0 0 0-.05.02c-.013.007-.005.039-.02.05-.014.012-.08-.032-.09-.023l-.039.032c-.013.012.02.069.008.08-.01.012-.058-.016-.07-.003-.011.01.022.07.008.082-.011.01-.077-.037-.092-.026-.015.012.004.056-.006.066-.015.013-.014.037-.024.047-.014.013-.012.038-.023.049-.01.011-.031.012-.045.025-.01.01-.007.038-.021.05-.01.01-.07-.03-.085-.018-.014.011-.03.019-.04.03-.013.014-.004.047-.012.06-.01.014-.017.027-.026.044-.008.015.009.056-.002.072-.007.012-.04.002-.052.015-.01.011-.027.017-.042.029-.014.012-.038.011-.05.02-.014.012-.012.038-.024.047-.014.012-.047-.002-.06.008-.012.01.021.069.007.08-.011.01-.017.027-.032.038-.012.01-.03.013-.045.025-.015.012-.066-.019-.077-.01-.016.012-.044.005-.055.014-.015.01.006.056-.007.066-.013.01-.004.042-.019.053-.012.009-.032.01-.047.022-.011.01-.052-.01-.067.001-.014.012-.05-.002-.063.005-.016.01-.037.012-.052.016-.02.006-.008.042-.026.045-.019.003-.03.013-.05.019-.016.004-.047-.005-.064.004-.013.008.005.052-.01.063-.014.012-.062-.017-.073-.006-.014.012-.045.002-.055.013-.013.013.027.08.017.091-.011.013-.027.018-.04.031-.01.01-.035.007-.05.02-.01.01-.052-.012-.066 0-.015.011.01.063-.002.072-.015.013-.061-.015-.07-.004-.014.013.038.093.028.105l-.035.036-.038.033c-.01.01-.046-.005-.06.006-.015.012-.036.013-.047.023-.015.013-.018.033-.028.043l-.032.04c-.01.01-.031.01-.045.024-.01.01-.003.042-.017.054-.011.01-.05-.01-.065.002s-.054-.006-.066.001c-.017.01.03.085.014.09-.019.007-.089-.047-.106-.043-.017.004-.042 0-.06.007-.015.005.01.056-.007.066-.013.008-.025.019-.04.03-.014.012-.048-.001-.058.009-.013.013.02.075.012.086-.01.016-.025.022-.034.036-.01.006-.071-.043-.084-.034-.01.006.032.072.021.081-.015.012-.06-.014-.072-.004-.014.01-.041.005-.053.014-.013.012-.02.028-.033.037-.012.01.002.05-.012.061-.012.009-.068-.03-.083-.018-.011.009.034.085.02.096-.015.012-.057-.01-.068-.002-.016.012-.039.01-.05.019l-.042.028c-.014.008-.02.025-.035.035a1.693 1.693 0 0 0-.04.03c-.012.008.001.049-.013.06-.015.012-.069-.025-.08-.013-.012.014-.017.031-.024.046-.009.018-.006.045-.011.062-.005.018.001.049-.007.067-.007.014-.006.04-.019.054-.009.011-.01.035-.025.046-.015.012-.067-.022-.08-.015-.019.009-.003.05-.02.052-.022.004-.094-.053-.114-.053-.02 0-.038.005-.06.008-.015.003-.036.004-.054.013-.014.007.027.077.012.09-.015.01-.074-.031-.085-.022-.014.012-.005.047-.016.057-.013.013-.037.01-.048.021-.012.01.02.071.008.083-.011.01-.04.003-.054.014-.012.01-.065-.026-.08-.014" mask="url(#f)"/>
        </g>
    </g>
</svg>
