<svg xmlns="http://www.w3.org/2000/svg" width="973" height="426" viewBox="0 0 973 426">
    <path fill="#F4F3F8" fill-rule="evenodd" d="M-328.057 416.773c-37.337 11.18-79.437-5.332-105.041-34.725-25.604-29.392-36.363-69.456-36.882-108.435-.653-49.06 14.868-99.606 49.085-134.762 34.61-35.56 84.616-52.228 133.865-58.284 49.248-6.056 99.125-2.739 148.702-4.789 67.891-2.807 135.355-15.761 199.46-38.302 54.116-19.03 109.755-45.317 166.23-35.253 42.86 7.638 79.404 35.39 120.987 48.286 103.057 31.955 209.975-31.387 317.57-39.437C731.333 6.174 798.17 22.629 853.84 57.336c82.005 51.122 140.047 153.134 112.018 245.63-22.179 73.19-36.298 71.022-89.574 97.702-53.274 26.68-134.997 15.9-194.527 18.384-140.082 5.846-290.942 12.84-430.41-1.532-96.9-9.984-186.952 2.393-284.344.293-101.079-2.182-194.735 3.06-295.814.88"/>
</svg>
