<svg xmlns="http://www.w3.org/2000/svg" width="914" height="584" viewBox="0 0 914 584">
    <path fill="#F4F3F8" fill-rule="evenodd" d="M365.467 577.875c-96.8 1.051-173.593 9.76-263.466-6.306-24.866-4.445-50.434-26.494-70.549-45.278C-7.542 489.88-8.415 412.336 18.58 361.737c26.993-50.598 73.788-78.854 120.152-97.427 110.641-44.32 230.713-46.88 338.599-100.756 63.47-31.697 120.638-80.18 182.504-116.488C721.7 10.76 792.133-13.345 858.312 8.04c86.477 27.946 148.566 132.216 162.44 242.398 10.987 87.269-5.772 181.622-52.192 248.292-16.114 23.148-35.67 42.855-58.013 55.596-24.504 13.973-51.555 19.23-78.303 23.214-82.379 12.265-160.761 3.01-243.716 4.54-71.814 1.325-151.246-5.53-223.061-4.205"/>
</svg>
