<svg xmlns="http://www.w3.org/2000/svg" xmlns:xlink="http://www.w3.org/1999/xlink" width="157" height="88" viewBox="0 0 157 88">
    <defs>
        <path id="a" d="M.632.58h80.207V62H.632z"/>
        <path id="c" d="M0 .015h110.04v68.761H0z"/>
    </defs>
    <g fill="none" fill-rule="evenodd">
        <path fill="#B7E2E0" d="M79.773 47.724L141.07 28.22a2.393 2.393 0 0 1 2.99 1.506l11.472 33.535a2.394 2.394 0 0 1-1.475 3.033L95.442 86.763a2.392 2.392 0 0 1-3.003-1.351l-14.153-34.5a2.39 2.39 0 0 1 1.487-3.188"/>
        <g transform="translate(76 25.985)">
            <mask id="b" fill="#fff">
                <use xlink:href="#a"/>
            </mask>
            <path fill="#B7E2E0" d="M68.826 45.247c.284-.1.515-.237.735-.316.29-.104.502-.282.72-.362.277-.1.531-.139.767-.227.235-.088.446-.245.723-.347l.746-.287c.221-.079.49-.108.774-.208.283-.1.476-.345.695-.429.288-.11.618.05.832-.044.272-.117.416-.464.646-.572.228-.107.493-.11.765-.229.213-.09.493-.076.782-.185.218-.084.481-.13.765-.23.291-.102.437-.409.69-.502.417-.149.768-.317 1.035-.534.34-.277.555-.584.752-.893.191-.316.31-.668.405-1.085.072-.32.225-.702.17-1.168-.036-.343-.273-.755-.356-.983-.098-.285.034-.608-.042-.83-.098-.292-.36-.476-.433-.696l-.234-.764c-.08-.239-.284-.434-.377-.713-.074-.22.152-.573.053-.864-.076-.222-.246-.442-.343-.726-.098-.285-.147-.546-.214-.772-.089-.295-.42-.455-.474-.68-.068-.292.002-.582-.046-.83-.048-.25.062-.552-.007-.84-.053-.228-.152-.468-.24-.763-.068-.225-.132-.48-.229-.766-.098-.285-.315-.488-.394-.71-.103-.29-.213-.526-.293-.743l-.3-.742c-.09-.234-.026-.522-.13-.799-.08-.218-.355-.397-.458-.687-.078-.222-.069-.503-.166-.786a80.057 80.057 0 0 0-.25-.76c-.103-.29-.369-.474-.45-.69-.103-.278.06-.6-.032-.835-.09-.234-.423-.386-.526-.664-.082-.217.027-.528-.077-.818-.078-.22-.086-.496-.183-.78l-.252-.759-.255-.758c-.103-.277-.327-.466-.416-.7-.089-.236-.254-.445-.357-.723-.08-.218-.084-.49-.186-.78-.078-.222-.353-.406-.449-.69-.098-.285.113-.633.044-.857-.09-.294-.228-.52-.286-.744-.075-.286-.055-.558-.11-.803-.055-.246-.21-.458-.284-.744-.059-.225-.187-.453-.277-.746l-.238-.76c-.094-.279-.328-.473-.409-.692l-.28-.735c-.113-.27-.14-.525-.24-.749-.054-.177.094-.449.021-.672-.059-.185-.23-.348-.306-.565-.095-.284-.373-.467-.448-.688-.1-.29.011-.602-.064-.82-.097-.28-.314-.47-.396-.708-.04-.119-.052-.247-.066-.38a2.097 2.097 0 0 0-.203-.616c-.176-.32-.36-.717-.733-1.058-.288-.264-.736-.359-1.156-.54-.419-.185-.789-.48-1.184-.515-.515-.042-.92.17-1.268.258-.265.065-.336.047-.496.043-.14-.007-.275-.016-.396.02-.24.07-.422.332-.704.417-.22.067-.432.258-.725.35-.225.07-.537-.048-.825.043-.286.092-.53.192-.752.273-.289.108-.55.132-.764.227-.273.121-.486.283-.712.397-.227.112-.449.245-.72.364-.214.096-.423.293-.712.401-.219.081-.504.055-.79.146-.287.092-.555.118-.783.177-.298.078-.48.357-.712.4-.293.053-.61-.122-.864-.086-.253.033-.44.274-.734.33-.229.043-.49.073-.789.151-.227.062-.559-.118-.846-.026-.286.09-.45.445-.673.518-.292.096-.593.007-.812.082-.28.096-.552.07-.79.154-.236.084-.373.481-.653.578l-.758.251c-.222.073-.578-.174-.864-.083-.287.091-.442.47-.665.543-.293.094-.56.107-.78.18l-.75.28c-.238.081-.499.088-.78.183-.219.073-.444.221-.737.316-.223.073-.488.105-.775.197-.287.091-.556.112-.778.19-.29.102-.476.37-.692.456-.276.111-.559.052-.79.154-.232.1-.452.234-.728.344-.216.087-.517-.007-.808.094-.222.078-.442.253-.729.344l-.766.226c-.294.092-.553.133-.775.202-.282.088-.463.35-.703.423-.24.075-.546-.055-.828.033-.22.07-.447.215-.74.306-.225.072-.49.105-.777.197-.287.09-.507.271-.729.341l-.758.254c-.282.088-.56.041-.8.117-.24.072-.425.327-.707.415-.222.068-.479.111-.772.204-.225.07-.446.245-.732.337-.286.09-.585.02-.81.084-.298.081-.536.188-.764.237-.29.061-.548.082-.798.125s-.55-.07-.842-.01c-.226.05-.416.31-.712.39-.227.062-.459.2-.747.291-.286.092-.587.011-.81.084-.293.096-.483.354-.7.43l-.747.29c-.237.085-.497.095-.777.193-.219.076-.53-.05-.823.046-.224.074-.376.461-.663.551-.287.092-.574.056-.797.13-.293.097-.599-.005-.816.07-.28.097-.479.301-.716.386-.237.086-.42.338-.699.435-.219.077-.524-.025-.817.07-.222.076-.41.355-.696.446-.287.091-.599-.019-.82.054l-.77.217c-.28.097-.529.143-.767.227l-.759.246c-.219.076-.422.293-.714.39-.224.073-.445.243-.734.333-.284.091-.513.238-.738.301-.296.084-.57.07-.796.124-.288.07-.509.203-.755.253-.247.05-.558-.103-.846-.036-.225.054-.439.235-.734.32-.224.063-.526-.018-.812.073-.252.08-.453.228-.655.297-.256.088-.505.081-.703.155-.25.095-.449.227-.65.311l-.652.31c-.2.082-.366.321-.62.415-.137.03-.242-.122.174 1.187.418 1.311.44 1.21.576 1.17.25-.095.55.091.746.006.225-.098.353-.432.572-.529.198-.087.48.051.725-.046.195-.076.34-.386.591-.474.2-.069.5.102.75.023.284-.092.452-.43.68-.493.295-.084.565-.089.792-.14.288-.059.538-.108.786-.158.248-.049.467-.189.756-.256.226-.052.536.071.833-.012.226-.063.46-.197.745-.289.286-.09.58-.036.802-.112.291-.1.507-.274.724-.356.277-.104.495-.248.73-.34.232-.095.508-.059.784-.164.217-.082.4-.358.692-.458.222-.076.442-.25.728-.342.287-.09.577-.046.802-.115.295-.087.576-.059.8-.122.284-.08.495-.248.738-.312.243-.066.542.047.827-.033.223-.064.437-.246.731-.336.223-.074.473-.157.76-.25.285-.092.474-.368.696-.446.291-.1.62.078.835-.007.276-.112.467-.337.7-.439.231-.1.468-.18.745-.29.216-.088.41-.33.701-.433.222-.077.562.124.85.034l.762-.235c.293-.093.526-.218.744-.292.283-.093.443-.42.681-.499.24-.079.55.07.831-.023.22-.07.411-.327.704-.42l.753-.27c.287-.09.621.09.848.03.297-.08.472-.39.7-.436.292-.058.62.145.871.107.252-.04.497-.1.788-.159.23-.047.458-.182.756-.262.227-.062.424-.31.711-.402.286-.09.521-.215.743-.298.288-.108.561-.109.773-.208.27-.126.466-.336.693-.455.226-.12.467-.193.736-.318.213-.099.44-.243.727-.352.221-.083.47-.17.756-.26.287-.093.625.103.853.046.3-.078.564-.1.795-.139.295-.049.527-.15.781-.178.256-.027.462-.212.756-.26.232-.04.542.081.841.004.228-.057.47-.164.757-.256.287-.09.476-.366.696-.448.29-.107.573-.065.787-.163.271-.123.52-.175.745-.293.227-.117.408-.377.68-.5.211-.098.426-.28.714-.388.221-.082.56.111.845.02.287-.09.511-.252.738-.317.296-.085.564-.096.791-.152l.78-.185c.245-.055.515-.039.802-.11.226-.056.42-.3.716-.388.225-.066.44-.257.727-.349.288-.09.56-.104.784-.174.295-.09.583-.04.805-.106.284-.085.493-.253.736-.324.242-.07.496-.102.78-.187l.768-.217c.225-.069.43-.296.716-.388.286-.09.611.058.832-.022.288-.103.45-.459.663-.55.274-.117.596.066.826-.043.23-.109.393-.425.666-.54.214-.092.5-.054.788-.159.22-.08.412-.35.7-.44.285-.093.556-.113.781-.179.297-.079.55-.148.774-.206l.774-.207c.123-.029.265.004.412.033.124.038.354.035.382.043.084-.012.171-.355.356-.336.133.02.24.177.37.232.14.065.18.233.246.304.091.098.172.182.207.28.025.064.011.116.018.198.02.133.032.26.062.383.056.246.138.482.216.768.058.226.284.422.375.716.07.225-.04.54.056.824.092.267.388.434.47.647.107.278.273.49.363.683.052.201-.182.514-.115.76.054.195.081.422.158.667l.201.652c.098.284.325.485.403.706.101.29.067.575.147.792.103.278.296.477.385.711.09.236.296.43.397.707.08.217-.069.542.034.831.078.222.19.461.288.746l.24.76c.104.29.397.463.484.678.111.275.26.49.36.721.098.231.225.454.335.728.08.22.17.461.273.75.081.22-.078.553.02.837.097.284.433.447.505.671.097.292.073.574.14.796.087.283.085.55.155.791.071.242.341.415.427.698.068.222.097.486.193.778l.278.75c.097.284-.079.623.004.842.108.288.358.477.45.691.115.273.127.535.233.764.107.23.43.384.546.658.092.213-.047.535.062.823l.268.753.232.764c.1.291.441.45.518.667l.24.763c.084.236.215.457.314.736.08.218.17.461.274.75.078.222.041.512.14.797.097.285.024.588.09.814.087.296.177.54.227.766.066.29.27.487.315.738.044.251-.066.553-.002.843.051.228.364.395.451.691.067.225.057.507.152.792.041.118.1.336.081.36.001.057-.014.108.003.15.032.118-.01.214 0 .306.015.115.146.29.116.426a.993.993 0 0 1-.193.38c-.077.108-.22.145-.37.22-.152.072-.424.242-.693.34-.284.096-.599-.004-.824.06-.297.085-.54.171-.772.216-.293.057-.502.225-.756.26-.256.034-.457.217-.75.274-.23.045-.545-.07-.842.014-.226.064-.408.342-.693.441-.284.1-.61-.042-.83.046-.285.116-.5.29-.71.392-.267.131-.507.21-.729.333-.224.124-.407.36-.674.492-.21.102-.5.06-.785.175a17.77 17.77 0 0 1-.75.274l-.763.244c-.293.094-.463.396-.687.457-.286.08-.545.1-.79.161-.246.061-.512.06-.798.14-.224.062-.488.091-.782.185-.223.072-.433.27-.717.37-.285.098-.515.236-.738.312-.29.1-.645-.13-.866-.057-.28.092-.479.29-.719.367-.239.077-.424.316-.703.41-.22.071-.485.1-.777.2-.222.075-.522.018-.806.116-.284.1-.474.354-.692.44-.287.112-.589.036-.8.135-.27.123-.493.25-.72.365-.226.115-.375.451-.644.575-.212.097-.553-.09-.839.022-.22.086-.4.37-.684.467-.284.1-.49.308-.715.38-.294.096-.633-.096-.857-.03-.286.073-.532.138-.776.201-.245.068-.487.137-.772.218-.225.064-.45.202-.743.297-.224.073-.399.371-.684.47-.283.1-.548.142-.77.212-.294.093-.557.126-.78.187-.289.077-.603-.066-.849-.008-.245.06-.468.182-.754.26-.225.06-.5.054-.794.147l-.756.258c-.316.11-.55.344-.79.44-.342.138-.582.343-.788.45-.249.076-.565.05-.902.16-.249.08-.483.31-.81.425-.283.098-.515.225-.736.301-.289.102-.573.071-.79.146-.28.1-.55.076-.787.158s-.4.368-.679.465c-.218.076-.535-.053-.825.048-.22.077-.385.4-.668.5-.283.097-.62-.069-.84.013-.288.108-.509.261-.724.35-.274.11-.532.133-.763.233-.235.095-.466.19-.74.3-.215.087-.364.447-.652.555-.224.071-.476.151-.76.243-.284.1-.587.032-.809.108-.29.096-.485.331-.705.4-.284.088-.58-.003-.823.07l-.766.225c-.222.07-.448.204-.74.302-.223.074-.52.021-.805.12-.284.1-.465.38-.685.464-.287.11-.594.014-.808.107-.272.118-.486.272-.714.378l-.736.315c-.213.093-.38.398-.668.507-.22.085-.534-.013-.818.084-.284.1-.464.383-.685.461-.29.103-.567.096-.786.174-.278.1-.53.143-.766.228-.236.085-.498.1-.777.2-.217.078-.368.433-.658.537-.22.078-.494.096-.777.196-.34.122-.465-.087-.585-.079-.137.002-.287.19-.415.132-.149-.067-.28-.107-.376-.21-.103-.11.037-.446.01-.536-.038-.102-.08-.082-.158-.298-.082-.222-.245-.439-.359-.717-.114-.279-.183-.535-.284-.748-.132-.278-.45-.428-.566-.63-.148-.26-.137-.537-.275-.752-.139-.216-.29-.425-.437-.683-.116-.204-.196-.452-.329-.73-.099-.213-.13-.484-.245-.764-.114-.278-.29-.49-.367-.712-.1-.29-.28-.498-.337-.726-.073-.29-.156-.528-.203-.78-.048-.252-.124-.492-.197-.784-.058-.226.15-.59.05-.882-.077-.223-.347-.397-.46-.676-.116-.278-.196-.53-.294-.743-.13-.28-.128-.562-.24-.766-.147-.26-.509-.383-.645-.599-.136-.216-.112-.498-.257-.758-.114-.204-.438-.35-.568-.63-.1-.213-.182-.464-.296-.742-.114-.28-.099-.57-.182-.79-.109-.288-.219-.523-.294-.744-.094-.28-.043-.574-.116-.815-.074-.242-.254-.44-.349-.72-.074-.22.02-.54-.09-.828-.084-.219-.46-.348-.576-.628-.114-.278-.136-.554-.224-.77-.115-.287-.186-.538-.27-.754-.108-.277-.018-.585-.108-.82s-.364-.395-.472-.67c-.085-.216-.147-.47-.262-.756-.09-.217-.194-.46-.31-.738-.115-.278-.354-.463-.45-.678-.128-.282-.013-.61-.12-.816-.139-.262-.36-.444-.487-.664-.127-.22-.176-.47-.314-.734-.109-.206-.21-.446-.338-.726-.098-.214-.153-.475-.268-.754-.114-.278-.264-.502-.349-.72l-.276-.752c-.096-.28-.133-.537-.21-.778-.079-.24-.418-.373-.516-.653-.076-.22-.116-.483-.227-.77-.084-.22-.26-.432-.377-.71-.113-.28.09-.647.007-.867-.108-.288-.339-.473-.41-.694-.094-.28-.07-.563-.142-.805-.036-.12-.114-.224-.195-.333-.07-.099-.116-.1-.12-.18-.013-.099-.069-.206-.048-.343.02-.11.26-.16.303-.244.045-.102-.006-.283.068-.369.098-.122.197-.204.28-.276.08.023.143.192-.333-1.328-.458-1.46-.494-1.288-.677-1.155-.333.118-.826.246-1.28.67-.318.295-.51.76-.729 1.243-.199.432-.206.857-.24 1.211-.044.457-.28.904-.18 1.287.047.226.21.461.315.567.106.1.211.191.26.307.096.231.112.496.224.77.09.212.06.504.177.79.09.215.333.4.447.676.114.28.087.574.175.791l.27.751.268.753c.09.236.15.482.258.757.084.215.343.39.458.674l.321.73c.114.28.06.585.16.798.13.28.325.48.437.685.142.26.27.48.401.697.133.218.422.37.564.631.112.205.24.432.37.712.097.214-.024.548.09.826.114.278.323.477.401.698.102.291.346.472.408.697.078.288.048.572.102.822.054.25.042.525.12.813.06.225.144.471.247.761.078.222.274.426.387.704.116.278-.038.626.053.842l.302.74c.118.271.427.416.53.646.102.23.023.533.141.804.093.212.414.361.533.645.091.216-.073.567.041.847.114.277.368.458.46.673.117.285.284.496.375.71.116.271.281.476.382.706.1.23.156.48.272.751.091.213.271.42.39.703.09.217-.039.554.075.832.11.28.21.524.296.742.126.281.328.478.432.686.132.265.247.488.362.715.12.223.356.398.488.662.105.208.108.487.233.77.095.213.174.466.29.743.114.278.163.543.252.761.115.284.287.495.373.71.111.274.102.548.196.783.094.233.415.373.524.647.088.215.22.442.335.727l.274.751c.114.278.024.6.113.817.118.31.278.79.495 1.05.293.367.708.483 1.014.682.317.203.701.255 1.11.356.322.076.697.161 1.147.118l.555-.025c.096-.008.212-.023.301-.037.07-.01.144-.027.214-.05.284-.1.573-.07.798-.14.294-.09.551-.14.777-.196.29-.07.484-.276.733-.326.248-.05.485-.134.773-.204.227-.056.503-.05.797-.14.225-.069.42-.31.704-.408.284-.1.594-.009.815-.089.29-.105.566-.1.783-.182.276-.105.422-.449.656-.542l.755-.259c.217-.08.483-.107.772-.21.221-.08.521-.023.804-.12.284-.1.467-.375.688-.457.29-.104.595-.015.812-.098.275-.106.398-.515.634-.607.235-.088.471-.178.747-.284l.751-.27c.222-.08.51-.055.793-.154.284-.099.548-.143.768-.223.29-.104.518-.237.735-.319l.741-.3c.234-.09.487-.13.765-.234.216-.08.425-.268.714-.373.222-.079.518-.029.802-.129.282-.098.575-.052.8-.124.293-.093.433-.475.656-.535.285-.076.626.138.871.081.245-.057.503-.077.79-.153.223-.06.401-.334.694-.426l.753-.26c.278-.095.56-.075.777-.158.282-.106.44-.429.65-.519.272-.114.513-.18.736-.283.178-.053.467.14.69.066.184-.06.288-.398.504-.473.283-.1.59-.02.811-.099.29-.1.56-.113.777-.19.273-.108.51-.2.742-.293.237-.084.427-.3.705-.398.218-.077.541.063.831-.039.221-.077.365-.464.648-.563.283-.1.584-.038.804-.113.291-.1.554-.134.774-.207l.758-.25c.234-.09.468-.179.746-.283l.755-.258c.221-.076.422-.302.705-.402.284-.098.607.03.825-.059.286-.115.52-.236.728-.336.27-.128.48-.289.704-.409.223-.119.427-.3.695-.428.211-.1.43-.257.716-.372.218-.087.445-.234.73-.333.282-.099.602.014.827-.052.296-.087.491-.316.72-.365.29-.064.635.163.887.122.252-.04.498-.1.79-.162.226-.05.486-.094.782-.18.226-.067.377-.43.661-.53.283-.1.615.051.836-.028.29-.105.495-.3.712-.382.276-.104.535-.129.77-.219s.392-.402.67-.506c.215-.08.49-.086.778-.19.221-.078.542.042.826-.057" mask="url(#b)"/>
        </g>
        <g transform="translate(0 -.015)">
            <mask id="d" fill="#fff">
                <use xlink:href="#c"/>
            </mask>
            <path fill="#42969B" d="M4.852 62.481c-.22-.302-.45-.54-.615-.783-.201-.327-.421-.573-.576-.82-.202-.314-.293-.625-.445-.9-.152-.277-.328-.545-.46-.894-.101-.275-.262-.565-.371-.938a288.72 288.72 0 0 0-.262-.974c-.087-.367-.25-.67-.318-.962-.102-.378.035-.73-.017-1.015-.061-.364-.274-.664-.29-.984-.021-.318.002-.638-.004-1.01.006-.294.09-.616.106-1.003.008-.295.105-.624.152-1.002.043-.379-.024-.735.043-1.028.088-.386.177-.707.274-.989.11-.362.183-.677.284-.985l.346-.967c.098-.282.315-.553.472-.915.119-.277.215-.607.404-.947.185-.343.453-.58.618-.833.207-.336.284-.682.443-.936.222-.31.41-.576.6-.84.178-.272.33-.565.563-.872.183-.24.54-.38.806-.675.2-.228.37-.532.64-.813l.73-.73c.287-.277.426-.619.65-.82.287-.259.603-.396.86-.596.262-.199.577-.328.888-.548.24-.186.5-.39.813-.635l.842-.596c.31-.232.553-.48.803-.655.326-.228.6-.422.858-.582.326-.203.59-.399.874-.564.28-.168.61-.25.942-.448.263-.148.505-.413.859-.605.267-.15.605-.248.957-.425.35-.179.662-.324.94-.454.366-.172.622-.427.9-.553.355-.162.719-.155 1.018-.295.3-.137.544-.409.902-.564.279-.125.643-.139 1.019-.29.287-.117.625-.202.997-.343l.985-.372.992-.364c.365-.139.649-.334.96-.454.31-.117.607-.278.977-.41.289-.105.629-.174 1.016-.306.294-.105.585-.332.963-.463.378-.13.768-.067 1.063-.162.388-.129.703-.274.997-.364.376-.115.712-.164 1.032-.257.322-.096.623-.248.999-.368.294-.09.61-.235 1-.367.294-.103.626-.22 1.005-.35.37-.136.664-.349.953-.462l.979-.393c.362-.154.687-.245.985-.378.233-.09.545-.07.84-.19.239-.098.478-.264.759-.389.372-.16.646-.413.936-.539.376-.173.744-.206 1.028-.337.364-.163.628-.397.932-.545.305-.147.642-.229.996-.419.276-.146.61-.263.975-.467.279-.155.537-.42.892-.62.352-.204.72-.282.997-.445.36-.209.606-.48.873-.649.339-.215.69-.306.972-.504.282-.198.499-.484.825-.719.253-.19.49-.46.824-.714.255-.192.604-.333.923-.595.32-.257.577-.51.809-.734.307-.29.598-.5.809-.738.275-.298.482-.576.7-.842l.684-.84c.202-.24.38-.55.645-.867.206-.238.487-.463.749-.769.27-.294.513-.555.724-.786.273-.306.398-.652.612-.877.27-.287.606-.437.84-.674.237-.236.376-.552.648-.836.212-.216.46-.452.736-.748.214-.218.562-.365.83-.649.27-.276.38-.65.598-.862.286-.28.59-.446.813-.642.278-.259.557-.433.802-.638.24-.209.355-.576.658-.804.23-.188.495-.388.827-.599.25-.168.643-.18.958-.392.319-.205.53-.509.79-.66.35-.18.648-.327.923-.438l.926-.432c.289-.14.607-.212.966-.334.279-.098.579-.249.952-.382.289-.084.626-.136.999-.238.374-.098.706-.158 1.005-.209.387-.079.692-.26.985-.326.372-.096.712-.03 1.03-.094.322-.054.64-.135 1.02-.189.3-.032.644.056 1.04.026.305-.02.642-.114 1.034-.108l1.039.004c.4-.013.738.046 1.039.054.384.02.718-.084 1.047-.066.327.032.644.192 1.027.228.3.034.642.01 1.04.073l1.03.172c.389.046.737.056 1.04.11.397.068.73.127 1.03.18.379.081.684.231 1.005.303.318.076.669.026 1.043.131l1.008.29c.299.073.646.113 1.024.23.379.113.682.302.975.396.383.128.71.222.996.33.363.14.66.285.965.414.303.127.566.364.922.513.279.115.63.142 1.003.298.283.116.61.223.97.38.362.152.628.392.905.52.364.162.712.214.984.347.348.166.644.302.934.455.29.15.557.342.887.536.26.151.487.426.818.641.254.163.652.176.969.403.32.224.562.471.8.655.317.243.52.524.746.715.292.24.604.373.843.59.24.214.564.34.839.606.213.21.375.518.646.803.202.222.529.383.784.675.242.3.363.633.55.865l.58.833c.2.32.37.59.539.863.168.27.31.556.5.88.146.256.355.522.53.873.14.266.3.563.452.918.156.351.278.665.378.948.132.371.142.711.214.996.094.363.184.67.232.985.055.316-.041.652-.013 1.021.035.286.135.601.144.988.017.295-.065.625-.081.996-.004.33.045.626.014.891-.036.334-.088.621-.136.877l-.096.882c-.056.291-.111.577-.17.873-.062.26-.07.561-.173.884-.067.163-.187.187.577.5.763.311.738.221.808.031.115-.357.387-.608.46-.903.076-.342-.007-.689.062-1.015.05-.295.224-.588.28-.957.054-.29-.087-.633-.052-1.002.03-.29.195-.61.196-.98.014-.424-.16-.786-.182-1.108-.013-.427.002-.789-.036-1.109-.036-.409-.062-.758-.121-1.103-.055-.345-.15-.683-.251-1.079-.08-.31-.027-.7-.17-1.107a18.113 18.113 0 0 0-.4-1.039c-.161-.386-.208-.764-.355-1.057-.193-.386-.395-.689-.554-.969-.208-.356-.411-.642-.596-.938-.195-.288-.322-.62-.55-.963-.194-.257-.506-.476-.757-.818-.2-.256-.482-.495-.741-.816-.268-.316-.46-.627-.674-.869-.285-.314-.5-.604-.72-.834-.283-.295-.59-.473-.838-.713-.246-.243-.444-.54-.754-.81-.24-.212-.57-.369-.903-.626-.254-.2-.556-.398-.895-.633-.337-.24-.711-.326-.981-.494-.355-.224-.575-.542-.855-.693-.353-.197-.7-.28-1.007-.43-.307-.15-.61-.31-.974-.476-.286-.133-.644-.202-1.023-.37-.29-.129-.537-.447-.913-.605-.374-.16-.697-.315-.993-.429-.386-.153-.72-.264-1.015-.37-.375-.139-.745-.116-1.065-.225-.32-.11-.592-.36-.97-.486-.297-.097-.663-.103-1.056-.228l-1.034-.295c-.388-.119-.683-.379-.991-.46-.4-.114-.775-.064-1.073-.157-.38-.127-.673-.36-1-.459l-1.046-.29c-.306-.07-.66-.098-1.07-.18-.312-.06-.68-.032-1.084-.082-.404-.056-.762-.077-1.078-.113-.413-.056-.76-.128-1.075-.14-.403-.016-.748.036-1.09.032-.35 0-.68-.003-1.082-.004-.313.01-.673.023-1.081.034l-1.081.021c-.408-.005-.77-.15-1.09-.138-.42.016-.775.003-1.091.004-.405.014-.744.08-1.09.09-.345.02-.681.103-1.082.166-.315.04-.688-.018-1.108.055-.322.043-.671.155-1.072.263-.404.108-.721.32-1.031.41-.398.147-.761.192-1.058.314-.38.152-.714.25-1.02.425-.308.163-.578.408-.94.592-.29.13-.563.38-.931.584-.275.164-.687.173-1.041.392-.347.231-.621.473-.893.65-.361.222-.674.398-.93.591-.335.236-.606.451-.878.663-.278.21-.57.401-.878.666-.246.205-.421.536-.726.825-.235.218-.425.531-.711.823l-.765.765c-.278.308-.571.516-.78.75-.26.298-.44.591-.66.845l-.716.792-.698.802c-.203.235-.356.564-.617.864-.26.302-.594.472-.795.704-.262.31-.358.678-.557.91-.248.3-.593.426-.806.675-.21.253-.336.588-.601.868-.203.228-.507.4-.796.672-.222.21-.393.535-.701.782-.305.25-.588.447-.834.63l-.845.616c-.321.216-.592.4-.866.586-.273.182-.641.223-.97.423-.258.157-.434.512-.786.711-.266.157-.6.268-.941.465-.344.194-.68.3-.947.446-.355.19-.655.35-.926.483-.348.171-.665.27-.968.4-.304.128-.595.283-.954.43-.28.116-.551.34-.92.503-.285.12-.651.143-1.014.301-.336.15-.596.397-.871.518-.36.158-.648.333-.906.447-.258.091-.598.016-.914.13-.251.082-.537.177-.855.284l-.848.3c-.373.137-.668.342-.96.448-.382.136-.73.181-1.02.287-.364.135-.657.31-.97.426-.312.113-.601.296-.971.43-.29.102-.662.073-1.05.21-.292.106-.622.227-.997.362-.38.126-.714.24-1.011.337-.385.137-.668.377-.96.487-.367.138-.668.293-.981.418l-.986.406c-.291.111-.614.232-.998.38-.294.111-.677.097-1.055.24-.377.142-.647.423-.94.538-.383.153-.733.215-1.021.333-.37.15-.702.232-1.016.36-.313.127-.574.376-.94.532-.288.12-.616.242-.993.415-.29.132-.602.298-.964.483-.362.184-.76.19-1.036.348-.366.202-.626.461-.897.618-.341.211-.66.343-.947.526-.29.18-.495.498-.83.718-.26.173-.635.237-.98.482l-.891.62c-.333.237-.626.445-.886.632-.333.253-.503.608-.748.803-.315.247-.578.465-.834.692-.253.228-.497.467-.78.752l-.774.76c-.217.231-.52.437-.8.735-.287.292-.582.511-.801.746-.285.31-.505.59-.707.834-.26.312-.422.622-.633.893-.215.27-.512.485-.76.81-.187.262-.246.647-.474 1.003-.181.267-.4.561-.595.931-.198.364-.41.666-.53.97-.164.395-.345.708-.441 1.018-.124.393-.145.757-.241 1.09l-.265 1.071c-.084.308-.183.651-.264 1.068-.063.32-.108.68-.157 1.09-.052.41-.24.751-.27 1.08-.036.43-.056.79-.094 1.115-.04.416.047.765.023 1.118-.03.355.074.7.105 1.11.029.321-.082.707.013 1.131.062.326.256.661.348 1.07.122.403.09.796.196 1.112.123.417.343.723.468 1.022.167.38.305.703.495 1.003.187.3.41.578.64.918.183.266.3.615.533.976.185.27.415.558.66.897.239.347.493.614.706.865.28.328.62.501.859.718.299.282.516.567.785.793.272.225.522.48.849.74.264.193.568.402.938.633.278.19.658.27 1.044.447.385.19.74.295 1.064.384.416.122.705.465 1.04.515.42.084.788.08 1.14.148.359.041.724-.04 1.14-.008.327.041.693.047 1.13.033.333-.01.716.067 1.139-.01.422-.074.78-.203 1.095-.305.417-.112.798-.103 1.114-.199l1.036-.438c.332-.125.573-.443.94-.618.287-.139.688-.138 1.055-.357.278-.167.549-.429.89-.656.349-.223.61-.48.882-.65.343-.239.73-.307.993-.487.34-.225.61-.437.886-.642.274-.208.554-.412.858-.677.24-.205.484-.463.798-.74.234-.22.399-.564.692-.846l.782-.746c.294-.294.563-.522.776-.749.279-.287.615-.44.854-.683.232-.247.437-.52.707-.815.215-.228.478-.464.747-.78l.68-.828c.28-.347.462-.71.673-.982.298-.384.49-.73.669-.979.223-.262.527-.508.829-.866.222-.264.413-.614.708-.963.25-.303.472-.568.668-.805.266-.303.544-.509.75-.726.264-.283.534-.478.756-.715.229-.23.366-.553.636-.827.208-.218.55-.344.84-.616.22-.206.363-.554.662-.8.299-.253.654-.358.888-.546.308-.24.547-.479.777-.666.297-.238.592-.372.848-.566.255-.196.527-.36.849-.553.25-.148.442-.49.8-.654l.924-.427c.359-.137.704-.166.98-.27.364-.134.657-.292.939-.376.359-.11.697-.053 1.007-.102.31-.043.619-.117.99-.133.289-.023.608-.099.998-.1.297-.012.629.066 1.01.082.38.001.723-.097 1.025-.079.396.015.72.173 1.018.191l1.04.057c.327.025.656.078 1.042.122.304.036.666-.044 1.069.015.309.047.637.22 1.034.285.399.062.765-.005 1.078.041.412.055.748.167 1.06.201.402.04.735.116 1.079.137.344.021.68.105 1.09.111.32.01.679-.14 1.102-.158.322-.003.686.031 1.102-.01.415-.022.793.053 1.12.005.43-.056.764-.229 1.077-.303.4-.088.747-.155 1.08-.256.336-.09.74.005 1.138-.125.306-.112.634-.273 1.034-.434.3-.135.609-.344.985-.532.375-.189.689-.374.97-.54.372-.22.582-.55.838-.74.329-.24.65-.385.907-.619.256-.23.519-.456.81-.735l.826-.707c.233-.219.529-.424.834-.695.297-.282.518-.567.753-.78.312-.279.509-.576.745-.783.29-.274.535-.5.789-.738.25-.23.497-.467.776-.75.22-.223.603-.352.883-.66.21-.237.357-.579.62-.888l.688-.823c.257-.327.522-.552.704-.803.233-.32.308-.688.497-.964.192-.275.462-.487.695-.803.182-.247.285-.608.54-.924.202-.24.427-.504.683-.809.26-.3.544-.515.748-.747.273-.3.5-.554.706-.78.266-.288.566-.457.8-.688.236-.23.422-.509.706-.77.223-.206.54-.367.838-.63.226-.203.35-.575.642-.836.297-.255.588-.44.818-.638.31-.25.587-.438.822-.622.3-.238.645-.31.906-.498.26-.188.469-.454.793-.649.253-.157.544-.315.893-.49.267-.135.549-.322.902-.468.348-.153.612-.388.89-.499.366-.14.722-.125.99-.239.347-.112.625-.264.923-.367.294-.11.62-.093.979-.174.283-.068.607-.087.994-.102a6.16 6.16 0 0 1 1.003.02c.377.03.714-.013 1.006.048l.993.173c.352.11.662.21.96.304.305.08.643.062.999.19.28.093.56.267.909.438.267.125.594.217.912.425.323.2.512.514.726.704.289.24.616.344.814.55.25.263.42.527.622.75.174.244.436.42.65.706l.505.81c.145.243.097.598.238.916.16.36.263.696.357.992.105.43.084.788.138 1.058-.02.172-.127.218.829.25.918.03.823-.047.778-.256-.022-.337.08-.79-.03-1.345a8.635 8.635 0 0 0-.411-1.283c-.174-.409-.33-.768-.506-1.06-.228-.383-.27-.808-.467-1.093-.271-.342-.615-.538-.843-.819-.253-.256-.481-.54-.79-.837-.242-.229-.501-.5-.852-.774-.263-.22-.647-.315-1.011-.539-.36-.233-.662-.462-.966-.602-.396-.189-.725-.362-1.04-.465-.397-.134-.722-.295-1.07-.38-.343-.097-.691-.195-1.096-.307-.326-.059-.71-.009-1.136-.076-.327-.068-.705-.043-1.13-.078-.424-.039-.8-.118-1.137-.094a5.863 5.863 0 0 0-1.131.178c-.415.09-.77.13-1.113.252-.344.115-.655.328-1.05.453l-1.02.422c-.301.115-.682.15-1.065.318-.386.162-.663.416-.954.557-.384.187-.64.457-.915.611-.356.194-.696.306-.99.49-.293.18-.63.311-.96.545-.261.184-.55.395-.886.652-.25.205-.481.49-.794.757-.306.273-.676.403-.912.621-.311.284-.555.54-.78.763-.286.287-.421.63-.65.882-.228.253-.55.421-.812.721-.206.24-.336.592-.608.905-.204.24-.565.396-.83.703-.261.308-.41.644-.612.887-.267.317-.447.614-.643.855-.25.307-.426.596-.635.858l-.686.813c-.192.24-.367.543-.625.857-.196.241-.531.414-.783.72l-.684.797c-.257.313-.435.607-.628.844l-.675.802c-.212.251-.367.558-.631.841-.207.223-.482.431-.77.712-.221.21-.471.447-.757.716l-.796.67c-.3.264-.536.505-.767.698-.293.25-.601.383-.86.578-.257.197-.434.508-.756.715-.253.161-.51.384-.858.576-.263.15-.558.32-.902.498-.346.174-.701.217-.968.352-.361.15-.683.232-.954.346-.347.136-.62.322-.923.427-.3.113-.596.234-.962.33-.285.08-.613.116-1.002.168-.294.046-.632.022-1.012.04-.378.04-.714-.02-1.012-.028-.39.008-.72-.029-1.013-.055-.375-.023-.703.02-1.024-.024l-1.024-.143c-.295-.043-.624-.157-1.02-.217-.303-.048-.66-.009-1.052-.07-.393-.063-.72-.23-1.027-.28-.407-.063-.74-.178-1.048-.222-.396-.054-.754.055-1.093.015-.341-.036-.673-.103-1.077-.138-.316-.025-.662-.114-1.088-.134-.323-.02-.68-.144-1.102-.145-.421-.016-.788.108-1.118.128-.428.008-.801-.062-1.13-.023-.421.034-.738.321-1.081.387-.344.074-.694.122-1.086.255-.31.097-.663.181-1.068.322-.304.12-.673.184-1.066.336a24.49 24.49 0 0 0-1.02.453c-.39.18-.678.4-.956.562-.353.21-.647.396-.927.601-.282.201-.591.364-.916.608-.251.197-.494.465-.826.724-.255.196-.575.371-.89.636-.316.263-.631.447-.867.662-.308.286-.441.657-.664.874-.291.274-.663.383-.914.615-.246.235-.504.46-.787.742-.223.221-.365.563-.642.87-.211.235-.45.498-.708.808-.256.301-.535.523-.734.764-.254.314-.354.675-.543.917-.244.31-.45.567-.653.825-.16.19-.466.301-.665.544-.162.2-.205.523-.397.76-.252.314-.551.512-.748.75-.256.311-.504.546-.705.773-.246.298-.457.55-.667.802-.218.246-.378.542-.637.83-.202.226-.54.37-.82.656-.214.218-.306.606-.592.874-.284.271-.595.44-.815.651-.297.266-.571.462-.796.66-.284.257-.542.452-.795.655-.257.197-.487.427-.802.64l-.83.598c-.252.16-.486.415-.811.623-.321.217-.693.235-.946.392-.334.202-.618.365-.88.493-.333.163-.593.367-.887.484-.29.127-.567.292-.915.438-.278.087-.585.211-.961.317-.284.097-.612.151-.99.218-.377.072-.72-.039-1.012-.04-.385.002-.71.132-1.002.076-.372-.049-.667-.263-.971-.314l-.941-.244c-.277-.048-.561-.207-.913-.317-.271-.08-.633-.027-.968-.194-.337-.16-.571-.407-.808-.568-.32-.194-.635-.288-.875-.443-.293-.218-.518-.435-.77-.616-.251-.178-.561-.303-.84-.546-.224-.187-.41-.459-.661-.75-.192-.226-.33-.536-.54-.848" mask="url(#d)"/>
        </g>
        <path fill="#42969B" d="M128.032 43.163c-.037.013-.058.056-.086.066-.037.014-.049.08-.077.093-.035.016-.075 0-.106.013-.028.014-.043.07-.078.085-.027.012-.054.034-.09.048-.03.011-.074-.01-.11.002-.037.012-.036.12-.062.132-.037.02-.12-.117-.144-.097-.032.025-.007.194-.032.22-.027.025-.073-.01-.105.013-.024.02-.078-.03-.113-.013-.027.015-.068.002-.104.015-.037.013-.02.163-.049.173-.037.013-.078-.004-.107.005-.037.012-.062.038-.092.047-.032.01-.056.04-.092.051-.029.008-.082-.04-.119-.029-.029.01-.04.077-.078.09-.037.014-.115-.105-.143-.096-.037.013-.03.13-.06.14-.037.011-.072.01-.102.02-.03.008-.036.093-.072.104-.029.01-.125-.164-.164-.15-.028.007-.043.07-.079.084-.037.012-.076.003-.106.007-.04.006-.02.164-.052.163-.042-.004-.104-.084-.142-.093-.039-.009-.109-.113-.15-.116-.033-.003-.06.017-.1.023-.032.006-.068.004-.105.017-.036.013-.04.103-.068.115-.037.014-.063.042-.09.055-.034.017-.06.042-.088.06-.029.015-.09-.06-.125-.044-.026.014-.018.14-.055.154-.028.011-.08-.034-.116-.02-.037.012-.07.017-.1.028-.036.016-.029.135-.056.15-.034.016-.116-.119-.145-.102-.029.016-.007.177-.04.194-.027.014-.099-.089-.136-.075-.029.012-.077-.023-.114-.01-.036.013-.07.02-.097.031-.038.014-.072.018-.099.031-.034.017-.035.113-.064.13-.029.015-.042.075-.076.092-.027.012-.076-.024-.113-.009-.027.012-.02.136-.057.148-.036.013-.13-.152-.16-.146-.039.008-.059.051-.092.051-.039 0-.09-.049-.127-.054-.036-.005-.05.05-.09.05-.033 0-.054.038-.093.046-.03.004-.067.008-.102.022-.036.012-.036.112-.062.126-.035.018-.067.031-.09.05-.032.023-.074.001-.1.024-.023.004-.094-.116-.124-.107-.024.006-.028.077-.055.087-.037.011-.029.138-.057.148-.037.014-.109-.092-.138-.08-.036.012-.038.104-.068.115-.03.011-.085-.048-.12-.034-.028.011-.074-.019-.112-.007-.029.011-.025.123-.06.136-.038.013-.112-.096-.14-.087-.039.012-.04.107-.07.114-.037.01-.105-.087-.138-.08-.03.007-.023.13-.059.14-.03.007-.037.085-.075.098-.029.007-.102-.097-.139-.084-.036.012-.065.036-.09.052-.035.021-.078 0-.102.025-.028.031-.04.094-.063.127-.022.033-.042.076-.07.107-.025.025-.03.107-.066.128-.026.016-.08-.035-.117-.022-.036.012-.08-.009-.11-.005-.04.004-.03.134-.065.127-.044-.008-.126-.146-.166-.16-.039-.015-.035.094-.079.086-.033-.006-.075-.024-.115-.019-.03.004-.117-.139-.154-.126-.037.014-.01.187-.039.2-.038.014-.104-.075-.13-.06-.035.014-.087-.037-.117-.02-.029.015.008.217-.026.233a1.298 1.298 0 0 1-.097.041c-.027.01-.127-.172-.164-.16-.036.014-.005.202-.034.213-.037.015-.082-.013-.109-.002-.035.016-.06.042-.09.056-.029.015-.074-.015-.109 0-.028.012-.045.064-.08.078-.03.011-.072-.005-.109.008-.036.013-.08-.01-.107.003-.036.018-.028.142-.053.162-.03.024-.09-.045-.115-.02-.026.027-.044.072-.076.096-.025.02-.093-.072-.128-.054-.028.015-.039.082-.078.095-.035.014-.07.015-.099.025-.037.012-.077.001-.106.01-.036.012-.028.132-.058.142-.03.01-.106-.102-.142-.09-.028.01-.046.06-.084.072-.028.01-.069-.007-.106.007-.037.013-.048.084-.076.094-.038.013-.067.032-.095.041-.036.012-.093-.05-.124-.04-.03.008-.026.125-.06.137-.029.008-.068 0-.106.011-.028.01-.04.077-.077.09-.036.013-.1-.064-.13-.059-.04.005-.067.034-.099.031-.04-.003-.084-.026-.12-.035-.039-.009-.109-.112-.15-.116-.034-.002-.028.117-.067.123-.03.005-.05.05-.088.063-.036.013-.1-.07-.13-.06-.036.015-.03.133-.057.147-.034.016-.059.046-.087.062-.028.017-.073-.012-.107.005-.028.014-.102-.097-.139-.082-.027.012.005.205-.032.218-.037.013-.093-.044-.12-.032-.039.013-.107-.082-.134-.069-.034.018-.038.104-.067.121-.029.016-.023.13-.057.148-.027.014-.096-.083-.133-.067-.028.011-.019.141-.055.154-.036.014-.108-.088-.137-.077-.036.014-.075.007-.102.02-.034.016-.07.01-.1.024-.029.015-.062.02-.096.037-.028.013-.03.107-.067.122-.028.011-.04.076-.078.09-.036.01-.054.062-.084.068-.039.008-.09-.036-.122-.036-.04 0-.059.046-.094.041-.036-.004-.114-.13-.155-.13-.03 0-.04.072-.08.08-.03.006-.096-.078-.132-.065-.032.01-.045.066-.07.08-.03.013-.077-.024-.1-.008-.03.02-.045.066-.067.087-.027.023-.042.062-.068.085-.023.02-.015.131-.045.15-.02-.003-.062-.1.211.678.276.777.264.725.283.721.03-.02.11.122.132.1.025-.024-.004-.192.02-.218.022-.02.092.091.12.07.024-.017.001-.168.031-.184.026-.012.105.121.137.11.036-.013.014-.178.044-.183.04-.008.086.024.118.025.041.001.078.01.115.016.037.006.053-.043.094-.042.031.001.106.11.145.103.03-.006.051-.05.088-.063.036-.013.096.056.124.043.036-.018.048-.085.073-.102.033-.02.05-.072.076-.093.025-.022.081.035.113.013.027-.017.016-.146.053-.163.027-.012.04-.08.075-.093.036-.014.095.05.124.041.037-.01.093.043.121.037.04-.007.051-.073.084-.076.033-.004.103.096.141.09.03-.007.04-.08.077-.09.028-.009.06-.027.096-.04.036-.012.027-.14.055-.155.036-.017.121.125.146.106.031-.026.03-.125.056-.152.025-.025.055-.038.087-.062.025-.02.022-.129.057-.148.028-.013.117.143.155.13.037-.013.071-.019.1-.03.036-.014.058-.053.086-.065.035-.013.013-.172.043-.185.03-.013.106.11.143.095.028-.01.022-.126.06-.14.028-.01.055-.037.091-.05.037-.013.124.13.154.126.04-.006.024-.152.057-.148.043.006.132.16.17.172.04.011.072.01.115.015.033.005.053-.04.093-.046.03-.005.027-.115.064-.128.036-.013.06-.05.085-.068.033-.02.082.014.105-.014.028-.034.031-.124.051-.16.023-.037.054-.046.083-.08.022-.026.04-.077.074-.099a.383.383 0 0 1 .093-.045c.037-.014.125.138.158.136.041-.004.084.02.12.028.043.011.068-.014.11.004.04.018.048-.057.093-.045.034.007.107.116.148.113.032-.003.06-.03.095-.043.036-.013.026-.14.054-.156.035-.022.092.038.114.012.028-.033.065-.029.087-.064.021-.035.014-.155.042-.189.022-.025.032-.098.067-.12.027-.016.116.134.153.12.036-.01.051-.07.081-.077.04-.008.085.021.116.02.04-.002.074-.004.11 0 .035.001.084.045.124.043.032 0 .028-.11.067-.12.03-.007.038-.085.075-.098.036-.013.082.016.111.007.038-.013.097.054.126.046.037-.01.048-.075.08-.083.032-.007.072.01.11 0 .028-.009.063-.008.101-.02.03-.01.031-.108.068-.12.036-.014.116.11.142.096.034-.02.01-.195.032-.218.032-.029.117.114.14.084.025-.03.005-.183.035-.21.024-.023.08.034.115.014.027-.015.018-.139.055-.153.036-.012.081.012.111.005.04-.009.074-.01.105-.013.04-.003.07-.013.105-.013.035.001.12.144.16.141.03-.002-.003-.197.036-.206.03-.007.088.057.125.043.036-.012.092.041.121.037.04-.009.067-.03.1-.03.04-.002.085.033.121.037.036.004.066-.007.106-.008.032 0 .033-.096.072-.105.031-.006.104.1.14.087.034-.013.02-.15.046-.166.034-.02.048-.08.07-.103.027.001.118.174.153.172.027-.002.063.016.096.01.026-.007.056-.009.087-.018.036-.014.038-.11.067-.122.037-.014.092.045.12.033.035-.017.042-.095.07-.11.03-.015.033-.1.067-.118.028-.014.11.115.145.101.028-.012.055-.039.091-.052.037-.014.074-.01.101-.023.035-.018.024-.154.05-.17.032-.022.048-.074.075-.095.027-.022.048-.06.08-.08.027-.018.058-.028.094-.044.027-.013.111.122.15.11.035-.014.014-.177.041-.184.04-.01.094.043.124.038.04-.008.085.031.12.027.032-.005.023-.128.061-.136.03-.006.072.017.111.006.03-.008.056-.033.092-.046.037-.013.124.132.152.118.036-.018.032-.128.056-.148.033-.025.077.006.103-.019.025-.027.005-.182.036-.208.025-.019.103.103.14.084a.804.804 0 0 1 .094-.04c.036-.012.075-.007.103-.018.037-.014.015-.179.043-.19.035-.013.071-.009.1-.022.031-.013.05-.054.085-.067.03-.012.057-.032.094-.045.03-.01.086.05.123.037.036-.013.102.071.133.067.04-.006.07-.02.104-.016.042.005.046-.079.085-.067.04.011.11.115.152.12.033.005.016-.143.055-.149.032-.004.084.042.121.03.037-.015.085.021.111.003.034-.02.072-.015.095-.04.028-.035.022-.148.044-.185.021-.037.047-.057.077-.09.022-.028.063-.013.097-.037.026-.015.043-.07.08-.084.037-.01.108.09.14.087.04-.003.071-.014.107-.005.045.01.057-.05.097-.033.041.02.051-.05.096-.04.034.008.108.118.15.115.031-.002.023-.127.06-.14.036-.014.116.112.142.095.035-.022.048-.085.071-.11.028-.034.06-.042.082-.077.022-.035.02-.139.05-.17.021-.027.08.04.115.017a.405.405 0 0 1 .095-.04c.036-.013.071-.017.101-.023.04-.01.025-.149.056-.15.04-.002.084.024.12.027.034.002.083.042.122.04.031 0 .075.021.114.012.03-.007.038-.084.075-.098.037-.012.058-.054.086-.063.038-.012.137.166.164.158.04-.01.045-.09.077-.097.032-.007.03-.11.066-.12.03-.01.073.014.111.002.03-.009.091.067.128.053.036-.013.033-.124.06-.139.035-.02.101.066.125.043.03-.028.052-.065.075-.095.024-.03.001-.193.031-.22.025-.024.114.13.15.108.025-.014.016-.142.052-.156.038-.013.043-.097.074-.104.04-.009.13.145.16.143.04-.004.075.002.11.002.033.001.068-.003.107-.006.03-.003.051-.046.09-.055.03-.007.017-.145.053-.158.037-.012.078.002.11-.004.038-.008.08.012.112.012.04 0 .118.124.154.128.035.004.058-.03.098-.032.031 0 .082.043.121.035.03-.006.061-.018.1-.03.04-.015.045-.109.076-.127.041-.026.053-.103.075-.13.034-.007.096.053.14.043.033-.008.041-.1.083-.115.037-.013.06-.048.087-.059.04-.013.094.046.123.036.036-.013.086.04.118.028.031-.009.017-.143.052-.156.03-.01.106.108.144.095.028-.01.01-.163.046-.176.037-.013.122.127.15.114.035-.016.053-.068.078-.085.034-.02.077.004.104-.017.026-.022.057-.034.09-.056.025-.016 0-.192.035-.209.027-.014.064-.01.1-.023.038-.013.102.068.131.06.038-.01.038-.11.068-.117.038-.008.105.086.138.082.034-.004.068-.005.105-.012.03-.005.051-.046.09-.057.028-.009.091.064.127.052.036-.014.027-.14.053-.155.038-.018.107.078.131.06.032-.027.048-.078.074-.104.025-.026.054-.04.084-.065.027-.02.011-.162.047-.18.028-.015.1.085.135.072.037-.012.027-.14.056-.152.037-.014.09.03.116.02.035-.015.074 0 .104-.014.031-.012.076.018.111.004.028-.01.002-.184.04-.198.028-.01.074.018.111.004.036-.01.113.106.145.102.04-.006.032-.127.065-.122.043.005.07-.016.11-.004.037.011.136.196.18.202.032.004.057-.027.097-.033.03-.004.05-.055.085-.067.037-.013.075-.006.1-.023.036-.022.02-.169.041-.195.03-.034.082.02.104-.017.021-.037.04-.083.068-.116.023-.027.058-.027.092-.049.026-.017.073.014.11.001.037-.013.052-.07.083-.074.041-.003.055-.063.09-.055.045.011.078.01.12.028.04.017.075.018.12.03.034.01.131.184.172.182.032-.003.028-.119.064-.13.036-.014.073-.013.1-.03.034-.02.086.031.11.004.03-.032.002-.207.023-.242.023-.035.078.026.108-.006.022-.026.006-.175.04-.196.026-.017.062-.018.098-.03.038-.013.094.047.123.04.04-.008.07-.028.1-.029.04-.003.103.078.138.08.035.003.048-.059.088-.06.031-.003.103.102.142.095.03-.007.002-.188.04-.202.035-.012.084.024.114.014.037-.012.075-.006.103-.014.037-.009.107.093.14.086.032-.007.024-.128.061-.137.03-.008.07.003.106-.009.03-.01.06-.026.095-.039.038-.013.04-.11.067-.124.034-.02.112.1.136.077.03-.028.034-.115.058-.146.024-.03.064-.012.095-.042.023-.02.055-.034.09-.054.026-.015.068.001.104-.012.036-.014.058-.056.087-.062a.67.67 0 0 1 .104-.018c.04-.003.083.021.117.021.035 0 .013-.159.052-.163.031-.003.075.023.114.013.03-.007.045-.066.081-.079.037-.013.134.161.164.155.04-.008.042-.1.073-.1.041 0 .097.06.133.064.035.004.034-.097.074-.099.031 0 .054-.037.093-.044.03-.007.106.111.144.097.042-.013.048-.112.078-.13a.321.321 0 0 0 .093-.085c.028.022.07.124-.25-.777-.304-.867-.279-.777-.285-.739-.032 0-.092-.05-.137-.04-.035.008-.043.095-.085.111-.037.014-.053.07-.08.08-.04.013-.125-.134-.154-.123-.036.013-.017.162-.048.174-.03.011-.078-.026-.113-.014-.028.011-.087-.056-.124-.043-.028.01-.029.111-.066.123-.036.013-.096-.053-.124-.044-.038.012-.077.007-.105.015-.036.01-.072.005-.104.013-.032.007-.07-.003-.107.007-.029.007-.026.117-.063.128-.03.01-.057.033-.094.046-.036.013-.102-.069-.128-.053-.034.02-.045.091-.068.116a.566.566 0 0 0-.076.095c-.023.033-.01.162-.04.193-.024.024-.048.054-.085.074-.025.016-.105-.108-.14-.096-.038.014-.046.092-.077.095-.04.005-.04.105-.075.1-.043-.01-.1-.075-.14-.09-.04-.015-.094-.07-.137-.078a.361.361 0 0 0-.109 0c-.03.004-.042.074-.079.087-.036.011-.123-.13-.15-.119-.038.014-.072.02-.098.033-.036.015-.02.157-.049.172-.029.015-.097-.08-.132-.064-.027.013-.01.16-.048.175-.027.011-.116-.139-.153-.126-.036.013-.035.118-.064.13-.037.014-.053.066-.08.078-.036.016-.052.068-.08.083-.03.014-.07 0-.104.016-.029.011-.042.072-.079.087-.029.01-.11-.12-.147-.106-.036.014-.07.017-.098.03-.036.02-.044.093-.07.113-.03.025-.058.046-.084.071-.025.025-.025.123-.057.147-.025.02-.077-.027-.113-.008-.026.013-.063.012-.099.026-.038.013-.08-.008-.109.002-.037.013-.054.068-.082.078-.036.012-.089-.04-.12-.03-.03.008-.013.157-.049.17-.029.008-.053.04-.092.052-.027.01-.066.003-.102.016-.037.013-.109-.092-.139-.082-.037.013-.085-.023-.114-.015-.036.012-.03.123-.063.132-.03.01-.039.084-.075.095-.029.01-.069-.004-.106.01-.029.01-.09-.063-.127-.05-.036.013-.093-.045-.123-.04-.04.006-.079-.004-.112-.007-.042-.003-.046.081-.083.072-.04-.008-.069.003-.11 0-.033-.005-.084-.047-.123-.04-.03.004-.03.108-.067.12-.036.013-.106-.08-.134-.07-.037.016-.087-.027-.114-.015-.035.018-.01.186-.038.202-.03.016-.064.015-.098.032-.027.014-.072-.012-.108.003-.029.012-.09-.065-.128-.05-.038.012-.029.136-.057.147-.036.016-.106-.078-.132-.064-.034.018.004.224-.024.24-.03.017-.059.03-.093.047-.027.014-.059.024-.096.04-.028.011-.084-.046-.12-.033-.037.013-.078 0-.105.011-.037.014-.059.053-.086.066-.035.017-.06.042-.089.057-.029.015-.07 0-.104.017-.027.013-.037.085-.074.1-.028.012-.089-.06-.126-.047-.036.013-.096-.055-.126-.049-.039.008-.007.198-.039.198-.04 0-.134-.167-.169-.17-.036-.006-.08-.033-.12-.033-.03 0-.022.125-.062.133-.03.006-.06.02-.097.032-.036.012-.09-.04-.117-.027-.036.018-.016.171-.04.19-.033.023-.067.024-.092.047-.025.004-.105-.143-.134-.135-.024.005.007.174-.02.185-.039.013-.105-.075-.133-.064-.037.013-.084-.02-.113-.01-.035.014-.059.041-.089.053-.03.011-.034.101-.069.115-.028.01-.107-.113-.144-.1-.029.01.003.201-.034.214-.037.013-.099-.064-.128-.055-.04.012-.08-.007-.11 0-.037.01-.067.02-.099.027-.032.008-.056.036-.093.046-.029.008-.06.02-.098.031-.029.01-.03.104-.068.117-.036.013-.114-.103-.14-.088-.035.021-.058.054-.082.078-.029.032-.044.088-.066.122-.023.033-.034.102-.063.133-.022.024-.039.078-.074.1-.026.016-.045.062-.082.075-.036.013-.11-.096-.142-.092-.04.004-.042.102-.075.095-.044-.008-.14-.182-.18-.196-.039-.015-.074-.019-.118-.027-.033-.005-.073-.019-.114-.015-.03.004-.004.181-.04.194-.037.013-.12-.118-.147-.106-.038.014-.045.091-.073.105-.035.016-.077-.008-.106.007-.029.016-.01.164-.046.18-.027.013-.076-.025-.112-.009-.029.011-.105-.103-.14-.09M132.26 48.09c-.042.014-.07.057-.102.067-.043.015-.062.082-.093.095-.041.016-.085-.001-.12.014-.035.013-.055.07-.096.086-.032.01-.066.035-.11.05-.031.01-.08-.012-.122 0-.041.014-.048.122-.08.136-.042.019-.125-.118-.154-.098-.038.025-.023.197-.054.222-.03.027-.081-.01-.12.015-.028.019-.084-.03-.126-.012-.031.015-.076 0-.12.014-.041.014-.034.166-.067.176-.043.012-.09-.004-.121.006-.042.01-.074.039-.11.048-.035.01-.064.039-.106.05-.033.01-.09-.04-.133-.027-.033.01-.052.079-.095.092-.042.013-.12-.107-.153-.096-.043.013-.046.132-.08.14l-.116.02c-.036.01-.048.096-.09.108-.033.009-.128-.167-.171-.154-.033.01-.055.073-.097.087-.042.013-.086.003-.121.008-.045.007-.035.168-.071.165-.047-.003-.111-.084-.153-.093-.041-.01-.113-.114-.16-.117-.037-.003-.07.019-.115.024-.035.005-.076.004-.118.018-.043.013-.055.104-.087.116-.043.016-.074.043-.106.057-.04.017-.072.043-.105.059-.033.017-.098-.06-.137-.043-.031.014-.032.14-.074.157-.033.01-.088-.034-.13-.021a3.484 3.484 0 0 1-.114.03c-.043.016-.045.137-.076.15-.041.018-.122-.117-.155-.101-.035.017-.023.18-.063.198-.031.014-.103-.091-.146-.076-.033.012-.084-.023-.126-.008a2.726 2.726 0 0 0-.228.062c-.04.018-.05.115-.083.13-.033.017-.053.079-.094.096-.031.012-.083-.025-.127-.01-.031.013-.033.139-.075.152-.043.013-.136-.154-.17-.148-.044.009-.07.052-.105.052-.046 0-.1-.05-.14-.054-.04-.005-.061.05-.107.05-.035 0-.064.04-.108.047-.035.007-.074.01-.116.023-.042.014-.051.115-.082.129a.644.644 0 0 0-.105.05c-.038.024-.083.003-.114.026-.027.004-.096-.117-.132-.11-.027.007-.037.08-.07.089-.041.014-.043.14-.076.152-.043.014-.115-.093-.147-.082-.042.013-.052.106-.087.118-.036.012-.092-.048-.133-.034-.033.012-.082-.02-.125-.006-.033.01-.04.124-.081.138-.042.012-.116-.098-.15-.088-.045.012-.054.108-.088.116-.043.01-.111-.088-.147-.081-.036.008-.038.13-.08.142-.033.007-.05.087-.093.099-.033.01-.106-.098-.148-.084-.043.013-.075.037-.107.054-.041.02-.09 0-.115.025-.036.032-.056.095-.084.129-.028.034-.054.078-.09.11-.028.025-.043.108-.084.129-.03.017-.087-.035-.13-.022-.042.014-.09-.008-.124-.004-.046.005-.046.136-.084.129-.048-.008-.13-.148-.173-.162-.043-.015-.047.097-.095.088-.037-.006-.083-.024-.13-.02-.034.005-.118-.14-.16-.126-.043.013-.031.19-.062.202-.043.015-.11-.075-.142-.061-.04.016-.094-.034-.128-.02-.034.017-.011.222-.052.239l-.11.04c-.033.012-.13-.173-.171-.16-.043.013-.026.206-.06.216-.042.015-.09-.013-.122-.001-.041.016-.071.042-.105.057-.036.014-.082-.016-.123 0-.033.013-.056.065-.1.08-.032.01-.078-.006-.12.008-.042.013-.09-.011-.122.004-.041.018-.043.144-.074.164-.038.025-.097-.045-.128-.02-.031.028-.056.074-.093.099-.03.019-.098-.073-.14-.055-.032.015-.052.083-.095.097l-.115.025c-.043.013-.086 0-.12.01-.041.013-.043.136-.08.147-.034.008-.107-.105-.15-.093-.033.01-.056.06-.1.074-.033.01-.078-.006-.12.008-.043.012-.063.085-.095.095l-.11.042c-.042.012-.1-.051-.136-.042-.036.01-.04.128-.081.14-.032.01-.075 0-.12.013-.032.01-.052.079-.094.093-.043.012-.106-.067-.141-.062-.045.007-.077.036-.114.033-.047-.004-.092-.026-.133-.036-.043-.01-.111-.112-.158-.116-.036-.003-.04.118-.086.125-.034.005-.06.05-.103.063-.042.014-.11-.071-.141-.06-.043.016-.047.136-.078.149-.041.018-.07.048-.104.065-.034.016-.082-.013-.123.005-.03.013-.103-.1-.146-.083-.032.01-.015.209-.057.22-.043.015-.1-.043-.132-.031-.043.016-.112-.083-.144-.07-.04.018-.053.106-.086.124-.034.016-.038.133-.078.15-.032.015-.101-.084-.144-.068-.032.012-.033.144-.076.158-.042.014-.113-.09-.145-.078-.043.016-.085.007-.117.019-.041.018-.082.01-.116.027a3.603 3.603 0 0 0-.111.037c-.032.015-.044.108-.087.124-.032.012-.053.078-.096.09-.042.014-.067.065-.101.072-.045.008-.098-.037-.133-.036-.045 0-.07.047-.11.042-.04-.005-.117-.133-.162-.132-.035 0-.052.073-.097.08-.034.008-.1-.078-.143-.065-.037.01-.056.068-.086.08-.037.016-.084-.022-.111-.006-.035.02-.057.068-.084.09-.03.023-.053.063-.084.086-.027.02-.03.133-.065.152-.023-.002-.06-.102.172.69.233.79.225.738.247.733.034-.021.112.124.138.102.029-.025.014-.196.043-.22.027-.024.096.092.13.069.026-.017.017-.172.054-.186.028-.014.104.122.14.11.043-.013.035-.181.069-.187.045-.007.093.026.13.026.046 0 .088.01.128.016.04.005.064-.045.11-.044.035 0 .108.112.153.104.033-.006.062-.05.104-.064.043-.012.103.057.134.043.043-.016.063-.086.094-.103.039-.023.063-.073.095-.096.032-.021.088.035.127.014.03-.018.03-.15.073-.166.03-.014.053-.083.095-.096.042-.014.1.05.136.042.044-.012.099.043.132.037.043-.008.064-.074.1-.078.039-.005.107.098.15.09.036-.005.053-.08.097-.091l.11-.04c.043-.014.045-.142.078-.158.042-.02.125.127.154.106.038-.025.047-.127.077-.153.03-.026.066-.04.105-.064.029-.021.036-.131.078-.15.032-.014.12.144.162.13l.114-.03c.043-.014.07-.054.104-.066.04-.013.03-.176.066-.19.035-.012.11.112.152.098.033-.012.037-.13.08-.144.034-.011.066-.037.108-.051.043-.013.127.133.162.128.046-.006.04-.155.078-.151.047.006.133.163.175.175.042.01.08.009.128.015.037.004.063-.042.109-.048.035-.004.04-.117.084-.13.042-.013.07-.052.103-.07.04-.022.09.014.118-.013.035-.036.047-.126.074-.165.027-.037.064-.046.099-.081.028-.027.05-.078.092-.101a.713.713 0 0 1 .11-.047c.043-.013.13.143.165.139.047-.003.093.019.132.028.049.012.08-.015.124.003.045.018.06-.058.109-.046.038.009.11.117.158.114.035-.003.068-.03.11-.044.043-.012.045-.142.075-.16.04-.021.1.04.128.014.035-.034.075-.03.103-.066.028-.036.03-.158.066-.192.027-.026.045-.1.086-.122.03-.017.118.136.16.123.043-.014.064-.074.099-.08.045-.01.094.02.129.018l.123-.001c.039.002.092.047.137.045.035-.002.04-.114.086-.123.034-.006.05-.086.094-.1.042-.013.092.016.125.007.043-.012.103.054.137.046.043-.01.06-.077.098-.084.036-.007.08.008.122-.001.033-.01.074-.008.117-.021.035-.01.043-.11.086-.122.043-.014.12.112.154.097.042-.021.027-.2.056-.221.036-.03.12.116.15.085.029-.03.02-.186.056-.215.03-.022.088.035.129.015.032-.016.034-.142.076-.156.043-.012.09.012.125.005.045-.008.084-.01.12-.014.045-.003.08-.014.119-.013.039 0 .123.145.167.142.035-.002.014-.2.059-.21.035-.007.095.058.137.046.043-.014.1.04.135.035.045-.01.078-.032.113-.033.046-.001.096.036.135.04.04.003.075-.01.12-.01.036 0 .047-.098.092-.106.034-.007.107.1.149.087.04-.013.036-.153.067-.17.04-.018.06-.081.087-.103.03 0 .119.177.158.174.03-.001.07.015.108.008.029-.005.064-.006.1-.018.042-.014.052-.112.086-.122.043-.016.1.045.132.03.04-.016.055-.095.089-.11.035-.017.046-.104.086-.12.033-.014.113.116.156.1.032-.011.064-.04.106-.053.042-.012.084-.01.116-.024.042-.017.039-.154.07-.172.04-.021.062-.074.093-.097.033-.021.06-.06.099-.082.03-.017.067-.027.109-.044.033-.013.116.123.158.11.042-.014.032-.178.066-.186.044-.011.1.043.135.037.044-.007.094.032.132.028.037-.004.038-.13.08-.138.035-.006.082.017.126.005.034-.008.066-.033.108-.047.043-.014.129.134.16.119.043-.018.048-.131.078-.15.037-.027.086.006.117-.021.03-.026.02-.184.059-.21.029-.02.107.104.148.084.033-.013.07-.027.112-.041.043-.012.085-.008.118-.018.043-.015.03-.182.063-.193.04-.014.082-.01.117-.023.035-.014.06-.055.102-.07l.11-.045c.032-.011.09.05.134.038.042-.014.11.07.145.066.046-.006.08-.02.118-.016.048.005.06-.081.103-.07.042.013.114.117.16.123.038.004.03-.146.077-.152.035-.004.09.042.133.028.042-.011.092.022.125.004.04-.022.083-.014.11-.042.035-.035.038-.15.065-.186.028-.037.06-.06.095-.093.028-.026.072-.013.113-.035.03-.018.054-.073.096-.086.043-.013.115.089.152.087.045-.004.083-.016.12-.007.05.01.07-.051.115-.032.044.017.06-.054.11-.043.038.008.114.12.159.116.037-.003.038-.13.08-.143.043-.012.123.114.154.097.04-.022.059-.087.089-.113.035-.034.07-.041.098-.076.029-.038.035-.142.07-.175.027-.027.089.04.129.017.03-.016.068-.028.11-.042.043-.012.083-.015.117-.022.045-.01.04-.152.075-.153.046-.002.093.025.133.027.04.002.09.042.137.04.035-.001.082.02.127.012.034-.007.05-.086.093-.1.042-.013.069-.056.102-.063.044-.014.142.166.175.158.042-.011.056-.091.093-.1.036-.007.042-.112.085-.122.033-.008.08.016.124.003.034-.01.098.066.14.053.043-.013.048-.126.08-.142.04-.02.109.068.137.044.037-.03.065-.067.094-.098.029-.031.015-.195.053-.224.028-.023.117.132.158.11.032-.014.03-.144.074-.158.042-.013.056-.098.09-.106.045-.01.135.147.17.144.044-.004.085.002.124.002l.122-.007c.035-.003.06-.046.106-.056.034-.007.03-.147.073-.161.043-.012.088.003.123-.004.045-.008.09.012.127.01.045 0 .124.126.165.13.04.004.067-.032.113-.033.035 0 .09.043.135.035.034-.007.07-.02.113-.031.047-.016.062-.111.098-.13.046-.024.068-.104.095-.132.037-.006.103.055.155.044.037-.01.053-.102.102-.117.042-.013.07-.05.105-.06.043-.013.1.046.134.035.04-.012.097.039.132.029.034-.011.03-.146.072-.157.034-.011.11.107.155.093.032-.01.023-.165.065-.177.043-.014.129.127.16.114.043-.017.067-.07.097-.087.039-.022.086.004.118-.018.03-.022.067-.035.106-.056.03-.018.013-.196.055-.212.033-.014.075-.011.117-.024.043-.013.109.068.143.06.044-.012.052-.113.085-.12.044-.007.113.088.15.083l.12-.012c.035-.006.062-.048.106-.06.033-.007.098.066.14.052.043-.013.043-.141.074-.156.042-.02.113.079.142.059.039-.026.06-.08.09-.105.032-.026.066-.041.104-.066.029-.021.023-.164.064-.183.033-.015.106.086.149.073.042-.013.04-.143.074-.154.043-.015.098.03.13.019.04-.015.084-.001.119-.014.035-.013.084.017.125.003.032-.011.016-.187.06-.2.032-.011.083.018.125.005.043-.013.122.104.157.1.046-.006.046-.128.084-.124.047.006.079-.016.122-.005.043.012.142.198.189.203.037.005.069-.027.114-.033.035-.004.059-.056.102-.068.042-.014.085-.007.116-.024.04-.023.033-.171.06-.198.035-.034.092.02.119-.017.026-.038.05-.084.085-.12.027-.025.066-.026.107-.047.032-.018.082.012.125 0 .04-.014.065-.073.1-.076.047-.004.066-.065.106-.056.049.01.087.008.132.027.046.018.085.019.135.03.039.009.137.186.184.182.035-.003.038-.12.08-.132.043-.014.084-.013.115-.03.04-.022.098.03.125.004.035-.033.017-.21.044-.245.027-.036.087.027.122-.007.027-.026.019-.176.06-.197.03-.018.07-.02.114-.032.042-.013.1.046.137.039.044-.007.079-.027.115-.03.045-.001.11.079.15.08.039.003.058-.06.104-.061.035-.002.11.104.155.094.034-.007.016-.188.058-.202.043-.013.095.023.128.013.043-.012.086-.007.12-.015.043-.01.115.094.152.086.037-.008.036-.13.078-.14.034-.007.078.003.12-.01.034-.011.072-.024.113-.04.042-.012.05-.11.083-.124.04-.021.12.1.15.077.036-.028.046-.117.075-.148.029-.03.074-.013.109-.042.03-.023.066-.036.107-.056.032-.016.078 0 .12-.013.043-.014.068-.057.104-.063a.866.866 0 0 1 .118-.02c.045-.003.093.023.132.023.039 0 .025-.163.069-.166.035-.002.084.022.129.012.034-.008.055-.067.096-.08.043-.014.143.16.177.155.045-.008.055-.101.09-.102.046-.001.106.06.146.064.04.004.045-.097.09-.098.038-.001.065-.04.11-.048.034-.007.114.112.157.098.048-.015.062-.114.096-.132a.436.436 0 0 0 .113-.085c.029.02.07.124-.231-.784-.29-.872-.267-.782-.277-.744-.035 0-.098-.05-.153-.038-.038.008-.055.097-.103.114-.043.01-.064.068-.097.079-.043.013-.132-.134-.164-.123-.042.013-.032.164-.067.175-.035.012-.086-.026-.128-.012-.032.01-.094-.057-.137-.043-.034.01-.04.11-.083.125-.042.012-.105-.054-.138-.044-.044.01-.086.008-.12.015-.041.01-.082.006-.118.013-.038.008-.08-.002-.121.008-.035.008-.038.118-.083.13-.03.013-.07.03-.107.048-.043.012-.11-.071-.143-.054-.041.02-.056.093-.084.117a.83.83 0 0 0-.092.097c-.03.033-.024.164-.06.195-.027.025-.058.055-.098.076-.032.016-.114-.11-.156-.095-.043.013-.057.09-.094.095-.044.005-.052.106-.09.1-.048-.008-.11-.074-.153-.09-.044-.014-.101-.07-.15-.077a.47.47 0 0 0-.123 0c-.035.005-.053.076-.095.089-.043.013-.131-.131-.163-.12l-.113.034c-.04.017-.032.159-.068.175-.033.015-.103-.081-.143-.064-.032.013-.025.16-.068.177-.031.01-.123-.14-.164-.127-.043.014-.048.12-.081.132-.044.014-.065.067-.097.08-.041.015-.063.069-.097.084-.034.014-.078 0-.118.015-.032.013-.052.075-.095.089-.033.01-.116-.118-.158-.105-.043.015-.082.016-.114.03-.042.02-.058.095-.087.115-.037.026-.071.045-.1.072-.031.026-.038.124-.075.149-.03.02-.085-.027-.127-.008-.032.014-.073.014-.115.027-.042.013-.09-.007-.123.005-.043.01-.066.068-.098.077-.042.01-.1-.04-.134-.031-.036.01-.026.16-.068.172-.033.01-.063.04-.108.054-.032.01-.075.004-.117.019-.042.01-.117-.094-.15-.084-.044.013-.096-.023-.13-.014-.04.013-.043.124-.08.134-.035.008-.05.085-.092.096-.032.009-.077-.004-.12.01-.033.01-.098-.062-.141-.05-.043.014-.101-.045-.135-.04-.046.007-.09-.003-.126-.006-.047-.003-.06.082-.101.074-.042-.01-.076.005-.123 0-.037-.003-.092-.046-.137-.04-.035.005-.042.11-.084.123-.044.013-.114-.082-.146-.071-.043.016-.097-.027-.13-.013-.04.017-.023.186-.057.203-.033.016-.073.015-.113.033-.031.014-.08-.012-.122.004-.033.012-.1-.066-.142-.052-.041.013-.043.139-.074.152-.043.014-.113-.08-.144-.065-.04.018-.012.226-.046.242a1.613 1.613 0 0 1-.22.088c-.031.012-.091-.045-.133-.031-.043.013-.088-.001-.12.01-.043.015-.07.055-.102.069-.04.017-.071.042-.105.058-.034.015-.078 0-.118.017-.032.013-.05.086-.092.102-.032.01-.096-.06-.14-.047-.042.014-.102-.055-.137-.05-.045.01-.024.2-.06.2-.045 0-.138-.167-.18-.172-.038-.004-.084-.03-.13-.03-.037 0-.037.126-.08.134a.98.98 0 0 0-.114.033c-.041.013-.098-.04-.13-.026-.041.017-.031.173-.06.19-.038.026-.076.028-.106.05-.028.005-.108-.146-.141-.137-.03.007-.006.178-.038.188-.042.013-.112-.075-.145-.065-.043.014-.094-.018-.126-.008-.041.013-.071.042-.106.053-.034.012-.044.104-.086.117-.032.01-.113-.114-.155-.1-.033.01-.012.204-.054.217-.043.013-.11-.065-.142-.056-.044.013-.091-.007-.123 0-.043.012-.077.02-.114.029-.037.007-.066.036-.11.046l-.112.033c-.034.009-.044.106-.086.12-.042.012-.12-.106-.151-.09-.041.022-.07.054-.1.08-.035.03-.055.09-.084.123-.027.034-.045.103-.08.137-.028.023-.051.078-.092.099-.031.017-.056.065-.098.078-.042.013-.118-.097-.154-.094-.045.005-.054.104-.092.098-.048-.008-.143-.184-.187-.2-.043-.013-.083-.017-.131-.024-.038-.006-.082-.02-.13-.015-.034.003-.017.183-.06.196-.042.013-.124-.12-.157-.107-.043.014-.058.094-.09.107-.04.017-.087-.008-.12.008-.034.016-.027.165-.067.182-.031.013-.083-.024-.126-.01-.033.014-.11-.102-.152-.09M129.736 54.284c-.027.011-.04.05-.06.06-.028.01-.03.074-.05.084-.027.011-.059-.007-.08.004-.022.011-.028.064-.054.077-.02.01-.039.03-.067.04-.02.008-.055-.017-.084-.007-.026.01-.014.113-.034.125-.025.015-.102-.122-.12-.106-.022.023.014.188-.003.211-.017.024-.057-.016-.079.006-.017.017-.063-.035-.089-.02-.019.011-.05-.004-.079.005-.027.01.001.157-.019.165-.028.01-.06-.009-.082-.002-.027.01-.043.033-.067.041-.022.006-.037.034-.064.043-.02.007-.067-.045-.095-.035-.02.008-.022.073-.049.083-.027.011-.099-.108-.12-.1-.028.01-.01.123-.03.131-.029.007-.055.006-.078.012-.023.008-.017.09-.043.098-.02.007-.116-.166-.143-.156-.02.008-.025.067-.052.077-.026.011-.058 0-.08.002-.03.004.004.16-.02.154-.034-.006-.092-.087-.122-.097-.032-.01-.098-.116-.13-.12-.027-.005-.045.012-.075.016-.024.004-.052 0-.078.011-.027.01-.019.098-.04.108-.026.014-.043.038-.06.05-.025.016-.042.04-.063.054-.019.013-.076-.063-.1-.047-.02.012.004.134-.023.146-.02.01-.066-.036-.092-.025-.027.01-.052.017-.073.024-.026.014-.007.13-.024.142-.025.015-.106-.119-.125-.104-.022.015.017.171-.006.186-.019.013-.088-.09-.114-.078-.02.011-.063-.026-.089-.014a1.774 1.774 0 0 0-.072.026c-.027.012-.053.014-.073.026-.023.015-.01.107-.03.121-.02.014-.022.071-.047.086-.018.012-.06-.025-.088-.012-.019.01.004.13-.022.142-.026.012-.122-.15-.145-.146-.029.007-.038.048-.062.047-.03 0-.078-.05-.108-.055-.027-.005-.03.046-.062.045-.024 0-.035.036-.065.042-.02.005-.048.007-.074.02-.026.011-.01.107-.029.12-.025.015-.046.028-.063.045-.02.02-.056 0-.072.02-.017.004-.092-.113-.113-.106-.018.006-.01.074-.029.083-.027.011 0 .132-.02.141-.027.012-.1-.09-.12-.08-.026.01-.013.098-.034.11-.022.01-.074-.049-.1-.037-.019.01-.06-.02-.087-.009-.02.01.001.118-.025.13-.026.013-.102-.093-.122-.085-.028.012-.013.103-.034.11-.027.008-.096-.086-.12-.079-.023.007.003.123-.023.133-.02.007-.015.082-.04.094-.02.008-.096-.094-.122-.082-.026.011-.043.035-.062.05-.022.02-.058 0-.072.023-.017.03-.016.09-.028.12-.012.032-.019.073-.036.103-.014.023-.004.102-.028.122-.017.014-.068-.035-.093-.023-.027.012-.064-.009-.087-.006-.03.004 0 .128-.028.121-.034-.007-.124-.14-.157-.154-.033-.013-.01.09-.045.082-.027-.006-.062-.02-.094-.017-.022.004-.115-.132-.14-.119-.028.012.026.18.007.19-.026.015-.094-.07-.113-.058-.023.017-.073-.032-.092-.016-.02.014.045.208.023.223l-.065.04c-.02.01-.133-.164-.159-.15-.026.012.035.191.015.202-.026.014-.066-.013-.086 0-.024.014-.038.04-.058.053-.02.014-.06-.014-.084.001-.019.012-.023.061-.048.075-.02.011-.056-.005-.08.008-.028.013-.066-.01-.084.004-.025.018.005.136-.008.154-.02.024-.079-.04-.094-.017-.014.026-.019.07-.038.094-.016.02-.086-.067-.11-.049-.018.014-.013.08-.038.092-.026.014-.053.016-.074.026-.025.013-.058.003-.079.012-.025.012.007.126-.015.136-.022.01-.102-.094-.128-.082-.02.01-.023.058-.049.07-.02.011-.056-.004-.08.01-.027.013-.02.08-.04.09l-.064.042c-.026.012-.083-.046-.105-.037-.022.01.01.12-.017.132-.02.01-.054.001-.079.014-.019.01-.014.074-.039.087-.025.014-.092-.058-.115-.054-.03.007-.042.036-.068.035-.033-.002-.07-.023-.1-.03-.032-.006-.11-.1-.143-.103-.026-.002.006.111-.023.118-.023.006-.028.05-.053.063-.025.014-.095-.063-.114-.05-.025.014.007.126-.01.14-.023.018-.035.046-.054.063-.018.015-.059-.01-.082.01-.017.012-.1-.089-.126-.074-.018.012.052.194.027.207-.026.014-.082-.038-.102-.025-.024.016-.1-.073-.119-.06-.024.018-.005.1-.024.117-.017.016.015.125-.007.142-.018.014-.095-.074-.119-.058-.02.011.02.134-.006.148-.025.014-.105-.078-.123-.066-.026.016-.057.01-.075.024-.022.018-.052.013-.07.03-.019.015-.043.021-.065.038-.018.014.003.103-.022.12-.018.011-.013.073-.037.087-.025.014-.026.063-.048.071-.028.01-.078-.03-.102-.028-.033.002-.034.046-.063.044-.028-.003-.12-.116-.152-.114-.025.002-.014.07-.042.08-.022.007-.094-.068-.118-.055-.023.013-.018.066-.034.08-.02.015-.066-.018-.08 0-.017.02-.017.063-.029.085-.015.022-.016.06-.03.083-.013.02.021.123.004.142-.017 0-.074-.09.341.623l.353.6c.048.075.045.061.052.06.015-.02.116.108.127.087.012-.023-.055-.179-.043-.204.011-.02.094.08.11.06.013-.018-.044-.158-.024-.174.013-.013.11.108.131.096.024-.014-.036-.167-.015-.174.028-.009.072.02.097.02.031-.003.061.004.09.008.03.004.03-.043.061-.044.024 0 .106.1.136.09.02-.007.025-.049.05-.063.024-.013.086.048.104.035.023-.018.014-.082.027-.099.021-.02.021-.07.036-.092.014-.02.07.03.087.008.016-.018-.023-.139-.002-.156.02-.013.011-.078.036-.092.024-.014.084.044.103.035.027-.012.081.037.103.031.026-.008.02-.07.043-.075.024-.005.101.09.13.08.02-.007.01-.075.036-.087.018-.01.04-.024.062-.039.025-.013-.012-.133.004-.147.023-.019.122.113.136.094.017-.025-.006-.119.007-.144.012-.025.032-.037.05-.062.014-.02-.013-.123.01-.14.017-.015.122.13.147.116.024-.01.048-.02.067-.03.025-.015.032-.052.051-.064.023-.013-.03-.165-.01-.177.02-.013.106.1.13.086.018-.012-.013-.122.012-.135.02-.01.034-.035.058-.049.026-.013.123.122.146.117.03-.006-.016-.144.01-.14.034.003.135.15.168.16.031.008.056.008.09.012.026.004.031-.039.06-.046.021-.003-.005-.109.02-.123.025-.01.034-.047.05-.064.021-.02.065.012.074-.015.016-.032 0-.118.006-.153.01-.035.031-.044.045-.076.011-.027.014-.074.033-.096a.308.308 0 0 1 .063-.045c.023-.012.125.131.148.128.03-.004.068.017.096.025.035.01.05-.015.084.003.034.016.024-.056.061-.044.028.007.106.11.136.106.024-.002.037-.027.063-.04.025-.012-.008-.133.01-.148.021-.02.076.037.088.011.015-.03.042-.027.052-.06.01-.034-.02-.149-.006-.18.013-.024.006-.094.028-.114.016-.016.114.128.138.116.026-.013.026-.069.047-.075.028-.008.07.02.092.018a.564.564 0 0 1 .082 0c.027.002.073.044.104.042.022 0 0-.106.026-.115.02-.006.013-.08.038-.093.025-.012.065.015.085.006.026-.012.083.052.104.045.026-.01.022-.07.045-.078.023-.006.056.01.082 0 .021-.007.048-.005.075-.016.02-.008.003-.102.028-.114.024-.012.108.108.126.094.023-.019-.029-.186-.015-.207.018-.027.11.111.12.083.013-.029-.029-.174-.01-.2.012-.023.065.033.09.014.016-.013-.012-.133.013-.144.027-.012.065.011.085.006.03-.008.055-.009.077-.01.03-.004.051-.013.077-.012.027.001.116.141.145.138.021-.002-.035-.189-.008-.196.022-.007.076.055.102.042.025-.01.076.043.097.038.03-.007.046-.027.071-.027.03.001.071.036.097.041.03.005.05-.006.08-.005.024 0 .01-.09.038-.097.022-.005.094.098.12.087.024-.01-.01-.144.008-.158.022-.017.022-.076.035-.095.021.001.118.17.143.17.021 0 .051.016.074.01.02-.005.041-.005.063-.013.025-.012.013-.104.031-.114.026-.012.078.046.096.035.023-.015.016-.089.036-.104.02-.014.01-.096.032-.11.02-.012.1.114.125.101.02-.009.033-.036.06-.047.025-.01.054-.007.072-.019.024-.015-.005-.146.013-.16.021-.02.025-.069.043-.088.017-.02.027-.055.05-.073.016-.016.04-.024.064-.039.02-.01.102.123.127.113.026-.01-.013-.167.008-.174.027-.009.076.046.098.041.028-.005.07.035.094.032.024-.002 0-.12.027-.127.022-.004.057.02.084.011.022-.007.04-.029.065-.04.025-.01.111.134.13.121.024-.017.007-.122.022-.142.021-.02.06.011.075-.012.015-.024-.02-.175 0-.198.016-.017.091.104.116.088a.337.337 0 0 1 .066-.034c.026-.012.055-.004.075-.012.027-.01-.01-.17.008-.179.026-.012.053-.006.074-.016.022-.012.032-.049.057-.06l.064-.037c.021-.008.073.054.098.042.025-.008.086.077.108.075.031-.003.051-.016.077-.01.033.01.026-.072.056-.059.031.013.097.12.13.126.025.007-.006-.137.025-.14.022-.002.066.046.092.035.027-.01.067.026.084.012.024-.02.053-.01.067-.035.017-.03 0-.14.011-.174.013-.035.032-.053.05-.084.013-.025.045-.008.07-.027.016-.014.023-.065.048-.075.028-.01.093.094.117.094.03 0 .051-.009.08.003.034.013.038-.044.07-.024.033.022.033-.047.067-.032.028.012.095.123.125.123.024.001.004-.12.031-.13.026-.012.1.117.117.104.024-.019.027-.079.042-.103.017-.029.041-.034.055-.067.012-.032.001-.132.02-.162.014-.023.065.046.088.027.02-.014.042-.022.067-.032.027-.009.053-.009.075-.014.03-.005.003-.142.028-.14.03 0 .065.03.092.035.027.006.066.048.096.05.024.001.058.026.087.022.022-.004.022-.079.048-.088.027-.009.04-.048.06-.054.028-.007.116.174.137.17.028-.008.026-.084.05-.088.023-.004.012-.105.04-.11.02-.006.055.022.082.013.022-.006.074.073.101.064.026-.01.015-.118.034-.13.023-.016.08.074.097.054.02-.024.033-.059.05-.086.014-.027-.015-.186.005-.212.017-.019.095.138.12.121.02-.01.001-.137.03-.146.025-.009.024-.09.046-.095.03-.005.107.153.13.154.03 0 .057.01.083.014l.08.005c.023.001.035-.038.064-.043.022-.003.003-.139.03-.148.027-.007.06.012.08.01.03-.005.063.02.085.023.032.004.098.133.125.141.027.007.041-.024.071-.02.023.003.064.051.093.047.022-.003.045-.01.072-.019.03-.01.03-.1.05-.114.03-.02.035-.095.048-.119.026-.002.075.063.108.058.023-.005.025-.092.056-.102.026-.009.042-.04.062-.048.027-.009.072.055.093.05.025-.01.067.046.09.04.021-.006.005-.137.032-.145.02-.006.083.117.11.11.022-.007 0-.158.028-.165.026-.008.096.138.116.128.026-.01.037-.058.055-.072.024-.016.057.014.077-.004.02-.017.041-.026.064-.043.02-.012-.009-.186.018-.199.02-.009.048 0 .075-.009.026-.008.078.08.098.075.03-.006.026-.104.047-.106.03-.002.082.098.107.098l.077.002c.021-.002.036-.039.064-.045.022-.005.07.074.096.066.027-.008.017-.133.036-.143.027-.014.081.09.1.074.022-.02.032-.069.051-.089.018-.023.04-.032.062-.052.018-.015.003-.156.028-.169.022-.01.078.098.104.09.027-.007.018-.134.038-.14.026-.008.065.041.087.036.026-.009.056.01.078.002.022-.009.056.027.082.018.021-.007-.002-.179.025-.186.022-.007.057.028.084.02.027-.007.086.118.11.118.03 0 .021-.118.047-.109.031.012.05-.006.08.011.028.016.104.212.136.222.024.01.043-.017.072-.017.022 0 .035-.047.062-.054.027-.008.056.006.075-.007.025-.015.012-.16.03-.182.02-.03.058.031.075 0 .017-.034.03-.075.051-.104.016-.02.043-.017.068-.033.02-.012.054.025.081.018.028-.006.04-.06.062-.058.03.003.041-.054.067-.04.032.018.058.021.088.045.03.024.056.031.09.048.024.015.096.201.126.204.023.003.02-.11.048-.117.026-.006.052 0 .073-.01.025-.017.064.041.081.02.021-.028.003-.202.02-.233.016-.03.057.04.08.011.015-.022.003-.169.03-.185.02-.012.047-.006.074-.013.026-.006.067.062.091.061.03-.002.051-.015.074-.01.03.004.074.092.1.101.026.007.037-.05.066-.046.023.004.074.12.104.118.021-.002.005-.182.032-.189.027-.005.062.038.084.033.028-.005.055.007.077.005.027-.003.077.108.101.107.023-.002.02-.12.047-.124.022-.002.051.015.08.01l.07-.022c.027-.006.032-.098.052-.109.026-.013.08.117.098.1.023-.023.03-.108.046-.133.02-.025.048 0 .07-.024.02-.017.043-.023.07-.036.02-.01.05.013.077.007.027-.006.045-.043.066-.044.03-.002.055 0 .077.003.03.004.06.036.085.043.026.007.016-.153.045-.15.023.003.054.036.082.034.023 0 .037-.056.064-.062.028-.006.092.182.114.182.027 0 .035-.09.058-.084.03.007.068.077.093.088.027.01.031-.088.06-.08.023.003.041-.029.068-.03.024 0 .075.13.102.123.031-.007.04-.1.062-.113a.224.224 0 0 0 .074-.063c.018.025.044.132-.142-.806-.178-.9-.165-.81-.17-.774-.025-.004-.065-.064-.1-.063-.027.002-.039.087-.072.093-.027.006-.043.057-.064.062-.029.006-.086-.152-.108-.147-.028.006-.02.155-.044.16-.024.006-.058-.04-.085-.033-.022.005-.063-.072-.09-.066-.024.005-.029.103-.057.11-.028.005-.069-.07-.092-.068-.028.005-.056-.007-.079-.004-.027.003-.054-.008-.079-.006-.024.001-.052-.016-.08-.014-.022.003-.025.11-.054.114-.022.004-.044.022-.072.027-.028.006-.074-.085-.095-.075-.026.014-.038.081-.055.101a.463.463 0 0 0-.06.08c-.019.027-.017.156-.039.182-.019.02-.038.044-.064.057-.02.012-.078-.123-.105-.116-.027.006-.036.081-.06.08-.03-.004-.034.094-.059.082-.032-.016-.073-.09-.104-.11-.028-.02-.067-.084-.099-.099a.246.246 0 0 0-.083-.018c-.024 0-.033.065-.062.071-.028.007-.09-.148-.11-.14-.029.007-.055.007-.076.015-.027.01-.019.15-.04.16-.023.01-.073-.095-.099-.085-.02.008-.012.154-.04.162-.02.007-.086-.154-.113-.148-.03.007-.03.11-.05.116-.029.008-.043.057-.064.064-.027.01-.04.06-.062.07-.022.008-.052-.012-.078-.002-.022.008-.032.064-.06.073-.022.006-.082-.132-.11-.125-.027.008-.055.005-.075.015-.029.012-.034.084-.054.1-.024.02-.045.032-.064.055-.02.02-.02.116-.044.136-.019.014-.058-.039-.085-.027-.02.01-.049.003-.077.01-.027.008-.06-.018-.082-.014-.028.007-.04.06-.062.064-.027.006-.067-.054-.09-.049-.024.005-.012.152-.039.158-.02.005-.04.032-.068.037-.022.006-.05-.006-.078.001-.028.008-.083-.104-.106-.098-.027.007-.064-.035-.086-.032-.027.008-.023.117-.047.122-.023.003-.029.076-.056.082-.022.005-.052-.013-.08-.006-.022.006-.07-.074-.097-.066-.027.008-.07-.056-.094-.055-.03.001-.06-.015-.085-.022-.032-.009-.034.072-.063.06-.029-.015-.052-.007-.083-.017-.026-.007-.065-.057-.095-.057-.023.002-.023.103-.049.111-.027.008-.082-.094-.103-.087-.028.01-.068-.039-.088-.029-.026.011-.004.178-.026.19-.02.012-.048.006-.074.018-.019.01-.056-.022-.082-.01-.02.007-.07-.075-.099-.068-.027.01-.017.132-.039.14-.027.01-.082-.089-.102-.079-.027.013.01.22-.012.231l-.069.035a.699.699 0 0 0-.07.026c-.023.008-.067-.054-.094-.046-.028.01-.06-.01-.08-.002-.029.01-.043.045-.064.055-.026.012-.045.033-.066.045-.022.011-.052-.009-.078.003-.02.01-.026.08-.053.09-.02.006-.07-.07-.098-.062-.027.008-.076-.064-.098-.062-.03.001.002.191-.022.187-.03-.005-.109-.178-.139-.186-.026-.01-.06-.04-.09-.044-.025-.003-.013.12-.042.123-.024.002-.046.011-.075.02-.026.01-.07-.049-.089-.038-.027.014-.004.165-.023.181-.022.018-.049.016-.066.037-.019.001-.088-.152-.11-.148-.018.004.014.172-.006.18-.028.008-.083-.084-.105-.077-.027.01-.065-.028-.086-.02-.027.008-.044.033-.067.04-.023.01-.02.096-.046.106-.02.007-.088-.122-.116-.112-.022.006.013.196-.014.205-.027.008-.08-.074-.102-.068-.028.008-.062-.015-.084-.01l-.075.015c-.023.004-.04.028-.068.035l-.073.022c-.022.007-.017.098-.044.108-.028.01-.094-.11-.114-.097-.025.016-.04.046-.057.068-.02.027-.028.082-.042.112-.016.03-.019.096-.038.124-.017.022-.026.072-.05.09-.02.013-.03.058-.058.066-.027.01-.092-.102-.115-.102-.03.001-.024.096-.05.086-.035-.012-.122-.189-.153-.206-.03-.018-.06-.025-.093-.036-.027-.009-.059-.026-.09-.025-.023 0 .011.175-.016.184-.028.01-.1-.125-.12-.116-.029.011-.029.086-.049.096-.026.012-.06-.014-.08-.002-.023.014.004.16-.02.172-.02.011-.06-.029-.089-.017-.02.007-.09-.108-.115-.098M134.484 61.151c-.03.011-.048.052-.072.061-.032.011-.039.077-.063.087-.029.013-.064-.005-.09.007-.025.012-.035.066-.065.08-.023.01-.046.03-.078.041-.025.01-.063-.014-.094-.005-.03.011-.025.117-.049.128-.03.017-.107-.122-.128-.103-.026.022.002.19-.019.214-.02.024-.063-.015-.09.008-.022.017-.068-.035-.098-.018-.023.012-.058-.004-.09.008-.03.01-.01.158-.035.167-.032.011-.068-.009-.092 0-.032.01-.052.033-.08.04-.025.008-.045.035-.076.045-.024.008-.072-.045-.104-.034-.025.007-.032.073-.064.084-.03.01-.103-.11-.128-.102-.032.011-.022.126-.047.134-.03.01-.06.006-.086.013-.028.007-.028.09-.059.1-.024.007-.115-.169-.147-.159-.025.01-.035.068-.066.08-.03.01-.065-.002-.092.001-.034.004-.009.162-.038.157-.036-.006-.095-.088-.127-.098-.032-.01-.098-.118-.136-.124-.027-.003-.05.015-.084.02-.027.002-.058 0-.089.01-.032.011-.032.098-.055.108-.03.013-.053.038-.076.05-.029.016-.05.038-.074.053-.024.014-.08-.064-.11-.049-.022.012-.01.136-.04.148-.024.01-.07-.037-.102-.026-.032.008-.06.017-.085.022-.033.014-.02.131-.043.144-.029.015-.106-.122-.13-.107-.024.014.003.173-.028.19-.02.011-.088-.096-.12-.082-.023.01-.067-.027-.098-.017l-.084.025c-.032.011-.06.014-.084.026-.03.014-.026.11-.049.122-.025.014-.033.072-.063.087-.023.012-.066-.026-.097-.015-.026.01-.012.133-.043.143-.03.011-.12-.156-.146-.152-.034.006-.049.048-.077.046-.035-.003-.082-.054-.113-.06-.03-.007-.042.045-.077.043-.029-.002-.044.035-.078.041-.026.004-.056.005-.087.016-.032.01-.026.108-.049.12-.029.015-.055.028-.075.044-.027.021-.065-.002-.085.02-.02.001-.088-.12-.114-.114-.02.006-.02.075-.044.083-.03.011-.017.135-.042.143-.032.011-.099-.096-.123-.087-.03.01-.028.1-.053.11-.027.01-.076-.05-.107-.04-.024.01-.065-.023-.097-.012-.025.008-.016.118-.047.13-.03.01-.1-.1-.125-.094-.032.01-.03.103-.055.11-.03.007-.096-.092-.123-.087-.027.006-.014.125-.046.133-.024.006-.027.083-.059.092-.025.007-.094-.1-.125-.089-.032.01-.054.032-.077.046-.029.02-.066-.003-.086.02-.023.028-.03.09-.049.12-.018.031-.033.073-.057.102-.019.023-.02.103-.05.122-.02.013-.07-.039-.102-.029-.033.011-.07-.012-.097-.01-.035.002-.02.13-.05.121-.038-.01-.116-.15-.15-.166-.036-.016-.029.091-.066.081-.029-.009-.066-.028-.1-.026-.029.002-.11-.14-.14-.13-.032.01 0 .183-.025.192-.032.013-.094-.077-.116-.066-.03.014-.078-.039-.103-.025-.023.014.02.213-.01.228l-.082.034c-.023.01-.12-.175-.15-.164-.032.011.004.197-.02.206-.032.013-.072-.018-.095-.008-.03.014-.05.038-.076.05-.025.013-.065-.019-.094-.006-.024.011-.037.061-.068.072-.024.01-.06-.009-.093.002-.03.011-.07-.014-.093-.002-.03.016-.016.137-.037.155-.026.023-.08-.048-.102-.024-.02.024-.034.066-.06.09-.02.017-.084-.076-.115-.06-.022.012-.03.078-.06.088l-.087.02c-.032.01-.067-.004-.09.004-.032.008-.02.128-.045.135-.027.008-.097-.105-.128-.095-.024.007-.037.055-.069.066-.025.008-.062-.01-.092.001s-.037.08-.063.087l-.079.036c-.03.01-.085-.056-.11-.047-.026.007-.015.122-.045.131-.025.008-.059-.004-.092.007-.023.008-.03.073-.06.084-.032.011-.092-.069-.118-.066-.035.004-.055.031-.084.026-.037-.006-.076-.03-.108-.04-.033-.012-.1-.115-.138-.12-.028-.006-.015.11-.05.115-.026.003-.04.046-.073.057-.03.01-.092-.076-.116-.066-.03.014-.019.13-.042.141-.029.014-.049.042-.072.056-.024.014-.065-.016-.094 0-.022.011-.094-.1-.125-.088-.023.01.016.201-.015.212-.032.01-.084-.048-.108-.039-.03.013-.098-.086-.12-.074-.029.016-.027.1-.052.114-.023.015-.01.127-.04.143-.023.012-.09-.087-.12-.073-.024.01-.008.138-.039.148-.03.011-.1-.093-.124-.083-.03.013-.065.002-.088.014-.029.015-.06.006-.086.02-.024.012-.054.015-.082.03-.022.011-.019.102-.052.115-.023.01-.03.072-.06.083-.032.011-.045.06-.07.063-.036.006-.08-.04-.109-.042-.035-.002-.048.042-.08.037-.03-.007-.107-.134-.142-.136-.028 0-.033.068-.066.074-.025.004-.088-.082-.119-.07-.027.01-.035.062-.057.073-.026.013-.068-.026-.088-.012-.024.018-.035.063-.052.081-.02.022-.034.06-.055.08-.02.018-.005.126-.03.143-.018-.002-.06-.1.226.674.286.773.274.72.29.718.024-.019.103.125.12.105.021-.022-.014-.188.004-.21.018-.02.086.092.11.073.018-.015-.01-.165.016-.178.021-.01.098.124.125.115.031-.01.001-.173.028-.178.033-.005.076.03.104.032.035.003.07.014.101.022.032.008.044-.039.08-.036.027.002.097.112.132.107.025-.004.041-.045.072-.056.03-.01.087.06.11.048.031-.014.035-.08.058-.095.027-.02.038-.068.06-.087.023-.02.073.038.1.018.022-.014.005-.14.035-.156.024-.01.03-.076.062-.087.03-.01.085.054.11.047.032-.009.082.047.107.042.034-.005.04-.067.068-.069.028-.003.096.1.128.094.025-.004.03-.075.061-.084l.08-.032c.033-.01.017-.136.04-.148.03-.016.113.128.133.11.027-.023.02-.12.04-.145.021-.023.046-.034.073-.056.02-.019.011-.125.041-.14.023-.013.111.144.142.134.031-.01.06-.018.084-.024.031-.01.048-.048.07-.058.032-.012.002-.169.03-.18.024-.01.097.113.13.101.022-.01.01-.122.043-.134.024-.009.045-.033.077-.044.03-.01.114.134.14.132.035-.004.012-.148.041-.143.037.008.123.164.158.178.034.013.063.014.1.022.03.005.043-.038.078-.04.027-.003.018-.112.048-.123.03-.01.05-.046.071-.06.03-.022.072.016.09-.009.023-.032.02-.12.035-.155.018-.034.045-.04.068-.073.018-.025.03-.074.06-.093a.292.292 0 0 1 .078-.04c.031-.01.117.143.144.142.035 0 .074.024.105.035.04.012.06-.01.096.01.035.02.04-.054.078-.04.032.01.1.12.136.117.026 0 .048-.025.08-.036.03-.01.016-.135.038-.15.03-.02.081.043.1.02.022-.032.054-.026.071-.059.017-.034.004-.15.028-.183.018-.023.022-.094.051-.113.022-.016.108.137.138.127.031-.01.042-.068.067-.073.034-.006.075.025.102.025.034.001.062.001.095.005.03.005.076.05.11.051.027 0 .018-.109.052-.114.025-.005.028-.082.06-.092.031-.01.072.02.097.012.031-.009.086.058.111.052.032-.008.037-.07.065-.077.027-.005.062.013.094.005.025-.006.056-.003.087-.013.026-.008.022-.104.053-.115.031-.01.107.116.13.103.028-.018-.003-.19.017-.212.024-.027.105.12.125.09.018-.028-.006-.178.02-.205.02-.02.07.038.1.021.021-.013.01-.136.04-.147.031-.009.07.017.095.011.034-.007.065-.006.091-.007.034-.002.06-.009.09-.007.03.002.111.148.145.147.026 0-.01-.193.022-.2.025-.005.078.06.11.05.031-.01.082.045.107.042.033-.006.057-.027.084-.026.034.002.076.04.107.045.032.006.057-.004.092-.003.027.002.025-.092.058-.099.025-.003.094.104.125.093.03-.01.01-.147.032-.16.028-.016.037-.076.054-.097.025.002.112.178.141.178.024 0 .056.02.084.013.022-.004.048-.004.074-.013.032-.01.03-.104.052-.113.032-.013.083.05.106.037.03-.015.032-.09.055-.104.025-.013.025-.097.054-.112.023-.01.1.12.13.107.023-.01.045-.036.075-.046.03-.01.064-.007.087-.018.03-.015.013-.148.034-.163.03-.019.04-.069.062-.089.022-.019.04-.055.066-.075.022-.015.05-.022.08-.037.023-.012.101.125.131.115.031-.01.006-.17.031-.178.033-.008.082.048.108.044.032-.005.076.035.103.034.03-.002.016-.124.048-.129.026-.004.064.02.096.01.025-.005.048-.029.08-.04.03-.01.111.137.134.124.03-.015.022-.124.043-.142.026-.023.067.011.088-.014.02-.023-.004-.178.022-.2.021-.018.094.106.124.09a.428.428 0 0 1 .08-.034c.031-.01.064-.004.088-.013.031-.01.005-.174.027-.184.032-.01.063-.006.088-.016.026-.01.041-.05.071-.062l.08-.038c.023-.01.076.054.106.043.03-.01.092.075.118.072.034-.003.06-.015.09-.009.035.007.036-.075.07-.06.034.012.1.118.136.126.03.006.008-.14.042-.144.028-.003.072.045.105.035.031-.01.074.025.096.01.03-.019.062-.01.078-.035.025-.032.016-.143.033-.179.016-.035.04-.053.062-.086.02-.024.054-.007.083-.027.022-.015.033-.068.066-.078.031-.01.096.093.124.092.035 0 .061-.01.091 0 .04.013.048-.046.084-.026.036.021.041-.048.081-.035.03.011.098.122.133.121.027 0 .015-.124.046-.134.031-.01.106.117.127.102.03-.019.038-.08.057-.105.023-.032.051-.036.068-.07.018-.034.012-.135.035-.167.02-.023.072.044.101.025.02-.015.05-.024.08-.034.031-.01.062-.012.087-.017.033-.006.016-.147.043-.145.034 0 .072.03.103.034.031.004.074.046.108.047.027 0 .065.024.097.017.027-.005.032-.08.062-.092.031-.01.048-.05.073-.057.031-.01.123.171.148.165.031-.008.034-.086.061-.092.028-.005.022-.107.053-.115.023-.006.062.02.096.01.024-.008.081.07.112.06.03-.012.024-.122.047-.135.03-.017.09.071.108.05.026-.027.042-.062.062-.09.02-.029-.006-.19.02-.217.02-.02.101.135.131.118.023-.014.01-.14.041-.152.03-.01.033-.094.06-.098.032-.007.115.15.141.15.034-.003.066.006.095.008h.092c.026 0 .043-.042.076-.049.024-.006.01-.143.041-.153.03-.01.067.006.093.002.033-.006.07.017.097.018.035.002.107.13.137.135.031.006.05-.027.084-.026.027.002.07.046.106.041.025-.004.05-.014.083-.025.035-.012.038-.104.062-.12.034-.023.043-.099.061-.125.03-.004.084.06.122.052.027-.007.031-.097.067-.109.03-.01.05-.045.074-.052.032-.012.081.048.106.042.03-.01.077.043.102.034.027-.008.011-.14.041-.15.025-.008.094.111.125.1.025-.008.004-.16.036-.17.031-.012.108.132.13.12.032-.013.045-.064.067-.079.027-.019.065.008.088-.012.022-.019.048-.03.075-.049.02-.015-.007-.19.024-.204.023-.01.055-.006.086-.017.031-.01.09.072.114.066.033-.008.03-.107.055-.11.032-.006.093.09.121.088l.09-.006c.026-.004.042-.043.074-.052.026-.007.08.07.112.058.031-.01.02-.137.043-.149.03-.016.092.083.113.066.026-.024.038-.073.06-.098.02-.024.044-.037.072-.059.02-.019.004-.16.033-.176.023-.013.088.091.12.08.028-.01.018-.139.042-.148.031-.01.076.036.101.026.03-.012.063.004.09-.007.024-.01.064.022.094.011.024-.01-.004-.183.03-.194.022-.008.063.023.094.012.031-.01.101.11.127.108.034-.004.025-.124.054-.118.036.008.058-.01.092.002.033.014.124.202.16.21.03.007.05-.022.084-.026.025-.002.04-.05.071-.063.03-.009.065 0 .086-.015.028-.02.011-.166.028-.192.025-.03.073.026.09-.009.018-.036.031-.08.055-.112.017-.025.05-.023.078-.043.023-.015.064.018.094.007.031-.01.043-.067.07-.067.035 0 .045-.06.075-.05.038.014.068.013.103.034.036.02.065.024.104.037.031.011.118.19.153.19.027-.002.02-.116.051-.126.032-.01.063-.007.084-.023.03-.019.077.035.096.011.024-.03-.004-.205.014-.238.018-.034.068.03.092 0 .02-.025.001-.173.03-.193.021-.014.053-.012.084-.023.03-.01.081.052.106.047.033-.007.058-.024.084-.023.033 0 .09.082.12.087.031.004.038-.056.074-.056.027.001.091.11.125.103.025-.005-.002-.185.028-.196.031-.01.074.027.1.02.031-.009.063-.002.086-.007.033-.008.096.097.123.091.027-.005.017-.125.05-.133.024-.005.058.008.09 0l.08-.035c.032-.01.032-.105.054-.118.03-.017.1.106.12.084.025-.026.025-.112.045-.14.021-.029.056-.009.081-.036.02-.02.046-.032.075-.049.023-.014.06.003.09-.006.031-.012.048-.052.073-.057.034-.008.063-.01.088-.012.033 0 .072.027.102.03.03.002.007-.159.04-.16.026 0 .065.026.098.02.025-.006.038-.063.068-.074.031-.01.118.167.143.163.034-.006.035-.097.061-.096.035.002.084.067.115.072.03.006.028-.093.062-.092.027.002.045-.036.078-.04.025-.005.095.116.125.105.035-.013.04-.109.063-.125a.262.262 0 0 0 .078-.078c.026.022.063.127-.225-.785-.277-.876-.255-.786-.259-.748-.027-.002-.078-.056-.119-.047-.028.005-.035.093-.07.104-.032.011-.044.066-.069.075-.03.01-.109-.14-.133-.13-.03.01-.01.16-.038.17-.025.008-.067-.032-.097-.02-.024.008-.075-.062-.108-.05-.024.008-.022.107-.053.116-.032.012-.084-.057-.109-.049-.032.008-.063.003-.089.008-.03.008-.062 0-.09.006-.026.006-.059-.006-.09.001-.026.006-.02.115-.053.124-.025.008-.048.03-.079.04-.03.011-.088-.074-.112-.059-.028.018-.036.088-.055.11-.025.028-.044.058-.064.09-.018.031-.006.16-.03.188a.31.31 0 0 1-.07.07c-.023.014-.093-.112-.124-.103-.032.011-.037.088-.064.09-.035.001-.033.101-.062.092-.037-.01-.088-.079-.122-.096-.035-.015-.082-.074-.119-.085a.266.266 0 0 0-.094-.005c-.028.001-.035.071-.067.081-.03.011-.108-.136-.13-.128-.034.012-.059.02-.084.03-.03.012-.014.153-.04.167-.023.012-.084-.085-.114-.072-.022.012-.005.16-.036.171-.024.01-.104-.144-.136-.133-.03.01-.027.115-.05.125-.033.011-.045.062-.069.073-.03.013-.042.064-.067.077-.026.012-.059-.004-.089.01-.023.01-.034.07-.065.081-.024.01-.097-.122-.128-.112-.032.011-.062.012-.084.024-.03.017-.037.09-.058.107-.026.023-.05.041-.07.066-.022.023-.02.12-.046.142-.02.018-.068-.03-.097-.015-.023.012-.055.01-.086.02-.03.011-.068-.01-.094-.003-.03.01-.043.065-.067.072-.03.01-.078-.045-.104-.038-.027.007-.007.156-.04.166-.023.007-.043.037-.075.046-.024.008-.057 0-.089.011-.03.011-.096-.097-.12-.089-.033.011-.075-.027-.099-.02-.033.01-.025.118-.05.126-.027.008-.032.081-.065.09-.023.007-.057-.008-.089.003-.025.007-.08-.067-.11-.056-.032.011-.082-.05-.108-.047-.034.004-.07-.008-.097-.013-.035-.006-.037.077-.07.067-.032-.01-.058 0-.094-.007-.028-.004-.073-.05-.107-.046-.027.003-.023.104-.054.116-.03.01-.094-.087-.118-.077-.03.013-.076-.033-.099-.02-.029.014-.003.181-.027.195-.025.014-.054.012-.083.027-.024.012-.063-.016-.094-.004-.023.01-.08-.068-.11-.057-.033.01-.022.133-.045.143-.03.013-.093-.082-.116-.07-.03.015.01.221-.014.235l-.079.041-.08.032c-.025.011-.075-.047-.106-.037-.03.01-.067-.005-.09.004-.032.013-.049.05-.073.062-.029.014-.05.037-.075.051-.024.013-.059-.004-.088.01-.023.012-.03.082-.06.095-.025.01-.08-.063-.11-.053-.032.011-.086-.059-.11-.055-.034.006 0 .194-.03.192-.034-.002-.119-.172-.15-.178-.03-.007-.069-.035-.104-.038-.028 0-.016.122-.05.128-.026.004-.052.015-.083.026-.03.01-.079-.044-.102-.033-.03.015-.009.168-.029.185-.026.02-.056.02-.077.042-.02.002-.095-.149-.12-.142-.02.005.01.173-.012.182-.03.011-.092-.079-.116-.07-.032.01-.074-.025-.097-.016-.03.011-.05.037-.076.047-.026.01-.026.098-.056.11-.023.008-.095-.119-.128-.107-.024.008.01.198-.02.21-.032.01-.09-.07-.114-.063-.033.01-.07-.01-.094-.006l-.085.022c-.028.005-.048.032-.079.04a3.39 3.39 0 0 1-.084.025c-.025.007-.024.101-.055.112-.03.01-.103-.109-.124-.095-.029.018-.049.05-.067.072-.025.028-.037.085-.054.116-.018.033-.024.1-.049.128-.019.023-.03.076-.06.094-.023.015-.038.06-.069.07-.03.011-.099-.1-.126-.098-.034.002-.032.097-.06.09-.039-.01-.128-.188-.162-.204-.037-.016-.066-.022-.104-.033-.029-.008-.065-.023-.1-.02-.026.001.003.177-.028.188-.03.01-.107-.123-.13-.113-.032.013-.036.09-.059.1-.03.014-.068-.012-.092.002-.026.013-.004.16-.033.173-.024.012-.067-.027-.098-.015-.023.01-.094-.106-.125-.096"/>
        <path fill="#595478" d="M95.433 76.843l8.425-3.034c2.056-.741 4.325-1.672 5.204-3.674 1.05-2.392-.515-5.281-2.767-6.605-2.252-1.322-4.978-1.476-7.588-1.598 2.089-2.413 2.075-6.377-.033-8.775-1.836-2.088-5.102-2.814-7.597-1.585s-3.913 4.369-3.064 7.017c.848 2.65 3.938 4.393 6.613 3.634-3.546 4.174-3.837 10.776-.673 15.247"/>
        <path fill="#42969B" d="M111.122 29.683c.026.02.065.016.09.03.027.019.081-.003.102.015.03.019.037.057.061.073.024.017.072.003.101.027.021.013.051.035.08.052.021.019.024.062.051.085.027.025.108-.012.131.004.03.023-.037.138-.012.15.035.017.155-.058.187-.045.031.013.022.065.057.084.026.015.01.075.04.1.023.02.03.06.055.087.027.027.14-.03.16-.008.026.032.031.073.05.095.025.028.056.044.076.069.022.026.055.039.08.07.02.023 0 .085.026.115.02.022.08.018.105.048.026.03-.04.13-.02.154.025.03.12-.002.14.024l.056.087c.021.028.093.013.115.043.02.025-.087.155-.063.185.018.022.074.02.098.052.024.029.03.067.045.093.018.036.142-.017.151.013.012.039-.034.112-.029.15.005.035-.058.12-.047.158.01.03.032.053.05.088.012.025.022.058.043.09.021.03.097.017.116.04.023.032.052.049.07.073l.071.072c.021.024-.027.092-.005.12.018.023.123-.004.143.028.016.025-.01.079.008.11.015.033.032.062.045.088.02.03.12.012.136.036.023.03-.078.118-.059.142.018.025.15-.008.171.022.015.024-.06.098-.042.13.014.024-.01.07.005.103.011.034.024.062.035.087l.036.087c.02.03.1.029.112.055.015.026.066.038.081.07.012.025-.016.069-.003.1.01.026.12.023.125.057.011.035-.129.109-.127.134.005.035.041.055.04.082-.002.035-.043.074-.053.104-.009.028.033.046.028.078-.004.025.025.048.026.08l.002.083c.003.028.082.046.088.07a.514.514 0 0 0 .022.079c.013.03-.012.058-.003.08-.005.019-.12.039-.123.059-.002.018.052.039.052.06 0 .028.101.062.098.087-.006.028-.112.038-.115.057-.004.025.062.06.06.084-.004.023-.063.033-.074.056-.007.018-.049.029-.056.053-.006.017.071.068.063.094-.006.028-.114.006-.125.02-.014.02.043.073.031.09-.012.022-.105-.006-.115.01-.01.017.058.084.04.104-.013.015.021.068.003.09-.014.017-.108-.028-.123-.007-.01.02-.02.043-.03.06-.013.026-.049.022-.054.044-.007.03.007.078.001.109-.005.03-.003.069-.018.099-.01.024.007.09-.016.117-.019.018-.073-.011-.1.006-.027.017-.066.008-.092.017-.03.01-.004.114-.035.115-.038 0-.126-.102-.159-.11-.034-.006-.02.083-.059.082-.03-.001-.068-.011-.104-.004-.027.006-.108-.104-.14-.092-.033.013-.004.158-.032.17-.034.016-.096-.055-.12-.042-.033.016-.08-.023-.108-.01-.028.016.001.185-.034.202a1.866 1.866 0 0 0-.095.04c-.03.01-.118-.14-.156-.126-.038.012-.019.172-.049.183-.039.015-.083-.006-.114.006-.036.016-.063.04-.094.054-.033.013-.076-.01-.113.007-.028.01-.049.057-.088.072-.03.01-.072 0-.11.013-.039.013-.083-.004-.11.01-.039.018-.039.123-.067.14-.033.024-.088-.03-.117-.007-.027.024-.05.064-.084.087-.026.019-.09-.056-.128-.038-.028.014-.046.072-.084.086l-.104.027c-.04.014-.08.006-.11.016-.038.013-.038.115-.07.125-.033.01-.1-.08-.139-.067-.029.008-.05.053-.09.067-.03.01-.072-.001-.11.013-.039.013-.055.075-.085.085a3.806 3.806 0 0 0-.1.04c-.038.013-.09-.037-.124-.027-.034.01-.034.11-.073.122-.029.01-.068.004-.107.017-.03.01-.048.069-.086.083-.039.015-.098-.05-.13-.043-.04.008-.069.034-.102.033-.043 0-.084-.016-.122-.022-.039-.005-.104-.09-.146-.09-.033 0-.035.1-.076.11-.03.006-.056.046-.094.06-.039.012-.099-.055-.13-.043-.038.015-.04.115-.069.129-.036.017-.063.043-.094.059-.03.016-.074-.006-.11.01-.029.015-.097-.075-.136-.061-.029.012-.01.176-.049.19-.038.013-.092-.032-.12-.021-.04.016-.104-.063-.133-.05-.036.017-.048.09-.077.108-.03.016-.032.114-.068.13-.029.016-.094-.064-.132-.05-.03.013-.028.124-.067.138-.039.013-.105-.07-.135-.058-.038.015-.077.01-.106.024-.037.016-.074.012-.105.027l-.1.038c-.03.013-.039.094-.078.108-.029.012-.047.068-.086.082-.038.013-.06.057-.092.065-.04.009-.088-.024-.12-.023-.043.002-.064.042-.1.04-.037 0-.109-.103-.15-.1-.032.002-.048.064-.089.073-.03.007-.09-.061-.13-.048-.034.012-.05.06-.079.073-.032.015-.076-.014-.1.002-.032.017-.05.058-.075.078-.028.02-.048.056-.077.077-.023.018-.023.112-.056.13-.02 0-.056-.08.171.568.226.649.22.606.237.6.031-.02.106.097.13.078.026-.023.008-.165.034-.188.024-.02.09.072.12.052.024-.017.012-.145.045-.16.026-.013.098.097.131.085.038-.013.027-.152.06-.16.04-.01.086.016.118.015.042-.002.08.003.116.006.037.002.058-.041.1-.042.033-.002.1.087.141.078.03-.007.056-.046.094-.06.038-.012.095.043.124.03.04-.017.055-.076.082-.092.035-.021.057-.065.085-.086.03-.02.081.026.116.005.027-.016.027-.126.065-.143.03-.013.045-.072.084-.085.04-.014.093.037.124.027.04-.012.092.03.123.024.04-.008.055-.065.09-.071.034-.006.098.077.137.069.031-.007.046-.071.086-.083.03-.011.064-.024.101-.04.04-.012.038-.122.067-.135.037-.02.115.098.143.08.034-.024.04-.11.068-.133.027-.022.06-.036.093-.06.027-.018.032-.111.07-.13.028-.012.11.115.15.102.038-.013.072-.022.102-.032.04-.014.065-.05.094-.061.037-.013.026-.15.057-.162.032-.013.103.087.14.072.028-.011.032-.11.071-.124.03-.01.06-.035.098-.048.038-.014.117.104.148.098.041-.008.036-.133.07-.131.043.002.123.129.161.137.04.007.074.004.117.006.033.002.057-.038.1-.046.03-.005.035-.101.073-.114.04-.014.063-.047.093-.064.036-.02.083.006.107-.018.031-.031.041-.11.066-.141.024-.033.057-.043.088-.074.025-.024.047-.068.083-.09a.71.71 0 0 1 .1-.045c.038-.013.12.11.151.108.041-.006.084.01.121.016.044.007.072-.017.113-.004.04.013.054-.051.098-.045.036.005.103.093.145.087.033-.004.062-.03.1-.043.04-.012.04-.121.066-.136.037-.022.092.027.116.003.032-.03.07-.03.094-.061.024-.031.024-.134.057-.164.025-.024.04-.087.077-.108.028-.015.11.108.148.094.04-.012.06-.065.091-.073.042-.011.088.01.122.007l.117-.012c.037-.003.09.029.134.025.035-.007.04-.104.082-.117.033-.008.048-.08.09-.097.04-.017.091-.002.124-.016.043-.02.107.026.143.012.043-.02.057-.078.094-.095.036-.016.083-.013.127-.035.034-.018.075-.027.12-.054.036-.02.032-.108.073-.135.041-.027.146.045.177.018.041-.035-.01-.181.013-.212.03-.04.15.035.174-.007.023-.041-.028-.164-.003-.21.02-.033.096-.02.127-.065.024-.034-.016-.132.012-.172.03-.04.081-.056.107-.085l.096-.1c.035-.035.063-.067.091-.102.028-.032.168-.005.201-.051.026-.036-.098-.148-.072-.193.022-.034.103-.051.12-.103.016-.05.086-.075.103-.115.022-.052.026-.1.047-.138.03-.048.072-.083.094-.126.021-.043.028-.088.048-.14.015-.041-.05-.098-.038-.152.007-.04.11-.078.113-.134.002-.051-.11-.1-.113-.14-.004-.051-.047-.095-.058-.13.006-.034.164-.078.17-.124.002-.035.022-.076.021-.121 0-.036.004-.076 0-.121-.005-.054-.089-.084-.096-.122-.01-.05.043-.104.032-.142-.013-.05-.079-.078-.09-.117-.012-.041-.089-.063-.104-.108-.012-.033.095-.106.08-.154-.012-.036-.038-.073-.05-.12-.014-.047-.018-.09-.032-.123-.02-.044-.138-.045-.157-.076-.023-.04-.07-.064-.092-.096a3.806 3.806 0 0 1-.083-.096c-.02-.03-.035-.065-.056-.105-.017-.031.085-.12.066-.162-.019-.042-.154-.022-.169-.052-.019-.041.015-.1.002-.133-.015-.041.007-.093-.006-.131-.01-.036-.116-.022-.132-.063-.014-.03-.007-.078-.028-.118-.018-.028-.044-.062-.067-.096-.023-.037.077-.143.057-.171-.027-.037-.125-.022-.149-.046-.032-.031-.02-.082-.052-.105-.03-.024-.157.013-.189-.015-.026-.022.054-.12.023-.153-.02-.03-.044-.058-.069-.092-.024-.035-.034-.075-.054-.102-.026-.037-.157.01-.177-.014-.02-.034-.04-.068-.06-.097-.023-.027-.065-.04-.09-.073-.02-.025-.048-.054-.075-.085-.022-.025.006-.094-.022-.127-.025-.033.018-.115 0-.145-.02-.04-.047-.065-.058-.1-.014-.042-.085-.026-.092-.068-.007-.04.05-.128.035-.17-.01-.033-.127.016-.148-.021-.018-.028-.002-.09-.03-.121-.027-.031-.019-.086-.045-.107-.035-.028-.046-.067-.08-.081-.04-.02-.132.012-.172 0-.04-.011-.072-.032-.114-.05-.032-.015-.04-.057-.075-.084-.025-.022-.08-.023-.109-.054-.03-.031.018-.127 0-.156-.024-.038-.05-.066-.062-.101-.014-.046-.072-.041-.08-.085-.008-.044-.069-.033-.087-.078-.012-.035.033-.14.007-.177-.02-.03-.118.017-.15-.013-.034-.032.017-.146-.014-.166-.04-.026-.1-.017-.136-.03-.045-.015-.074-.043-.117-.048-.044-.008-.124.03-.17.017-.035-.012-.024-.09-.067-.11a.645.645 0 0 1-.102-.07l-.095-.078c-.037-.03-.133.043-.158.018-.033-.031-.047-.082-.074-.111-.028-.031-.04-.088-.076-.12-.027-.025-.049-.071-.09-.1-.033-.02-.1.014-.143-.006-.042-.021-.09-.015-.125-.03-.042-.024-.017-.191-.052-.207-.046-.022-.108.019-.145.002-.037-.021-.105.046-.15.029-.035-.014-.067-.056-.115-.07-.038-.014-.059-.101-.11-.112-.05-.01-.113.067-.152.062-.05-.005-.076-.101-.119-.093-.053.008-.099.025-.143.038-.046.012-.1.142-.148.15-.037.005-.07-.142-.122-.141-.04.004-.086.108-.134.109-.05 0-.09.067-.127.065-.048-.002-.1-.147-.14-.153-.04-.004-.093-.01-.135-.016l-.136-.003c-.04 0-.078.033-.129.039-.04.003-.059.12-.105.135-.047.013-.092.002-.13.009-.048.01-.097-.005-.136-.002-.049.002-.13-.1-.173-.093-.044.004-.075.04-.125.049-.038.007-.098-.02-.149-.002a.884.884 0 0 0-.126.05c-.049.028-.059.116-.093.14-.05.038-.064.11-.087.144-.039.016-.115-.02-.166.009-.036.024-.037.109-.083.14-.039.026-.06.069-.09.09-.04.028-.11.003-.142.024-.036.032-.1.013-.132.039-.032.026.008.135-.028.164-.027.024-.133-.035-.17-.004-.03.026.026.147-.008.18-.03.03-.154-.033-.179-.004-.032.037-.035.092-.057.12-.026.04-.08.046-.098.083l-.066.11c-.018.032.066.156.041.194-.02.028-.057.052-.086.087-.028.036-.115.022-.139.05-.028.038.013.116-.01.143-.03.036-.128.014-.156.043-.027.03-.057.056-.084.094-.02.029-.019.078-.045.118-.02.03-.105.029-.129.072-.024.04.046.125.03.157-.016.046-.119.037-.127.074-.01.047.005.099 0 .14-.005.04-.02.077-.028.123-.009.035.083.117.071.163-.01.034-.115.034-.132.078-.016.044.067.117.054.15-.015.043-.077.064-.086.098-.012.044-.043.074-.053.112-.01.037-.055.065-.066.11-.009.034.12.109.107.153-.012.033-.053.063-.06.108-.01.046-.129.063-.14.098-.017.047.071.104.052.137-.025.04-.024.08-.046.114-.025.034-.2.05-.222.093-.016.034-.003.076-.015.122-.009.036.021.079.016.125-.003.046-.02.085-.016.12.003.049.122.094.134.129.018.045-.042.08-.02.119.02.038.052.076.07.119.015.035.006.072.014.118.007.034-.03.074-.03.118.001.044.042.082.038.117-.007.045.04.08.025.115-.019.044-.023.08-.047.12-.023.039-.032.077-.05.122-.012.035-.174.089-.176.136-.003.036.092.065.098.109.005.045-.002.085.008.119.012.045-.035.09-.018.122.026.04.174.056.202.088.027.033-.032.079-.007.118.02.032.144.047.161.088.013.033.01.07.017.113.01.042-.044.09-.04.126.004.044.018.078.017.113.001.043-.068.096-.07.133-.004.038.05.062.05.106 0 .034-.09.095-.085.14.003.034.16.033.171.074.011.04-.019.088-.01.12.01.043.006.082.012.115.01.04-.078.104-.07.139.008.036.11.042.121.083.007.032 0 .072.012.115.011.032.022.068.037.108.013.04.096.052.11.082.02.039-.079.11-.058.137.026.036.101.048.13.076.026.028.013.069.041.103.021.028.035.06.054.1.016.029.006.07.02.11.015.04.052.066.06.097l.026.109c.006.04-.01.085-.008.12.003.037.14.023.146.065.004.032-.01.076 0 .117.01.03.062.05.078.089.014.038-.125.13-.117.163.012.04.091.048.095.08.005.042-.04.098-.04.135 0 .036.087.039.092.08.004.033.04.056.051.097.008.032-.083.108-.068.146.018.043.103.053.122.083a.462.462 0 0 0 .082.099c-.013.027-.097.068.641-.234.71-.29.635-.266.602-.273-.004-.03.033-.09.018-.14-.01-.032-.088-.045-.105-.087-.015-.038-.066-.055-.077-.085-.016-.037.101-.122.09-.15-.016-.036-.142-.022-.155-.053-.014-.03.015-.078 0-.114-.014-.028.04-.085.024-.123-.01-.028-.096-.032-.11-.07-.015-.037.035-.094.026-.124-.014-.038-.014-.075-.023-.104-.01-.037-.01-.072-.018-.105-.009-.032-.003-.07-.014-.106-.009-.028-.103-.03-.115-.068l-.045-.095c-.014-.037.052-.097.038-.124-.02-.035-.08-.05-.103-.074a.786.786 0 0 0-.085-.08c-.028-.025-.138-.022-.166-.054-.022-.024-.048-.052-.067-.088-.014-.027.09-.097.076-.134-.01-.037-.077-.052-.08-.083-.005-.041-.09-.05-.085-.083.007-.042.062-.093.074-.13.011-.038.06-.085.068-.126a.526.526 0 0 0 .002-.106c-.003-.03-.062-.05-.073-.086-.009-.037.114-.104.106-.131l-.022-.098c-.01-.034-.13-.038-.142-.068-.012-.03.073-.082.061-.116-.009-.027-.134-.034-.14-.071-.008-.03.126-.09.118-.126-.007-.036-.096-.053-.103-.081-.009-.038-.05-.063-.055-.091-.008-.035-.05-.061-.058-.091s.01-.065.001-.101c-.006-.028-.057-.053-.063-.091-.002-.03.117-.077.113-.114-.004-.036 0-.068-.007-.096-.009-.037-.068-.063-.08-.091-.014-.033-.026-.06-.038-.095-.015-.03-.093-.056-.107-.092-.009-.028.04-.062.033-.1-.006-.03.004-.062.004-.1-.002-.035.027-.068.028-.097 0-.038-.04-.07-.039-.097.001-.036.054-.067.058-.097.003-.03-.118-.064-.115-.102.002-.028-.014-.061-.01-.1 0-.028.018-.06.02-.097.004-.037.11-.058.113-.087.005-.037.05-.063.054-.091.005-.034-.079-.076-.074-.106.003-.03-.046-.067-.039-.102.006-.026.034-.051.041-.086.004-.028.084-.043.088-.077.01-.034.071-.048.084-.074.016-.031.041-.055.061-.077.021-.026-.032-.073-.008-.097.025-.021.031-.048.055-.076.015-.021.075-.033.093-.062.013-.023-.052-.078-.04-.112.012-.031.11-.024.118-.048.008-.034.064-.042.073-.065.011-.03-.104-.113-.095-.143.01-.027.03-.048.041-.082.01-.024.051-.037.064-.068.011-.023.095-.014.112-.042.017-.028-.055-.102-.042-.128.017-.031.11-.01.12-.033.012-.031-.118-.148-.103-.175l.044-.083.05-.08c.016-.021.08-.014.101-.041.022-.025.06-.035.075-.057.022-.028.022-.066.037-.087.02-.03.03-.061.043-.086.015-.027.054-.032.074-.057.018-.022-.002-.08.024-.106.017-.02.091.01.115-.015.025-.024.091.004.114-.01.03-.017-.053-.153-.027-.164.034-.014.156.088.185.08.03-.006.07.002.101-.01.025-.007-.014-.102.018-.117.022-.012.045-.03.071-.048.026-.018.08.013.1-.005.021-.022-.02-.14-.002-.16.023-.022.051-.028.07-.051.02-.007.104.104.126.094.018-.01-.027-.144-.005-.158.03-.016.093.057.114.046.03-.013.07.013.091.004.027-.013.045-.036.07-.048.021-.012.023-.083.052-.092.024-.008.084.1.113.092.02-.007.004-.168.036-.178.031-.01.074.06.096.06.032-.003.061.018.083.016l.078-.003c.025 0 .047-.026.077-.022.022 0 .047 0 .077.002.022 0 .046-.074.077-.075.03-.001.054.11.075.104.028-.002.055-.017.078-.028.031-.013.06-.051.087-.067.028-.018.061-.066.094-.08.026-.011.06-.04.096-.04.026 0 .062-.024.094-.016.035.007.035.117.056.132.03.015.08-.048.1-.028.025.03-.003.189.012.22.017.03.035.053.056.08.017.023.032.05.057.07.018.017.104-.104.134-.088.03.012-.004.136.02.145.027.015.08-.022.101-.013.031.013.04.053.064.063.024.01.112-.076.143-.063.023.014.024.066.053.082.024.014-.015.122.011.143"/>
    </g>
</svg>
